<?xml version="1.0" encoding="UTF-8" standalone="no"?>
<!DOCTYPE svg PUBLIC "-//W3C//DTD SVG 1.1//EN" "http://www.w3.org/Graphics/SVG/1.1/DTD/svg11.dtd">
<svg xmlns="http://www.w3.org/2000/svg" version="1.1" viewBox="0.00 0.00 851.00 90.00">
<g stroke-width="2.00" fill="none" stroke-linecap="butt">
<path stroke="#838383" vector-effect="non-scaling-stroke" d="
  M 808.3175 20.2921
  A 0.97 0.97 0.0 0 0 807.3458 19.3238
  L 43.8869 20.6562
  A 0.97 0.97 0.0 0 0 42.9186 21.6279
  L 42.9225 23.8679
  A 0.97 0.97 0.0 0 0 43.8942 24.8362
  L 807.3531 23.5038
  A 0.97 0.97 0.0 0 0 808.3214 22.5321
  L 808.3175 20.2921"
/>
<path stroke="#838383" vector-effect="non-scaling-stroke" d="
  M 335.57 36.21
  C 338.12 36.39 341.63 35.53 343.49 37.55
  Q 345.09 39.29 345.40 41.85
  A 0.69 0.69 0.0 0 0 346.05 42.46
  L 347.41 42.53
  Q 347.88 42.55 347.92 42.08
  L 348.79 32.46
  Q 348.85 31.77 348.16 31.74
  Q 347.45 31.71 346.96 32.24
  Q 346.04 33.24 344.75 33.24
  Q 331.94 33.25 318.33 33.25
  C 317.09 33.25 316.06 32.84 315.19 32.00
  A 0.92 0.91 27.2 0 0 313.65 32.49
  L 312.04 41.61
  Q 311.91 42.32 312.59 42.57
  L 312.85 42.66
  Q 314.09 43.11 314.53 41.88
  C 316.70 35.74 319.60 36.16 325.28 36.27
  Q 326.18 36.29 326.19 37.19
  Q 326.34 50.29 326.19 63.23
  Q 326.16 65.78 325.73 68.10
  Q 325.58 68.90 324.80 69.11
  Q 323.47 69.47 322.02 69.58
  A 2.09 1.96 14.0 0 0 320.47 70.45
  Q 320.35 70.62 320.34 70.84
  Q 320.30 72.00 321.46 72.00
  L 339.38 72.00
  Q 340.00 72.00 340.02 71.38
  L 340.03 70.58
  Q 340.05 69.84 339.32 69.74
  L 336.84 69.41
  A 2.41 2.40 -86.5 0 1 334.75 67.03
  L 334.75 36.98
  Q 334.75 36.15 335.57 36.21"
/>
<path stroke="#838383" vector-effect="non-scaling-stroke" d="
  M 710.74 36.98
  Q 710.79 52.42 710.71 66.08
  Q 710.70 67.52 709.92 68.70
  Q 709.60 69.19 709.03 69.28
  L 705.97 69.77
  Q 705.31 69.88 705.20 70.54
  L 705.10 71.18
  A 0.71 0.71 0.0 0 0 705.80 72.00
  L 723.68 72.00
  Q 724.56 72.00 724.61 71.12
  L 724.64 70.67
  Q 724.69 69.97 724.00 69.83
  L 720.71 69.15
  A 1.07 1.06 84.1 0 1 719.94 68.52
  Q 719.33 67.03 719.31 65.44
  Q 719.17 51.56 719.30 37.25
  A 1.02 1.01 89.1 0 1 720.27 36.24
  C 722.59 36.15 727.05 35.69 728.48 37.96
  Q 729.59 39.72 730.06 41.91
  Q 730.18 42.47 730.75 42.49
  L 732.26 42.55
  Q 732.84 42.57 732.80 41.99
  Q 732.54 37.61 733.37 33.69
  Q 734.02 30.63 731.46 32.43
  Q 730.33 33.21 729.00 33.22
  Q 716.58 33.26 702.70 33.26
  Q 701.06 33.26 699.98 32.18
  A 1.06 1.05 -62.4 0 0 698.20 32.74
  L 696.54 41.76
  Q 696.44 42.33 697.00 42.45
  L 698.21 42.72
  A 0.67 0.65 15.8 0 0 698.98 42.30
  C 701.13 36.26 703.89 35.87 710.07 36.26
  Q 710.74 36.31 710.74 36.98"
/>
<path stroke="#838383" vector-effect="non-scaling-stroke" d="
  M 270.3430 50.8459
  A 18.26 18.26 0.0 0 0 252.1149 32.5540
  L 247.5549 32.5461
  A 18.26 18.26 0.0 0 0 229.2631 50.7742
  L 229.2570 54.2941
  A 18.26 18.26 0.0 0 0 247.4851 72.5860
  L 252.0451 72.5939
  A 18.26 18.26 0.0 0 0 270.3369 54.3658
  L 270.3430 50.8459"
/>
<path stroke="#838383" vector-effect="non-scaling-stroke" d="
  M 502.52 43.53
  C 506.56 33.32 520.82 31.80 524.83 42.94
  Q 525.06 43.60 525.75 43.48
  L 526.95 43.27
  Q 527.34 43.20 527.32 42.80
  L 526.70 34.44
  Q 526.67 33.93 526.18 33.81
  Q 519.47 32.06 513.00 32.30
  C 501.42 32.73 491.93 39.84 491.29 52.03
  C 490.82 60.94 495.92 68.57 504.31 71.29
  Q 514.44 74.57 525.96 70.79
  A 1.42 1.40 1.2 0 0 526.83 69.97
  Q 528.39 66.10 528.52 61.74
  Q 528.54 61.07 527.88 60.98
  Q 527.22 60.89 526.57 61.04
  Q 526.04 61.17 525.83 61.67
  C 520.67 74.07 505.74 71.69 502.05 59.69
  Q 499.46 51.27 502.52 43.53"
/>
<path stroke="#838383" vector-effect="non-scaling-stroke" d="
  M 599.88 69.44
  C 586.24 65.38 585.71 38.79 600.15 35.64
  Q 609.74 33.55 613.49 42.97
  Q 613.70 43.50 614.27 43.47
  L 615.29 43.41
  Q 616.04 43.37 615.99 42.62
  L 615.41 34.47
  Q 615.38 33.91 614.83 33.77
  Q 607.51 31.96 601.10 32.33
  C 588.83 33.04 579.35 41.25 579.97 54.08
  C 580.86 72.48 600.92 75.44 614.68 70.80
  Q 615.34 70.58 615.58 69.92
  Q 616.69 66.79 617.25 62.20
  Q 617.32 61.67 616.89 61.34
  Q 616.03 60.67 614.99 61.12
  Q 614.62 61.28 614.48 61.65
  C 612.10 67.70 606.25 71.34 599.88 69.44"
/>
<path stroke="#838383" vector-effect="non-scaling-stroke" d="
  M 78.57 68.73
  Q 79.64 66.04 79.83 62.83
  A 0.64 0.64 0.0 0 0 79.25 62.15
  L 77.98 62.03
  A 0.79 0.79 0.0 0 0 77.19 62.49
  Q 76.10 65.02 74.24 67.01
  C 71.59 69.87 64.99 69.24 61.93 68.25
  Q 61.43 68.09 61.22 67.61
  Q 60.32 65.50 60.29 63.34
  Q 60.17 51.35 60.31 38.91
  Q 60.35 35.45 63.92 35.56
  A 1.06 1.05 -6.1 0 0 64.98 34.26
  L 64.86 33.73
  Q 64.67 32.94 63.87 33.00
  Q 56.12 33.56 47.99 32.99
  A 0.95 0.94 1.4 0 0 46.98 33.95
  L 46.99 34.49
  A 0.96 0.95 -85.1 0 0 47.75 35.40
  L 50.18 35.88
  A 1.46 1.46 0.0 0 1 51.32 36.97
  Q 51.71 38.60 51.73 40.23
  Q 51.83 53.10 51.67 66.91
  A 2.50 2.49 87.1 0 1 49.46 69.36
  L 47.23 69.62
  A 0.83 0.83 0.0 0 0 46.50 70.47
  L 46.51 71.02
  Q 46.54 72.00 47.52 72.00
  L 89.95 72.00
  Q 90.90 72.00 90.81 71.05
  L 90.75 70.43
  Q 90.67 69.53 89.75 69.54
  Q 88.30 69.55 87.10 68.92
  Q 86.54 68.62 86.74 68.02
  L 89.56 59.38
  Q 89.76 58.75 90.42 58.75
  L 99.82 58.75
  Q 100.51 58.75 100.71 59.40
  L 103.47 68.27
  Q 103.66 68.86 103.10 69.13
  Q 102.01 69.64 100.71 69.72
  Q 99.96 69.76 99.96 70.52
  L 99.96 70.98
  A 1.02 1.01 0.0 0 0 100.98 71.99
  L 134.45 72.00
  Q 134.84 72.00 135.09 71.71
  Q 135.59 71.13 135.35 70.48
  Q 135.17 69.97 134.65 69.83
  L 132.10 69.13
  Q 131.64 69.00 131.40 68.59
  Q 130.82 67.62 130.79 66.45
  Q 130.63 60.16 130.89 54.34
  A 0.93 0.93 0.0 0 1 132.19 53.53
  Q 133.70 54.19 134.65 55.65
  Q 138.66 61.80 142.72 67.93
  A 0.98 0.98 0.0 0 1 142.18 69.41
  L 141.33 69.66
  Q 140.77 69.83 140.76 70.41
  L 140.74 71.24
  Q 140.72 72.00 141.49 72.00
  L 188.73 72.00
  A 1.14 1.13 -79.5 0 0 189.79 71.27
  Q 191.08 67.91 191.74 63.85
  Q 192.00 62.30 190.40 62.19
  Q 189.37 62.11 188.95 63.06
  C 187.84 65.58 186.03 68.32 183.08 68.76
  C 180.17 69.19 173.23 70.04 172.69 65.65
  Q 171.89 59.24 172.51 54.05
  Q 172.58 53.43 173.20 53.46
  Q 175.99 53.60 178.82 53.47
  C 181.05 53.37 182.09 55.15 182.09 57.19
  A 1.08 1.08 0.0 0 0 183.22 58.27
  L 183.73 58.25
  Q 184.96 58.20 184.82 56.97
  Q 184.28 52.16 184.84 46.51
  A 0.92 0.91 -86.2 0 0 183.96 45.50
  L 183.20 45.48
  Q 182.29 45.46 182.18 46.36
  C 181.98 47.98 181.47 50.09 179.41 50.04
  Q 175.91 49.96 173.13 50.01
  Q 172.54 50.02 172.48 49.43
  Q 171.97 43.66 172.43 37.15
  Q 172.50 36.28 173.36 36.27
  C 178.75 36.19 184.41 34.88 186.30 41.64
  Q 186.49 42.30 187.15 42.48
  Q 187.69 42.63 188.25 42.52
  Q 189.07 42.35 189.00 41.51
  L 188.34 33.77
  Q 188.30 33.25 187.77 33.25
  L 159.66 33.19
  Q 159.54 33.19 159.53 33.31
  Q 159.38 34.29 159.56 35.31
  Q 159.60 35.53 159.82 35.52
  Q 163.74 35.35 163.75 39.12
  Q 163.78 53.52 163.69 66.92
  A 2.30 2.29 80.4 0 1 162.18 69.05
  C 157.82 70.60 154.43 69.55 151.60 65.50
  Q 146.00 57.49 140.48 48.68
  A 0.95 0.94 -42.6 0 1 140.53 47.59
  Q 144.96 41.87 149.49 38.07
  Q 152.21 35.80 156.39 35.52
  Q 157.40 35.45 157.26 34.44
  L 157.14 33.61
  A 0.77 0.76 82.9 0 0 156.31 32.96
  Q 150.11 33.59 143.33 32.98
  Q 142.91 32.94 142.66 33.28
  Q 142.16 33.97 142.28 35.01
  Q 142.35 35.55 142.88 35.46
  Q 144.04 35.24 144.82 36.23
  Q 145.21 36.70 144.85 37.20
  Q 141.74 41.50 138.18 45.29
  C 136.35 47.25 134.61 49.37 132.31 50.59
  Q 130.86 51.35 130.82 49.71
  Q 130.68 44.30 130.78 38.67
  Q 130.84 35.24 134.35 35.52
  Q 135.22 35.59 135.26 34.72
  L 135.30 33.71
  Q 135.34 32.94 134.57 33.00
  Q 126.61 33.56 118.28 33.02
  Q 117.33 32.96 117.43 33.91
  L 117.52 34.75
  Q 117.61 35.63 118.49 35.57
  Q 119.80 35.47 121.08 36.15
  Q 121.58 36.42 121.69 36.97
  Q 122.16 39.27 122.20 41.45
  Q 122.39 52.04 122.16 63.66
  Q 122.12 65.63 121.86 67.65
  A 2.12 2.12 0.0 0 1 120.27 69.43
  C 117.79 70.04 113.33 70.15 112.22 67.01
  Q 106.47 50.83 100.49 33.25
  A 1.15 1.15 0.0 0 0 98.59 32.81
  Q 96.94 34.46 94.87 35.51
  Q 94.38 35.75 94.21 36.27
  Q 88.81 52.15 82.60 67.37
  A 3.43 3.41 4.2 0 1 80.22 69.41
  L 79.34 69.62
  Q 78.09 69.91 78.57 68.73"
/>
<path stroke="#838383" vector-effect="non-scaling-stroke" d="
  M 479.34 57.92
  Q 472.01 49.45 464.42 40.29
  Q 461.58 36.87 459.91 33.45
  Q 459.70 33.02 459.22 33.06
  Q 453.50 33.53 447.47 33.00
  Q 446.52 32.92 446.50 33.87
  L 446.49 34.28
  Q 446.47 35.18 447.33 35.40
  L 449.62 35.98
  A 2.77 2.76 6.9 0 1 451.72 38.65
  Q 451.79 50.45 451.72 62.02
  C 451.70 64.99 451.82 69.10 447.86 69.62
  C 442.94 70.28 442.29 67.53 440.80 63.33
  Q 435.55 48.49 430.44 33.36
  A 1.19 1.19 0.0 0 0 428.60 32.79
  L 424.70 35.70
  Q 424.25 36.04 424.06 36.58
  Q 418.49 52.51 412.66 66.98
  Q 411.61 69.58 408.77 69.60
  A 1.03 1.03 0.0 0 0 407.75 70.55
  L 407.71 71.07
  Q 407.64 72.00 408.57 72.00
  L 420.12 72.00
  Q 420.75 72.00 420.77 71.38
  L 420.81 70.55
  A 0.88 0.87 5.1 0 0 420.05 69.65
  L 418.05 69.38
  Q 416.29 69.14 416.85 67.45
  L 419.47 59.50
  Q 419.71 58.75 420.49 58.75
  L 429.67 58.75
  Q 430.35 58.75 430.55 59.40
  L 433.34 68.09
  A 1.07 1.07 0.0 0 1 432.36 69.48
  L 430.80 69.55
  A 0.89 0.88 -2.0 0 0 429.95 70.45
  L 429.97 71.49
  Q 429.98 72.00 430.49 72.00
  L 460.75 72.00
  Q 461.24 72.00 461.25 71.50
  L 461.25 70.47
  Q 461.26 69.84 460.64 69.73
  C 457.30 69.16 455.88 68.60 455.73 64.91
  Q 455.28 53.69 455.59 42.84
  Q 455.61 41.97 456.16 42.64
  L 479.99 72.27
  Q 480.43 72.81 481.11 72.63
  L 482.93 72.16
  A 1.11 1.11 0.0 0 0 483.75 71.09
  Q 483.75 56.80 483.76 42.29
  Q 483.76 39.31 484.89 36.73
  A 1.20 1.20 0.0 0 1 485.68 36.05
  L 488.05 35.39
  Q 488.97 35.13 488.92 34.18
  L 488.91 33.86
  Q 488.86 32.94 487.94 33.02
  Q 481.31 33.57 474.57 32.94
  A 0.56 0.56 0.0 0 0 473.96 33.51
  L 474.00 34.97
  Q 474.02 35.60 474.66 35.55
  Q 479.31 35.19 479.62 39.80
  Q 480.25 49.19 479.90 57.73
  Q 479.87 58.53 479.34 57.92"
/>
<path stroke="#838383" vector-effect="non-scaling-stroke" d="
  M 197.60 36.61
  Q 198.23 37.90 198.24 39.31
  Q 198.28 53.43 198.22 67.20
  A 2.12 2.11 -6.2 0 1 196.57 69.25
  L 194.59 69.69
  Q 193.92 69.84 193.73 70.51
  Q 193.60 71.01 193.75 71.51
  Q 193.90 72.00 194.42 72.00
  L 210.83 72.00
  Q 211.69 72.00 211.93 71.19
  Q 212.08 70.70 211.88 70.21
  Q 211.75 69.91 211.43 69.85
  L 208.85 69.34
  A 2.27 2.27 0.0 0 1 207.00 67.11
  L 207.00 37.28
  A 1.31 1.31 0.0 0 1 208.27 35.97
  C 215.04 35.78 217.10 41.99 216.20 47.60
  Q 215.47 52.16 211.23 53.72
  Q 210.71 53.91 210.55 54.45
  Q 210.45 54.79 210.60 55.10
  Q 210.86 55.68 211.50 55.72
  C 217.02 56.09 223.97 53.75 225.19 47.90
  C 227.74 35.71 217.01 32.91 207.75 33.01
  Q 200.93 33.08 194.41 33.52
  Q 193.93 33.55 193.97 34.03
  L 194.07 35.59
  Q 194.10 35.96 194.46 35.98
  L 196.92 36.16
  A 0.82 0.82 0.0 0 1 197.60 36.61"
/>
<path stroke="#838383" vector-effect="non-scaling-stroke" d="
  M 288.22 54.98
  C 289.99 54.89 291.69 55.22 292.46 57.07
  Q 294.43 61.79 296.95 66.04
  C 300.54 72.10 305.86 72.73 312.27 72.09
  Q 312.83 72.03 313.09 71.52
  Q 313.34 71.01 313.10 70.53
  Q 312.88 70.11 312.42 69.98
  Q 309.15 69.07 307.32 66.60
  Q 303.35 61.25 300.07 53.65
  A 0.74 0.74 0.0 0 1 300.43 52.68
  Q 305.00 50.52 306.12 46.59
  C 308.21 39.25 302.45 34.03 295.44 33.37
  Q 286.88 32.55 275.90 33.58
  Q 275.36 33.63 275.26 34.17
  L 275.08 35.18
  Q 274.98 35.75 275.55 35.86
  L 277.29 36.21
  A 2.44 2.44 0.0 0 1 279.25 38.60
  L 279.24 66.89
  A 2.37 2.37 0.0 0 1 277.54 69.16
  L 275.31 69.80
  Q 274.81 69.95 274.78 70.46
  L 274.72 71.47
  Q 274.69 71.99 275.22 71.99
  L 291.20 72.00
  Q 291.90 72.00 292.03 71.30
  L 292.11 70.87
  Q 292.28 69.96 291.37 69.75
  L 289.06 69.21
  A 1.98 1.96 -83.7 0 1 287.54 67.30
  L 287.50 55.74
  A 0.76 0.75 88.8 0 1 288.22 54.98"
/>
<path stroke="#838383" vector-effect="non-scaling-stroke" d="
  M 368.52 36.60
  Q 369.45 37.94 369.46 39.56
  Q 369.55 51.86 369.47 65.99
  Q 369.45 69.84 365.70 69.52
  Q 364.84 69.45 364.79 70.32
  L 364.74 71.23
  Q 364.70 72.03 365.50 72.02
  Q 372.51 71.91 379.76 72.21
  C 391.90 72.71 404.17 69.51 406.66 55.81
  C 408.40 46.23 403.38 37.27 393.94 34.58
  Q 388.57 33.05 383.46 33.01
  Q 374.69 32.95 366.13 33.56
  Q 365.70 33.59 365.67 34.02
  L 365.57 35.41
  A 0.61 0.61 0.0 0 0 366.16 36.07
  L 367.66 36.13
  Q 368.21 36.15 368.52 36.60"
/>
<path stroke="#838383" vector-effect="non-scaling-stroke" d="
  M 544.25 49.25
  L 544.25 37.03
  Q 544.25 36.30 544.98 36.29
  Q 548.21 36.26 551.72 36.22
  Q 556.90 36.17 558.26 41.87
  Q 558.40 42.46 559.01 42.47
  L 560.52 42.50
  Q 561.04 42.51 561.00 41.98
  L 560.27 33.67
  Q 560.22 33.07 559.62 33.09
  Q 546.41 33.52 532.08 33.09
  Q 531.32 33.06 531.25 33.82
  L 531.18 34.60
  A 0.83 0.82 -87.5 0 0 532.00 35.50
  Q 535.69 35.52 535.72 39.07
  Q 535.82 51.80 535.70 66.78
  A 2.40 2.39 84.7 0 1 533.78 69.11
  L 530.42 69.78
  A 0.56 0.56 0.0 0 0 529.97 70.32
  L 529.94 71.47
  Q 529.93 72.00 530.47 72.00
  L 560.99 72.00
  A 0.77 0.76 -80.3 0 0 561.71 71.48
  Q 562.99 67.64 563.75 63.59
  Q 564.01 62.26 562.55 62.19
  A 1.78 1.78 0.0 0 0 560.85 63.21
  C 558.01 69.23 553.96 69.55 547.86 68.81
  Q 544.90 68.46 544.59 65.67
  Q 544.00 60.44 544.31 54.19
  Q 544.34 53.53 545.00 53.52
  Q 548.30 53.49 551.00 53.49
  Q 553.82 53.49 554.11 57.43
  A 0.92 0.91 82.7 0 0 555.19 58.27
  L 555.90 58.13
  Q 556.85 57.95 556.74 56.99
  Q 556.13 51.45 556.81 46.15
  A 0.57 0.57 0.0 0 0 556.23 45.51
  L 554.71 45.54
  A 0.72 0.72 0.0 0 0 554.01 46.32
  Q 554.14 48.12 553.09 49.39
  Q 552.58 50.00 551.78 50.00
  L 545.00 50.00
  Q 544.25 50.00 544.25 49.25"
/>
<path stroke="#838383" vector-effect="non-scaling-stroke" d="
  M 633.57 36.24
  C 635.77 36.22 637.98 36.31 640.18 36.26
  Q 645.58 36.12 646.80 41.54
  Q 647.02 42.54 648.05 42.53
  L 648.56 42.53
  Q 649.65 42.52 649.57 41.43
  L 648.99 33.51
  Q 648.95 33.04 648.48 33.06
  Q 634.10 33.54 620.39 33.02
  Q 619.96 33.01 619.97 33.44
  L 620.00 35.01
  Q 620.01 35.46 620.46 35.49
  Q 622.03 35.61 623.51 36.27
  Q 623.97 36.48 624.06 36.99
  Q 624.36 38.87 624.40 40.68
  Q 624.66 51.17 624.42 64.32
  Q 624.39 66.03 624.03 67.92
  Q 623.92 68.48 623.42 68.75
  Q 621.83 69.57 619.74 69.60
  Q 618.82 69.61 618.76 70.54
  L 618.73 71.09
  Q 618.67 72.00 619.59 72.00
  L 649.49 72.00
  Q 650.06 72.00 650.27 71.48
  Q 651.89 67.45 652.42 63.12
  Q 652.49 62.57 651.97 62.38
  Q 651.23 62.11 650.40 62.32
  Q 649.82 62.46 649.59 63.01
  C 647.01 69.21 643.27 69.01 637.44 68.90
  Q 633.34 68.83 633.16 65.22
  Q 632.86 59.33 633.06 54.06
  Q 633.09 53.48 633.67 53.49
  Q 636.46 53.55 639.55 53.49
  C 641.59 53.45 642.68 55.14 642.68 57.02
  A 1.26 1.26 0.0 0 0 644.00 58.27
  L 644.53 58.25
  Q 645.27 58.21 645.26 57.48
  L 645.25 46.21
  Q 645.25 45.70 644.78 45.52
  Q 644.01 45.22 643.37 45.57
  Q 642.88 45.83 642.76 46.38
  L 642.25 48.55
  A 1.81 1.81 0.0 0 1 640.51 49.95
  L 633.51 50.02
  Q 633.00 50.03 633.00 49.51
  L 633.01 36.81
  A 0.57 0.57 0.0 0 1 633.57 36.24"
/>
<path stroke="#838383" vector-effect="non-scaling-stroke" d="
  M 663.30 42.96
  Q 673.92 55.99 684.12 68.77
  C 685.08 69.97 685.82 71.32 686.82 72.45
  Q 687.20 72.88 687.76 72.75
  L 689.95 72.20
  Q 690.53 72.06 690.53 71.46
  Q 690.47 58.91 690.51 46.21
  Q 690.52 42.55 691.07 38.67
  Q 691.48 35.83 694.28 35.62
  A 1.52 1.51 3.3 0 0 695.65 34.40
  L 695.73 33.99
  A 0.83 0.82 -87.0 0 0 694.86 33.02
  Q 688.25 33.55 681.57 32.96
  A 0.55 0.55 0.0 0 0 680.97 33.52
  L 681.00 34.93
  Q 681.01 35.41 681.49 35.43
  Q 683.24 35.52 685.01 36.25
  A 1.29 1.28 1.6 0 1 685.74 37.02
  Q 686.77 39.90 686.76 43.22
  Q 686.74 50.60 686.73 57.45
  Q 686.73 58.45 686.07 57.70
  Q 677.36 47.69 669.40 37.78
  C 668.40 36.54 667.57 34.98 666.91 33.52
  Q 666.71 33.07 666.22 33.10
  Q 660.30 33.49 654.25 32.98
  Q 653.44 32.91 653.46 33.72
  L 653.48 34.83
  A 0.72 0.72 0.0 0 0 654.22 35.54
  Q 658.57 35.42 658.68 39.70
  Q 659.00 52.48 658.44 65.46
  Q 658.26 69.41 654.44 69.61
  Q 653.72 69.65 653.72 70.36
  L 653.73 71.24
  Q 653.73 72.00 654.49 72.00
  L 667.45 72.00
  Q 667.86 72.00 668.08 71.65
  Q 668.41 71.10 668.26 70.47
  Q 668.14 69.93 667.60 69.80
  L 664.96 69.17
  A 2.41 2.37 -1.0 0 1 663.22 67.51
  Q 662.65 65.56 662.59 63.53
  Q 662.35 54.95 662.58 43.21
  Q 662.60 42.11 663.30 42.96"
/>
<path stroke="#838383" vector-effect="non-scaling-stroke" d="
  M 749.45 53.45
  Q 751.94 53.63 754.94 53.44
  C 757.36 53.30 758.49 55.42 758.49 57.53
  Q 758.49 58.26 759.22 58.25
  L 760.26 58.25
  A 0.76 0.75 89.6 0 0 761.00 57.49
  L 761.00 45.98
  Q 761.00 45.46 760.48 45.48
  L 758.96 45.53
  A 0.50 0.50 0.0 0 0 758.48 46.03
  Q 758.48 48.17 757.12 49.60
  A 1.29 1.28 -68.1 0 1 756.19 50.00
  L 749.37 49.99
  Q 748.75 49.99 748.75 49.37
  L 748.75 36.96
  Q 748.75 36.30 749.41 36.28
  Q 753.28 36.12 757.17 36.37
  C 760.35 36.57 761.80 38.95 762.60 41.68
  A 1.12 1.12 0.0 0 0 763.32 42.44
  Q 764.02 42.68 764.76 42.41
  A 0.88 0.87 77.4 0 0 765.32 41.51
  L 764.63 33.69
  Q 764.57 33.06 763.94 33.08
  Q 750.01 33.50 735.97 33.07
  Q 735.85 33.07 735.83 33.18
  Q 735.58 34.26 735.94 35.36
  Q 736.00 35.56 736.21 35.55
  Q 739.98 35.44 739.99 38.82
  Q 740.05 51.98 739.95 67.05
  A 2.16 2.16 0.0 0 1 738.15 69.17
  L 734.98 69.71
  Q 734.23 69.84 734.34 70.59
  L 734.45 71.28
  Q 734.56 72.00 735.28 72.00
  L 765.04 72.00
  A 1.24 1.23 -80.3 0 0 766.20 71.17
  Q 767.64 67.03 768.06 63.30
  A 0.88 0.86 -74.7 0 0 767.56 62.41
  Q 766.74 62.02 765.89 62.43
  Q 765.44 62.65 765.24 63.12
  C 762.62 69.28 758.57 69.31 752.68 68.88
  Q 749.04 68.61 748.87 65.01
  Q 748.62 59.90 748.78 54.06
  Q 748.80 53.41 749.45 53.45"
/>
<path stroke="#838383" vector-effect="non-scaling-stroke" d="
  M 783.86 55.03
  C 785.72 54.84 787.21 55.47 787.95 57.34
  C 788.90 59.73 790.21 61.98 791.32 64.30
  Q 796.10 74.23 808.00 71.91
  Q 808.56 71.80 808.52 71.23
  L 808.48 70.77
  Q 808.42 69.97 807.63 69.86
  C 802.26 69.06 797.58 58.36 795.53 53.94
  A 0.92 0.90 61.7 0 1 795.86 52.80
  C 800.03 50.09 802.58 47.88 801.68 42.12
  C 800.26 32.96 788.85 32.60 781.25 33.04
  C 777.89 33.23 774.55 33.23 771.15 33.53
  Q 770.51 33.58 770.51 34.22
  L 770.51 35.45
  A 0.65 0.65 0.0 0 0 771.24 36.09
  Q 774.46 35.69 774.57 38.87
  Q 775.01 51.48 774.57 66.33
  Q 774.47 69.56 771.28 69.49
  A 1.32 1.31 -82.8 0 0 769.96 70.52
  L 769.87 70.88
  Q 769.61 72.00 770.76 72.00
  L 786.75 72.00
  Q 787.24 72.00 787.47 71.56
  Q 787.75 71.03 787.57 70.44
  Q 787.41 69.88 786.84 69.75
  L 784.50 69.18
  A 1.78 1.78 0.0 0 1 783.17 67.66
  Q 782.53 62.21 782.82 56.14
  A 1.16 1.16 0.0 0 1 783.86 55.03"
/>
<path stroke="#838383" vector-effect="non-scaling-stroke" d="
  M 808.4065 79.1720
  A 0.43 0.43 0.0 0 0 807.9758 78.7427
  L 43.3569 80.0773
  A 0.43 0.43 0.0 0 0 42.9277 80.5080
  L 42.9335 83.8480
  A 0.43 0.43 0.0 0 0 43.3642 84.2773
  L 807.9831 82.9427
  A 0.43 0.43 0.0 0 0 808.4123 82.5120
  L 808.4065 79.1720"
/>
<path stroke="#838383" vector-effect="non-scaling-stroke" d="
  M 250.8019 70.1626
  A 17.59 11.33 86.8 0 0 261.1323 51.9675
  A 17.59 11.33 86.8 0 0 248.8381 35.0374
  A 17.59 11.33 86.8 0 0 238.5077 53.2325
  A 17.59 11.33 86.8 0 0 250.8019 70.1626"
/>
<path stroke="#838383" vector-effect="non-scaling-stroke" d="
  M 90.91 55.02
  A 0.34 0.34 0.0 0 0 91.23 55.47
  L 98.96 55.51
  A 0.34 0.34 0.0 0 0 99.29 55.07
  L 95.48 43.43
  A 0.34 0.34 0.0 0 0 94.84 43.43
  L 90.91 55.02"
/>
<path stroke="#838383" vector-effect="non-scaling-stroke" d="
  M 420.76 54.95
  A 0.40 0.40 0.0 0 0 421.14 55.48
  L 428.78 55.52
  A 0.40 0.40 0.0 0 0 429.16 54.99
  L 425.40 43.66
  A 0.40 0.40 0.0 0 0 424.64 43.66
  L 420.76 54.95"
/>
<path stroke="#838383" vector-effect="non-scaling-stroke" d="
  M 287.44 37.47
  L 287.54 51.05
  A 1.37 1.37 0.0 0 0 288.92 52.41
  L 290.53 52.40
  A 7.05 6.78 89.6 0 0 297.26 45.31
  L 297.24 43.09
  A 7.05 6.78 89.6 0 0 290.41 36.08
  L 288.80 36.09
  A 1.37 1.37 0.0 0 0 287.44 37.47"
/>
<path stroke="#838383" vector-effect="non-scaling-stroke" d="
  M 382.12 69.14
  C 393.95 70.38 397.98 59.99 397.19 50.04
  Q 396.79 44.99 393.90 41.18
  C 391.11 37.50 384.72 35.12 379.49 36.23
  A 1.84 1.83 -5.9 0 0 378.04 38.01
  Q 377.97 50.16 378.00 62.63
  C 378.01 65.49 378.73 68.79 382.12 69.14"
/>
<path stroke="#838383" vector-effect="non-scaling-stroke" d="
  M 782.76 37.72
  L 782.80 50.76
  A 1.65 1.65 0.0 0 0 784.46 52.40
  L 785.69 52.40
  A 7.19 7.06 89.8 0 0 792.72 45.18
  L 792.72 43.22
  A 7.19 7.06 89.8 0 0 785.63 36.06
  L 784.40 36.06
  A 1.65 1.65 0.0 0 0 782.76 37.72"
/>
</g>
<path fill="#ffffff" d="
  M 0.00 0.00
  L 851.00 0.00
  L 851.00 90.00
  L 0.00 90.00
  L 0.00 0.00
  Z
  M 808.3175 20.2921
  A 0.97 0.97 0.0 0 0 807.3458 19.3238
  L 43.8869 20.6562
  A 0.97 0.97 0.0 0 0 42.9186 21.6279
  L 42.9225 23.8679
  A 0.97 0.97 0.0 0 0 43.8942 24.8362
  L 807.3531 23.5038
  A 0.97 0.97 0.0 0 0 808.3214 22.5321
  L 808.3175 20.2921
  Z
  M 335.57 36.21
  C 338.12 36.39 341.63 35.53 343.49 37.55
  Q 345.09 39.29 345.40 41.85
  A 0.69 0.69 0.0 0 0 346.05 42.46
  L 347.41 42.53
  Q 347.88 42.55 347.92 42.08
  L 348.79 32.46
  Q 348.85 31.77 348.16 31.74
  Q 347.45 31.71 346.96 32.24
  Q 346.04 33.24 344.75 33.24
  Q 331.94 33.25 318.33 33.25
  C 317.09 33.25 316.06 32.84 315.19 32.00
  A 0.92 0.91 27.2 0 0 313.65 32.49
  L 312.04 41.61
  Q 311.91 42.32 312.59 42.57
  L 312.85 42.66
  Q 314.09 43.11 314.53 41.88
  C 316.70 35.74 319.60 36.16 325.28 36.27
  Q 326.18 36.29 326.19 37.19
  Q 326.34 50.29 326.19 63.23
  Q 326.16 65.78 325.73 68.10
  Q 325.58 68.90 324.80 69.11
  Q 323.47 69.47 322.02 69.58
  A 2.09 1.96 14.0 0 0 320.47 70.45
  Q 320.35 70.62 320.34 70.84
  Q 320.30 72.00 321.46 72.00
  L 339.38 72.00
  Q 340.00 72.00 340.02 71.38
  L 340.03 70.58
  Q 340.05 69.84 339.32 69.74
  L 336.84 69.41
  A 2.41 2.40 -86.5 0 1 334.75 67.03
  L 334.75 36.98
  Q 334.75 36.15 335.57 36.21
  Z
  M 710.74 36.98
  Q 710.79 52.42 710.71 66.08
  Q 710.70 67.52 709.92 68.70
  Q 709.60 69.19 709.03 69.28
  L 705.97 69.77
  Q 705.31 69.88 705.20 70.54
  L 705.10 71.18
  A 0.71 0.71 0.0 0 0 705.80 72.00
  L 723.68 72.00
  Q 724.56 72.00 724.61 71.12
  L 724.64 70.67
  Q 724.69 69.97 724.00 69.83
  L 720.71 69.15
  A 1.07 1.06 84.1 0 1 719.94 68.52
  Q 719.33 67.03 719.31 65.44
  Q 719.17 51.56 719.30 37.25
  A 1.02 1.01 89.1 0 1 720.27 36.24
  C 722.59 36.15 727.05 35.69 728.48 37.96
  Q 729.59 39.72 730.06 41.91
  Q 730.18 42.47 730.75 42.49
  L 732.26 42.55
  Q 732.84 42.57 732.80 41.99
  Q 732.54 37.61 733.37 33.69
  Q 734.02 30.63 731.46 32.43
  Q 730.33 33.21 729.00 33.22
  Q 716.58 33.26 702.70 33.26
  Q 701.06 33.26 699.98 32.18
  A 1.06 1.05 -62.4 0 0 698.20 32.74
  L 696.54 41.76
  Q 696.44 42.33 697.00 42.45
  L 698.21 42.72
  A 0.67 0.65 15.8 0 0 698.98 42.30
  C 701.13 36.26 703.89 35.87 710.07 36.26
  Q 710.74 36.31 710.74 36.98
  Z
  M 270.3430 50.8459
  A 18.26 18.26 0.0 0 0 252.1149 32.5540
  L 247.5549 32.5461
  A 18.26 18.26 0.0 0 0 229.2631 50.7742
  L 229.2570 54.2941
  A 18.26 18.26 0.0 0 0 247.4851 72.5860
  L 252.0451 72.5939
  A 18.26 18.26 0.0 0 0 270.3369 54.3658
  L 270.3430 50.8459
  Z
  M 502.52 43.53
  C 506.56 33.32 520.82 31.80 524.83 42.94
  Q 525.06 43.60 525.75 43.48
  L 526.95 43.27
  Q 527.34 43.20 527.32 42.80
  L 526.70 34.44
  Q 526.67 33.93 526.18 33.81
  Q 519.47 32.06 513.00 32.30
  C 501.42 32.73 491.93 39.84 491.29 52.03
  C 490.82 60.94 495.92 68.57 504.31 71.29
  Q 514.44 74.57 525.96 70.79
  A 1.42 1.40 1.2 0 0 526.83 69.97
  Q 528.39 66.10 528.52 61.74
  Q 528.54 61.07 527.88 60.98
  Q 527.22 60.89 526.57 61.04
  Q 526.04 61.17 525.83 61.67
  C 520.67 74.07 505.74 71.69 502.05 59.69
  Q 499.46 51.27 502.52 43.53
  Z
  M 599.88 69.44
  C 586.24 65.38 585.71 38.79 600.15 35.64
  Q 609.74 33.55 613.49 42.97
  Q 613.70 43.50 614.27 43.47
  L 615.29 43.41
  Q 616.04 43.37 615.99 42.62
  L 615.41 34.47
  Q 615.38 33.91 614.83 33.77
  Q 607.51 31.96 601.10 32.33
  C 588.83 33.04 579.35 41.25 579.97 54.08
  C 580.86 72.48 600.92 75.44 614.68 70.80
  Q 615.34 70.58 615.58 69.92
  Q 616.69 66.79 617.25 62.20
  Q 617.32 61.67 616.89 61.34
  Q 616.03 60.67 614.99 61.12
  Q 614.62 61.28 614.48 61.65
  C 612.10 67.70 606.25 71.34 599.88 69.44
  Z
  M 78.57 68.73
  Q 79.64 66.04 79.83 62.83
  A 0.64 0.64 0.0 0 0 79.25 62.15
  L 77.98 62.03
  A 0.79 0.79 0.0 0 0 77.19 62.49
  Q 76.10 65.02 74.24 67.01
  C 71.59 69.87 64.99 69.24 61.93 68.25
  Q 61.43 68.09 61.22 67.61
  Q 60.32 65.50 60.29 63.34
  Q 60.17 51.35 60.31 38.91
  Q 60.35 35.45 63.92 35.56
  A 1.06 1.05 -6.1 0 0 64.98 34.26
  L 64.86 33.73
  Q 64.67 32.94 63.87 33.00
  Q 56.12 33.56 47.99 32.99
  A 0.95 0.94 1.4 0 0 46.98 33.95
  L 46.99 34.49
  A 0.96 0.95 -85.1 0 0 47.75 35.40
  L 50.18 35.88
  A 1.46 1.46 0.0 0 1 51.32 36.97
  Q 51.71 38.60 51.73 40.23
  Q 51.83 53.10 51.67 66.91
  A 2.50 2.49 87.1 0 1 49.46 69.36
  L 47.23 69.62
  A 0.83 0.83 0.0 0 0 46.50 70.47
  L 46.51 71.02
  Q 46.54 72.00 47.52 72.00
  L 89.95 72.00
  Q 90.90 72.00 90.81 71.05
  L 90.75 70.43
  Q 90.67 69.53 89.75 69.54
  Q 88.30 69.55 87.10 68.92
  Q 86.54 68.62 86.74 68.02
  L 89.56 59.38
  Q 89.76 58.75 90.42 58.75
  L 99.82 58.75
  Q 100.51 58.75 100.71 59.40
  L 103.47 68.27
  Q 103.66 68.86 103.10 69.13
  Q 102.01 69.64 100.71 69.72
  Q 99.96 69.76 99.96 70.52
  L 99.96 70.98
  A 1.02 1.01 0.0 0 0 100.98 71.99
  L 134.45 72.00
  Q 134.84 72.00 135.09 71.71
  Q 135.59 71.13 135.35 70.48
  Q 135.17 69.97 134.65 69.83
  L 132.10 69.13
  Q 131.64 69.00 131.40 68.59
  Q 130.82 67.62 130.79 66.45
  Q 130.63 60.16 130.89 54.34
  A 0.93 0.93 0.0 0 1 132.19 53.53
  Q 133.70 54.19 134.65 55.65
  Q 138.66 61.80 142.72 67.93
  A 0.98 0.98 0.0 0 1 142.18 69.41
  L 141.33 69.66
  Q 140.77 69.83 140.76 70.41
  L 140.74 71.24
  Q 140.72 72.00 141.49 72.00
  L 188.73 72.00
  A 1.14 1.13 -79.5 0 0 189.79 71.27
  Q 191.08 67.91 191.74 63.85
  Q 192.00 62.30 190.40 62.19
  Q 189.37 62.11 188.95 63.06
  C 187.84 65.58 186.03 68.32 183.08 68.76
  C 180.17 69.19 173.23 70.04 172.69 65.65
  Q 171.89 59.24 172.51 54.05
  Q 172.58 53.43 173.20 53.46
  Q 175.99 53.60 178.82 53.47
  C 181.05 53.37 182.09 55.15 182.09 57.19
  A 1.08 1.08 0.0 0 0 183.22 58.27
  L 183.73 58.25
  Q 184.96 58.20 184.82 56.97
  Q 184.28 52.16 184.84 46.51
  A 0.92 0.91 -86.2 0 0 183.96 45.50
  L 183.20 45.48
  Q 182.29 45.46 182.18 46.36
  C 181.98 47.98 181.47 50.09 179.41 50.04
  Q 175.91 49.96 173.13 50.01
  Q 172.54 50.02 172.48 49.43
  Q 171.97 43.66 172.43 37.15
  Q 172.50 36.28 173.36 36.27
  C 178.75 36.19 184.41 34.88 186.30 41.64
  Q 186.49 42.30 187.15 42.48
  Q 187.69 42.63 188.25 42.52
  Q 189.07 42.35 189.00 41.51
  L 188.34 33.77
  Q 188.30 33.25 187.77 33.25
  L 159.66 33.19
  Q 159.54 33.19 159.53 33.31
  Q 159.38 34.29 159.56 35.31
  Q 159.60 35.53 159.82 35.52
  Q 163.74 35.35 163.75 39.12
  Q 163.78 53.52 163.69 66.92
  A 2.30 2.29 80.4 0 1 162.18 69.05
  C 157.82 70.60 154.43 69.55 151.60 65.50
  Q 146.00 57.49 140.48 48.68
  A 0.95 0.94 -42.6 0 1 140.53 47.59
  Q 144.96 41.87 149.49 38.07
  Q 152.21 35.80 156.39 35.52
  Q 157.40 35.45 157.26 34.44
  L 157.14 33.61
  A 0.77 0.76 82.9 0 0 156.31 32.96
  Q 150.11 33.59 143.33 32.98
  Q 142.91 32.94 142.66 33.28
  Q 142.16 33.97 142.28 35.01
  Q 142.35 35.55 142.88 35.46
  Q 144.04 35.24 144.82 36.23
  Q 145.21 36.70 144.85 37.20
  Q 141.74 41.50 138.18 45.29
  C 136.35 47.25 134.61 49.37 132.31 50.59
  Q 130.86 51.35 130.82 49.71
  Q 130.68 44.30 130.78 38.67
  Q 130.84 35.24 134.35 35.52
  Q 135.22 35.59 135.26 34.72
  L 135.30 33.71
  Q 135.34 32.94 134.57 33.00
  Q 126.61 33.56 118.28 33.02
  Q 117.33 32.96 117.43 33.91
  L 117.52 34.75
  Q 117.61 35.63 118.49 35.57
  Q 119.80 35.47 121.08 36.15
  Q 121.58 36.42 121.69 36.97
  Q 122.16 39.27 122.20 41.45
  Q 122.39 52.04 122.16 63.66
  Q 122.12 65.63 121.86 67.65
  A 2.12 2.12 0.0 0 1 120.27 69.43
  C 117.79 70.04 113.33 70.15 112.22 67.01
  Q 106.47 50.83 100.49 33.25
  A 1.15 1.15 0.0 0 0 98.59 32.81
  Q 96.94 34.46 94.87 35.51
  Q 94.38 35.75 94.21 36.27
  Q 88.81 52.15 82.60 67.37
  A 3.43 3.41 4.2 0 1 80.22 69.41
  L 79.34 69.62
  Q 78.09 69.91 78.57 68.73
  Z
  M 479.34 57.92
  Q 472.01 49.45 464.42 40.29
  Q 461.58 36.87 459.91 33.45
  Q 459.70 33.02 459.22 33.06
  Q 453.50 33.53 447.47 33.00
  Q 446.52 32.92 446.50 33.87
  L 446.49 34.28
  Q 446.47 35.18 447.33 35.40
  L 449.62 35.98
  A 2.77 2.76 6.9 0 1 451.72 38.65
  Q 451.79 50.45 451.72 62.02
  C 451.70 64.99 451.82 69.10 447.86 69.62
  C 442.94 70.28 442.29 67.53 440.80 63.33
  Q 435.55 48.49 430.44 33.36
  A 1.19 1.19 0.0 0 0 428.60 32.79
  L 424.70 35.70
  Q 424.25 36.04 424.06 36.58
  Q 418.49 52.51 412.66 66.98
  Q 411.61 69.58 408.77 69.60
  A 1.03 1.03 0.0 0 0 407.75 70.55
  L 407.71 71.07
  Q 407.64 72.00 408.57 72.00
  L 420.12 72.00
  Q 420.75 72.00 420.77 71.38
  L 420.81 70.55
  A 0.88 0.87 5.1 0 0 420.05 69.65
  L 418.05 69.38
  Q 416.29 69.14 416.85 67.45
  L 419.47 59.50
  Q 419.71 58.75 420.49 58.75
  L 429.67 58.75
  Q 430.35 58.75 430.55 59.40
  L 433.34 68.09
  A 1.07 1.07 0.0 0 1 432.36 69.48
  L 430.80 69.55
  A 0.89 0.88 -2.0 0 0 429.95 70.45
  L 429.97 71.49
  Q 429.98 72.00 430.49 72.00
  L 460.75 72.00
  Q 461.24 72.00 461.25 71.50
  L 461.25 70.47
  Q 461.26 69.84 460.64 69.73
  C 457.30 69.16 455.88 68.60 455.73 64.91
  Q 455.28 53.69 455.59 42.84
  Q 455.61 41.97 456.16 42.64
  L 479.99 72.27
  Q 480.43 72.81 481.11 72.63
  L 482.93 72.16
  A 1.11 1.11 0.0 0 0 483.75 71.09
  Q 483.75 56.80 483.76 42.29
  Q 483.76 39.31 484.89 36.73
  A 1.20 1.20 0.0 0 1 485.68 36.05
  L 488.05 35.39
  Q 488.97 35.13 488.92 34.18
  L 488.91 33.86
  Q 488.86 32.94 487.94 33.02
  Q 481.31 33.57 474.57 32.94
  A 0.56 0.56 0.0 0 0 473.96 33.51
  L 474.00 34.97
  Q 474.02 35.60 474.66 35.55
  Q 479.31 35.19 479.62 39.80
  Q 480.25 49.19 479.90 57.73
  Q 479.87 58.53 479.34 57.92
  Z
  M 197.60 36.61
  Q 198.23 37.90 198.24 39.31
  Q 198.28 53.43 198.22 67.20
  A 2.12 2.11 -6.2 0 1 196.57 69.25
  L 194.59 69.69
  Q 193.92 69.84 193.73 70.51
  Q 193.60 71.01 193.75 71.51
  Q 193.90 72.00 194.42 72.00
  L 210.83 72.00
  Q 211.69 72.00 211.93 71.19
  Q 212.08 70.70 211.88 70.21
  Q 211.75 69.91 211.43 69.85
  L 208.85 69.34
  A 2.27 2.27 0.0 0 1 207.00 67.11
  L 207.00 37.28
  A 1.31 1.31 0.0 0 1 208.27 35.97
  C 215.04 35.78 217.10 41.99 216.20 47.60
  Q 215.47 52.16 211.23 53.72
  Q 210.71 53.91 210.55 54.45
  Q 210.45 54.79 210.60 55.10
  Q 210.86 55.68 211.50 55.72
  C 217.02 56.09 223.97 53.75 225.19 47.90
  C 227.74 35.71 217.01 32.91 207.75 33.01
  Q 200.93 33.08 194.41 33.52
  Q 193.93 33.55 193.97 34.03
  L 194.07 35.59
  Q 194.10 35.96 194.46 35.98
  L 196.92 36.16
  A 0.82 0.82 0.0 0 1 197.60 36.61
  Z
  M 288.22 54.98
  C 289.99 54.89 291.69 55.22 292.46 57.07
  Q 294.43 61.79 296.95 66.04
  C 300.54 72.10 305.86 72.73 312.27 72.09
  Q 312.83 72.03 313.09 71.52
  Q 313.34 71.01 313.10 70.53
  Q 312.88 70.11 312.42 69.98
  Q 309.15 69.07 307.32 66.60
  Q 303.35 61.25 300.07 53.65
  A 0.74 0.74 0.0 0 1 300.43 52.68
  Q 305.00 50.52 306.12 46.59
  C 308.21 39.25 302.45 34.03 295.44 33.37
  Q 286.88 32.55 275.90 33.58
  Q 275.36 33.63 275.26 34.17
  L 275.08 35.18
  Q 274.98 35.75 275.55 35.86
  L 277.29 36.21
  A 2.44 2.44 0.0 0 1 279.25 38.60
  L 279.24 66.89
  A 2.37 2.37 0.0 0 1 277.54 69.16
  L 275.31 69.80
  Q 274.81 69.95 274.78 70.46
  L 274.72 71.47
  Q 274.69 71.99 275.22 71.99
  L 291.20 72.00
  Q 291.90 72.00 292.03 71.30
  L 292.11 70.87
  Q 292.28 69.96 291.37 69.75
  L 289.06 69.21
  A 1.98 1.96 -83.7 0 1 287.54 67.30
  L 287.50 55.74
  A 0.76 0.75 88.8 0 1 288.22 54.98
  Z
  M 368.52 36.60
  Q 369.45 37.94 369.46 39.56
  Q 369.55 51.86 369.47 65.99
  Q 369.45 69.84 365.70 69.52
  Q 364.84 69.45 364.79 70.32
  L 364.74 71.23
  Q 364.70 72.03 365.50 72.02
  Q 372.51 71.91 379.76 72.21
  C 391.90 72.71 404.17 69.51 406.66 55.81
  C 408.40 46.23 403.38 37.27 393.94 34.58
  Q 388.57 33.05 383.46 33.01
  Q 374.69 32.95 366.13 33.56
  Q 365.70 33.59 365.67 34.02
  L 365.57 35.41
  A 0.61 0.61 0.0 0 0 366.16 36.07
  L 367.66 36.13
  Q 368.21 36.15 368.52 36.60
  Z
  M 544.25 49.25
  L 544.25 37.03
  Q 544.25 36.30 544.98 36.29
  Q 548.21 36.26 551.72 36.22
  Q 556.90 36.17 558.26 41.87
  Q 558.40 42.46 559.01 42.47
  L 560.52 42.50
  Q 561.04 42.51 561.00 41.98
  L 560.27 33.67
  Q 560.22 33.07 559.62 33.09
  Q 546.41 33.52 532.08 33.09
  Q 531.32 33.06 531.25 33.82
  L 531.18 34.60
  A 0.83 0.82 -87.5 0 0 532.00 35.50
  Q 535.69 35.52 535.72 39.07
  Q 535.82 51.80 535.70 66.78
  A 2.40 2.39 84.7 0 1 533.78 69.11
  L 530.42 69.78
  A 0.56 0.56 0.0 0 0 529.97 70.32
  L 529.94 71.47
  Q 529.93 72.00 530.47 72.00
  L 560.99 72.00
  A 0.77 0.76 -80.3 0 0 561.71 71.48
  Q 562.99 67.64 563.75 63.59
  Q 564.01 62.26 562.55 62.19
  A 1.78 1.78 0.0 0 0 560.85 63.21
  C 558.01 69.23 553.96 69.55 547.86 68.81
  Q 544.90 68.46 544.59 65.67
  Q 544.00 60.44 544.31 54.19
  Q 544.34 53.53 545.00 53.52
  Q 548.30 53.49 551.00 53.49
  Q 553.82 53.49 554.11 57.43
  A 0.92 0.91 82.7 0 0 555.19 58.27
  L 555.90 58.13
  Q 556.85 57.95 556.74 56.99
  Q 556.13 51.45 556.81 46.15
  A 0.57 0.57 0.0 0 0 556.23 45.51
  L 554.71 45.54
  A 0.72 0.72 0.0 0 0 554.01 46.32
  Q 554.14 48.12 553.09 49.39
  Q 552.58 50.00 551.78 50.00
  L 545.00 50.00
  Q 544.25 50.00 544.25 49.25
  Z
  M 633.57 36.24
  C 635.77 36.22 637.98 36.31 640.18 36.26
  Q 645.58 36.12 646.80 41.54
  Q 647.02 42.54 648.05 42.53
  L 648.56 42.53
  Q 649.65 42.52 649.57 41.43
  L 648.99 33.51
  Q 648.95 33.04 648.48 33.06
  Q 634.10 33.54 620.39 33.02
  Q 619.96 33.01 619.97 33.44
  L 620.00 35.01
  Q 620.01 35.46 620.46 35.49
  Q 622.03 35.61 623.51 36.27
  Q 623.97 36.48 624.06 36.99
  Q 624.36 38.87 624.40 40.68
  Q 624.66 51.17 624.42 64.32
  Q 624.39 66.03 624.03 67.92
  Q 623.92 68.48 623.42 68.75
  Q 621.83 69.57 619.74 69.60
  Q 618.82 69.61 618.76 70.54
  L 618.73 71.09
  Q 618.67 72.00 619.59 72.00
  L 649.49 72.00
  Q 650.06 72.00 650.27 71.48
  Q 651.89 67.45 652.42 63.12
  Q 652.49 62.57 651.97 62.38
  Q 651.23 62.11 650.40 62.32
  Q 649.82 62.46 649.59 63.01
  C 647.01 69.21 643.27 69.01 637.44 68.90
  Q 633.34 68.83 633.16 65.22
  Q 632.86 59.33 633.06 54.06
  Q 633.09 53.48 633.67 53.49
  Q 636.46 53.55 639.55 53.49
  C 641.59 53.45 642.68 55.14 642.68 57.02
  A 1.26 1.26 0.0 0 0 644.00 58.27
  L 644.53 58.25
  Q 645.27 58.21 645.26 57.48
  L 645.25 46.21
  Q 645.25 45.70 644.78 45.52
  Q 644.01 45.22 643.37 45.57
  Q 642.88 45.83 642.76 46.38
  L 642.25 48.55
  A 1.81 1.81 0.0 0 1 640.51 49.95
  L 633.51 50.02
  Q 633.00 50.03 633.00 49.51
  L 633.01 36.81
  A 0.57 0.57 0.0 0 1 633.57 36.24
  Z
  M 663.30 42.96
  Q 673.92 55.99 684.12 68.77
  C 685.08 69.97 685.82 71.32 686.82 72.45
  Q 687.20 72.88 687.76 72.75
  L 689.95 72.20
  Q 690.53 72.06 690.53 71.46
  Q 690.47 58.91 690.51 46.21
  Q 690.52 42.55 691.07 38.67
  Q 691.48 35.83 694.28 35.62
  A 1.52 1.51 3.3 0 0 695.65 34.40
  L 695.73 33.99
  A 0.83 0.82 -87.0 0 0 694.86 33.02
  Q 688.25 33.55 681.57 32.96
  A 0.55 0.55 0.0 0 0 680.97 33.52
  L 681.00 34.93
  Q 681.01 35.41 681.49 35.43
  Q 683.24 35.52 685.01 36.25
  A 1.29 1.28 1.6 0 1 685.74 37.02
  Q 686.77 39.90 686.76 43.22
  Q 686.74 50.60 686.73 57.45
  Q 686.73 58.45 686.07 57.70
  Q 677.36 47.69 669.40 37.78
  C 668.40 36.54 667.57 34.98 666.91 33.52
  Q 666.71 33.07 666.22 33.10
  Q 660.30 33.49 654.25 32.98
  Q 653.44 32.91 653.46 33.72
  L 653.48 34.83
  A 0.72 0.72 0.0 0 0 654.22 35.54
  Q 658.57 35.42 658.68 39.70
  Q 659.00 52.48 658.44 65.46
  Q 658.26 69.41 654.44 69.61
  Q 653.72 69.65 653.72 70.36
  L 653.73 71.24
  Q 653.73 72.00 654.49 72.00
  L 667.45 72.00
  Q 667.86 72.00 668.08 71.65
  Q 668.41 71.10 668.26 70.47
  Q 668.14 69.93 667.60 69.80
  L 664.96 69.17
  A 2.41 2.37 -1.0 0 1 663.22 67.51
  Q 662.65 65.56 662.59 63.53
  Q 662.35 54.95 662.58 43.21
  Q 662.60 42.11 663.30 42.96
  Z
  M 749.45 53.45
  Q 751.94 53.63 754.94 53.44
  C 757.36 53.30 758.49 55.42 758.49 57.53
  Q 758.49 58.26 759.22 58.25
  L 760.26 58.25
  A 0.76 0.75 89.6 0 0 761.00 57.49
  L 761.00 45.98
  Q 761.00 45.46 760.48 45.48
  L 758.96 45.53
  A 0.50 0.50 0.0 0 0 758.48 46.03
  Q 758.48 48.17 757.12 49.60
  A 1.29 1.28 -68.1 0 1 756.19 50.00
  L 749.37 49.99
  Q 748.75 49.99 748.75 49.37
  L 748.75 36.96
  Q 748.75 36.30 749.41 36.28
  Q 753.28 36.12 757.17 36.37
  C 760.35 36.57 761.80 38.95 762.60 41.68
  A 1.12 1.12 0.0 0 0 763.32 42.44
  Q 764.02 42.68 764.76 42.41
  A 0.88 0.87 77.4 0 0 765.32 41.51
  L 764.63 33.69
  Q 764.57 33.06 763.94 33.08
  Q 750.01 33.50 735.97 33.07
  Q 735.85 33.07 735.83 33.18
  Q 735.58 34.26 735.94 35.36
  Q 736.00 35.56 736.21 35.55
  Q 739.98 35.44 739.99 38.82
  Q 740.05 51.98 739.95 67.05
  A 2.16 2.16 0.0 0 1 738.15 69.17
  L 734.98 69.71
  Q 734.23 69.84 734.34 70.59
  L 734.45 71.28
  Q 734.56 72.00 735.28 72.00
  L 765.04 72.00
  A 1.24 1.23 -80.3 0 0 766.20 71.17
  Q 767.64 67.03 768.06 63.30
  A 0.88 0.86 -74.7 0 0 767.56 62.41
  Q 766.74 62.02 765.89 62.43
  Q 765.44 62.65 765.24 63.12
  C 762.62 69.28 758.57 69.31 752.68 68.88
  Q 749.04 68.61 748.87 65.01
  Q 748.62 59.90 748.78 54.06
  Q 748.80 53.41 749.45 53.45
  Z
  M 783.86 55.03
  C 785.72 54.84 787.21 55.47 787.95 57.34
  C 788.90 59.73 790.21 61.98 791.32 64.30
  Q 796.10 74.23 808.00 71.91
  Q 808.56 71.80 808.52 71.23
  L 808.48 70.77
  Q 808.42 69.97 807.63 69.86
  C 802.26 69.06 797.58 58.36 795.53 53.94
  A 0.92 0.90 61.7 0 1 795.86 52.80
  C 800.03 50.09 802.58 47.88 801.68 42.12
  C 800.26 32.96 788.85 32.60 781.25 33.04
  C 777.89 33.23 774.55 33.23 771.15 33.53
  Q 770.51 33.58 770.51 34.22
  L 770.51 35.45
  A 0.65 0.65 0.0 0 0 771.24 36.09
  Q 774.46 35.69 774.57 38.87
  Q 775.01 51.48 774.57 66.33
  Q 774.47 69.56 771.28 69.49
  A 1.32 1.31 -82.8 0 0 769.96 70.52
  L 769.87 70.88
  Q 769.61 72.00 770.76 72.00
  L 786.75 72.00
  Q 787.24 72.00 787.47 71.56
  Q 787.75 71.03 787.57 70.44
  Q 787.41 69.88 786.84 69.75
  L 784.50 69.18
  A 1.78 1.78 0.0 0 1 783.17 67.66
  Q 782.53 62.21 782.82 56.14
  A 1.16 1.16 0.0 0 1 783.86 55.03
  Z
  M 808.4065 79.1720
  A 0.43 0.43 0.0 0 0 807.9758 78.7427
  L 43.3569 80.0773
  A 0.43 0.43 0.0 0 0 42.9277 80.5080
  L 42.9335 83.8480
  A 0.43 0.43 0.0 0 0 43.3642 84.2773
  L 807.9831 82.9427
  A 0.43 0.43 0.0 0 0 808.4123 82.5120
  L 808.4065 79.1720
  Z"
/>
<rect fill="#060606" x="-382.70" y="-2.09" transform="translate(425.62,22.08) rotate(-0.1)" width="765.40" height="4.18" rx="0.97"/>
<path fill="#060606" d="
  M 334.75 36.98
  L 334.75 67.03
  A 2.41 2.40 -86.5 0 0 336.84 69.41
  L 339.32 69.74
  Q 340.05 69.84 340.03 70.58
  L 340.02 71.38
  Q 340.00 72.00 339.38 72.00
  L 321.46 72.00
  Q 320.30 72.00 320.34 70.84
  Q 320.35 70.62 320.47 70.45
  A 2.09 1.96 14.0 0 1 322.02 69.58
  Q 323.47 69.47 324.80 69.11
  Q 325.58 68.90 325.73 68.10
  Q 326.16 65.78 326.19 63.23
  Q 326.34 50.29 326.19 37.19
  Q 326.18 36.29 325.28 36.27
  C 319.60 36.16 316.70 35.74 314.53 41.88
  Q 314.09 43.11 312.85 42.66
  L 312.59 42.57
  Q 311.91 42.32 312.04 41.61
  L 313.65 32.49
  A 0.92 0.91 27.2 0 1 315.19 32.00
  C 316.06 32.84 317.09 33.25 318.33 33.25
  Q 331.94 33.25 344.75 33.24
  Q 346.04 33.24 346.96 32.24
  Q 347.45 31.71 348.16 31.74
  Q 348.85 31.77 348.79 32.46
  L 347.92 42.08
  Q 347.88 42.55 347.41 42.53
  L 346.05 42.46
  A 0.69 0.69 0.0 0 1 345.40 41.85
  Q 345.09 39.29 343.49 37.55
  C 341.63 35.53 338.12 36.39 335.57 36.21
  Q 334.75 36.15 334.75 36.98
  Z"
/>
<path fill="#060606" d="
  M 710.07 36.26
  C 703.89 35.87 701.13 36.26 698.98 42.30
  A 0.67 0.65 15.8 0 1 698.21 42.72
  L 697.00 42.45
  Q 696.44 42.33 696.54 41.76
  L 698.20 32.74
  A 1.06 1.05 -62.4 0 1 699.98 32.18
  Q 701.06 33.26 702.70 33.26
  Q 716.58 33.26 729.00 33.22
  Q 730.33 33.21 731.46 32.43
  Q 734.02 30.63 733.37 33.69
  Q 732.54 37.61 732.80 41.99
  Q 732.84 42.57 732.26 42.55
  L 730.75 42.49
  Q 730.18 42.47 730.06 41.91
  Q 729.59 39.72 728.48 37.96
  C 727.05 35.69 722.59 36.15 720.27 36.24
  A 1.02 1.01 89.1 0 0 719.30 37.25
  Q 719.17 51.56 719.31 65.44
  Q 719.33 67.03 719.94 68.52
  A 1.07 1.06 84.1 0 0 720.71 69.15
  L 724.00 69.83
  Q 724.69 69.97 724.64 70.67
  L 724.61 71.12
  Q 724.56 72.00 723.68 72.00
  L 705.80 72.00
  A 0.71 0.71 0.0 0 1 705.10 71.18
  L 705.20 70.54
  Q 705.31 69.88 705.97 69.77
  L 709.03 69.28
  Q 709.60 69.19 709.92 68.70
  Q 710.70 67.52 710.71 66.08
  Q 710.79 52.42 710.74 36.98
  Q 710.74 36.31 710.07 36.26
  Z"
/>
<path fill="#060606" d="
  M 270.3369 54.3658
  A 18.26 18.26 0.0 0 1 252.0451 72.5939
  L 247.4851 72.5860
  A 18.26 18.26 0.0 0 1 229.2570 54.2941
  L 229.2631 50.7742
  A 18.26 18.26 0.0 0 1 247.5549 32.5461
  L 252.1149 32.5540
  A 18.26 18.26 0.0 0 1 270.3430 50.8459
  L 270.3369 54.3658
  Z
  M 250.8019 70.1626
  A 17.59 11.33 86.8 0 0 261.1323 51.9675
  A 17.59 11.33 86.8 0 0 248.8381 35.0374
  A 17.59 11.33 86.8 0 0 238.5077 53.2325
  A 17.59 11.33 86.8 0 0 250.8019 70.1626
  Z"
/>
<path fill="#060606" d="
  M 502.52 43.53
  Q 499.46 51.27 502.05 59.69
  C 505.74 71.69 520.67 74.07 525.83 61.67
  Q 526.04 61.17 526.57 61.04
  Q 527.22 60.89 527.88 60.98
  Q 528.54 61.07 528.52 61.74
  Q 528.39 66.10 526.83 69.97
  A 1.42 1.40 1.2 0 1 525.96 70.79
  Q 514.44 74.57 504.31 71.29
  C 495.92 68.57 490.82 60.94 491.29 52.03
  C 491.93 39.84 501.42 32.73 513.00 32.30
  Q 519.47 32.06 526.18 33.81
  Q 526.67 33.93 526.70 34.44
  L 527.32 42.80
  Q 527.34 43.20 526.95 43.27
  L 525.75 43.48
  Q 525.06 43.60 524.83 42.94
  C 520.82 31.80 506.56 33.32 502.52 43.53
  Z"
/>
<path fill="#060606" d="
  M 600.15 35.64
  C 585.71 38.79 586.24 65.38 599.88 69.44
  C 606.25 71.34 612.10 67.70 614.48 61.65
  Q 614.62 61.28 614.99 61.12
  Q 616.03 60.67 616.89 61.34
  Q 617.32 61.67 617.25 62.20
  Q 616.69 66.79 615.58 69.92
  Q 615.34 70.58 614.68 70.80
  C 600.92 75.44 580.86 72.48 579.97 54.08
  C 579.35 41.25 588.83 33.04 601.10 32.33
  Q 607.51 31.96 614.83 33.77
  Q 615.38 33.91 615.41 34.47
  L 615.99 42.62
  Q 616.04 43.37 615.29 43.41
  L 614.27 43.47
  Q 613.70 43.50 613.49 42.97
  Q 609.74 33.55 600.15 35.64
  Z"
/>
<path fill="#060606" d="
  M 78.57 68.73
  Q 78.09 69.91 79.34 69.62
  L 80.22 69.41
  A 3.43 3.41 4.2 0 0 82.60 67.37
  Q 88.81 52.15 94.21 36.27
  Q 94.38 35.75 94.87 35.51
  Q 96.94 34.46 98.59 32.81
  A 1.15 1.15 0.0 0 1 100.49 33.25
  Q 106.47 50.83 112.22 67.01
  C 113.33 70.15 117.79 70.04 120.27 69.43
  A 2.12 2.12 0.0 0 0 121.86 67.65
  Q 122.12 65.63 122.16 63.66
  Q 122.39 52.04 122.20 41.45
  Q 122.16 39.27 121.69 36.97
  Q 121.58 36.42 121.08 36.15
  Q 119.80 35.47 118.49 35.57
  Q 117.61 35.63 117.52 34.75
  L 117.43 33.91
  Q 117.33 32.96 118.28 33.02
  Q 126.61 33.56 134.57 33.00
  Q 135.34 32.94 135.30 33.71
  L 135.26 34.72
  Q 135.22 35.59 134.35 35.52
  Q 130.84 35.24 130.78 38.67
  Q 130.68 44.30 130.82 49.71
  Q 130.86 51.35 132.31 50.59
  C 134.61 49.37 136.35 47.25 138.18 45.29
  Q 141.74 41.50 144.85 37.20
  Q 145.21 36.70 144.82 36.23
  Q 144.04 35.24 142.88 35.46
  Q 142.35 35.55 142.28 35.01
  Q 142.16 33.97 142.66 33.28
  Q 142.91 32.94 143.33 32.98
  Q 150.11 33.59 156.31 32.96
  A 0.77 0.76 82.9 0 1 157.14 33.61
  L 157.26 34.44
  Q 157.40 35.45 156.39 35.52
  Q 152.21 35.80 149.49 38.07
  Q 144.96 41.87 140.53 47.59
  A 0.95 0.94 -42.6 0 0 140.48 48.68
  Q 146.00 57.49 151.60 65.50
  C 154.43 69.55 157.82 70.60 162.18 69.05
  A 2.30 2.29 80.4 0 0 163.69 66.92
  Q 163.78 53.52 163.75 39.12
  Q 163.74 35.35 159.82 35.52
  Q 159.60 35.53 159.56 35.31
  Q 159.38 34.29 159.53 33.31
  Q 159.54 33.19 159.66 33.19
  L 187.77 33.25
  Q 188.30 33.25 188.34 33.77
  L 189.00 41.51
  Q 189.07 42.35 188.25 42.52
  Q 187.69 42.63 187.15 42.48
  Q 186.49 42.30 186.30 41.64
  C 184.41 34.88 178.75 36.19 173.36 36.27
  Q 172.50 36.28 172.43 37.15
  Q 171.97 43.66 172.48 49.43
  Q 172.54 50.02 173.13 50.01
  Q 175.91 49.96 179.41 50.04
  C 181.47 50.09 181.98 47.98 182.18 46.36
  Q 182.29 45.46 183.20 45.48
  L 183.96 45.50
  A 0.92 0.91 -86.2 0 1 184.84 46.51
  Q 184.28 52.16 184.82 56.97
  Q 184.96 58.20 183.73 58.25
  L 183.22 58.27
  A 1.08 1.08 0.0 0 1 182.09 57.19
  C 182.09 55.15 181.05 53.37 178.82 53.47
  Q 175.99 53.60 173.20 53.46
  Q 172.58 53.43 172.51 54.05
  Q 171.89 59.24 172.69 65.65
  C 173.23 70.04 180.17 69.19 183.08 68.76
  C 186.03 68.32 187.84 65.58 188.95 63.06
  Q 189.37 62.11 190.40 62.19
  Q 192.00 62.30 191.74 63.85
  Q 191.08 67.91 189.79 71.27
  A 1.14 1.13 -79.5 0 1 188.73 72.00
  L 141.49 72.00
  Q 140.72 72.00 140.74 71.24
  L 140.76 70.41
  Q 140.77 69.83 141.33 69.66
  L 142.18 69.41
  A 0.98 0.98 0.0 0 0 142.72 67.93
  Q 138.66 61.80 134.65 55.65
  Q 133.70 54.19 132.19 53.53
  A 0.93 0.93 0.0 0 0 130.89 54.34
  Q 130.63 60.16 130.79 66.45
  Q 130.82 67.62 131.40 68.59
  Q 131.64 69.00 132.10 69.13
  L 134.65 69.83
  Q 135.17 69.97 135.35 70.48
  Q 135.59 71.13 135.09 71.71
  Q 134.84 72.00 134.45 72.00
  L 100.98 71.99
  A 1.02 1.01 0.0 0 1 99.96 70.98
  L 99.96 70.52
  Q 99.96 69.76 100.71 69.72
  Q 102.01 69.64 103.10 69.13
  Q 103.66 68.86 103.47 68.27
  L 100.71 59.40
  Q 100.51 58.75 99.82 58.75
  L 90.42 58.75
  Q 89.76 58.75 89.56 59.38
  L 86.74 68.02
  Q 86.54 68.62 87.10 68.92
  Q 88.30 69.55 89.75 69.54
  Q 90.67 69.53 90.75 70.43
  L 90.81 71.05
  Q 90.90 72.00 89.95 72.00
  L 47.52 72.00
  Q 46.54 72.00 46.51 71.02
  L 46.50 70.47
  A 0.83 0.83 0.0 0 1 47.23 69.62
  L 49.46 69.36
  A 2.50 2.49 87.1 0 0 51.67 66.91
  Q 51.83 53.10 51.73 40.23
  Q 51.71 38.60 51.32 36.97
  A 1.46 1.46 0.0 0 0 50.18 35.88
  L 47.75 35.40
  A 0.96 0.95 -85.1 0 1 46.99 34.49
  L 46.98 33.95
  A 0.95 0.94 1.4 0 1 47.99 32.99
  Q 56.12 33.56 63.87 33.00
  Q 64.67 32.94 64.86 33.73
  L 64.98 34.26
  A 1.06 1.05 -6.1 0 1 63.92 35.56
  Q 60.35 35.45 60.31 38.91
  Q 60.17 51.35 60.29 63.34
  Q 60.32 65.50 61.22 67.61
  Q 61.43 68.09 61.93 68.25
  C 64.99 69.24 71.59 69.87 74.24 67.01
  Q 76.10 65.02 77.19 62.49
  A 0.79 0.79 0.0 0 1 77.98 62.03
  L 79.25 62.15
  A 0.64 0.64 0.0 0 1 79.83 62.83
  Q 79.64 66.04 78.57 68.73
  Z
  M 90.91 55.02
  A 0.34 0.34 0.0 0 0 91.23 55.47
  L 98.96 55.51
  A 0.34 0.34 0.0 0 0 99.29 55.07
  L 95.48 43.43
  A 0.34 0.34 0.0 0 0 94.84 43.43
  L 90.91 55.02
  Z"
/>
<path fill="#060606" d="
  M 479.34 57.92
  Q 479.87 58.53 479.90 57.73
  Q 480.25 49.19 479.62 39.80
  Q 479.31 35.19 474.66 35.55
  Q 474.02 35.60 474.00 34.97
  L 473.96 33.51
  A 0.56 0.56 0.0 0 1 474.57 32.94
  Q 481.31 33.57 487.94 33.02
  Q 488.86 32.94 488.91 33.86
  L 488.92 34.18
  Q 488.97 35.13 488.05 35.39
  L 485.68 36.05
  A 1.20 1.20 0.0 0 0 484.89 36.73
  Q 483.76 39.31 483.76 42.29
  Q 483.75 56.80 483.75 71.09
  A 1.11 1.11 0.0 0 1 482.93 72.16
  L 481.11 72.63
  Q 480.43 72.81 479.99 72.27
  L 456.16 42.64
  Q 455.61 41.97 455.59 42.84
  Q 455.28 53.69 455.73 64.91
  C 455.88 68.60 457.30 69.16 460.64 69.73
  Q 461.26 69.84 461.25 70.47
  L 461.25 71.50
  Q 461.24 72.00 460.75 72.00
  L 430.49 72.00
  Q 429.98 72.00 429.97 71.49
  L 429.95 70.45
  A 0.89 0.88 -2.0 0 1 430.80 69.55
  L 432.36 69.48
  A 1.07 1.07 0.0 0 0 433.34 68.09
  L 430.55 59.40
  Q 430.35 58.75 429.67 58.75
  L 420.49 58.75
  Q 419.71 58.75 419.47 59.50
  L 416.85 67.45
  Q 416.29 69.14 418.05 69.38
  L 420.05 69.65
  A 0.88 0.87 5.1 0 1 420.81 70.55
  L 420.77 71.38
  Q 420.75 72.00 420.12 72.00
  L 408.57 72.00
  Q 407.64 72.00 407.71 71.07
  L 407.75 70.55
  A 1.03 1.03 0.0 0 1 408.77 69.60
  Q 411.61 69.58 412.66 66.98
  Q 418.49 52.51 424.06 36.58
  Q 424.25 36.04 424.70 35.70
  L 428.60 32.79
  A 1.19 1.19 0.0 0 1 430.44 33.36
  Q 435.55 48.49 440.80 63.33
  C 442.29 67.53 442.94 70.28 447.86 69.62
  C 451.82 69.10 451.70 64.99 451.72 62.02
  Q 451.79 50.45 451.72 38.65
  A 2.77 2.76 6.9 0 0 449.62 35.98
  L 447.33 35.40
  Q 446.47 35.18 446.49 34.28
  L 446.50 33.87
  Q 446.52 32.92 447.47 33.00
  Q 453.50 33.53 459.22 33.06
  Q 459.70 33.02 459.91 33.45
  Q 461.58 36.87 464.42 40.29
  Q 472.01 49.45 479.34 57.92
  Z
  M 420.76 54.95
  A 0.40 0.40 0.0 0 0 421.14 55.48
  L 428.78 55.52
  A 0.40 0.40 0.0 0 0 429.16 54.99
  L 425.40 43.66
  A 0.40 0.40 0.0 0 0 424.64 43.66
  L 420.76 54.95
  Z"
/>
<path fill="#060606" d="
  M 196.92 36.16
  L 194.46 35.98
  Q 194.10 35.96 194.07 35.59
  L 193.97 34.03
  Q 193.93 33.55 194.41 33.52
  Q 200.93 33.08 207.75 33.01
  C 217.01 32.91 227.74 35.71 225.19 47.90
  C 223.97 53.75 217.02 56.09 211.50 55.72
  Q 210.86 55.68 210.60 55.10
  Q 210.45 54.79 210.55 54.45
  Q 210.71 53.91 211.23 53.72
  Q 215.47 52.16 216.20 47.60
  C 217.10 41.99 215.04 35.78 208.27 35.97
  A 1.31 1.31 0.0 0 0 207.00 37.28
  L 207.00 67.11
  A 2.27 2.27 0.0 0 0 208.85 69.34
  L 211.43 69.85
  Q 211.75 69.91 211.88 70.21
  Q 212.08 70.70 211.93 71.19
  Q 211.69 72.00 210.83 72.00
  L 194.42 72.00
  Q 193.90 72.00 193.75 71.51
  Q 193.60 71.01 193.73 70.51
  Q 193.92 69.84 194.59 69.69
  L 196.57 69.25
  A 2.12 2.11 -6.2 0 0 198.22 67.20
  Q 198.28 53.43 198.24 39.31
  Q 198.23 37.90 197.60 36.61
  A 0.82 0.82 0.0 0 0 196.92 36.16
  Z"
/>
<path fill="#060606" d="
  M 287.50 55.74
  L 287.54 67.30
  A 1.98 1.96 -83.7 0 0 289.06 69.21
  L 291.37 69.75
  Q 292.28 69.96 292.11 70.87
  L 292.03 71.30
  Q 291.90 72.00 291.20 72.00
  L 275.22 71.99
  Q 274.69 71.99 274.72 71.47
  L 274.78 70.46
  Q 274.81 69.95 275.31 69.80
  L 277.54 69.16
  A 2.37 2.37 0.0 0 0 279.24 66.89
  L 279.25 38.60
  A 2.44 2.44 0.0 0 0 277.29 36.21
  L 275.55 35.86
  Q 274.98 35.75 275.08 35.18
  L 275.26 34.17
  Q 275.36 33.63 275.90 33.58
  Q 286.88 32.55 295.44 33.37
  C 302.45 34.03 308.21 39.25 306.12 46.59
  Q 305.00 50.52 300.43 52.68
  A 0.74 0.74 0.0 0 0 300.07 53.65
  Q 303.35 61.25 307.32 66.60
  Q 309.15 69.07 312.42 69.98
  Q 312.88 70.11 313.10 70.53
  Q 313.34 71.01 313.09 71.52
  Q 312.83 72.03 312.27 72.09
  C 305.86 72.73 300.54 72.10 296.95 66.04
  Q 294.43 61.79 292.46 57.07
  C 291.69 55.22 289.99 54.89 288.22 54.98
  A 0.76 0.75 88.8 0 0 287.50 55.74
  Z
  M 287.44 37.47
  L 287.54 51.05
  A 1.37 1.37 0.0 0 0 288.92 52.41
  L 290.53 52.40
  A 7.05 6.78 89.6 0 0 297.26 45.31
  L 297.24 43.09
  A 7.05 6.78 89.6 0 0 290.41 36.08
  L 288.80 36.09
  A 1.37 1.37 0.0 0 0 287.44 37.47
  Z"
/>
<path fill="#060606" d="
  M 367.66 36.13
  L 366.16 36.07
  A 0.61 0.61 0.0 0 1 365.57 35.41
  L 365.67 34.02
  Q 365.70 33.59 366.13 33.56
  Q 374.69 32.95 383.46 33.01
  Q 388.57 33.05 393.94 34.58
  C 403.38 37.27 408.40 46.23 406.66 55.81
  C 404.17 69.51 391.90 72.71 379.76 72.21
  Q 372.51 71.91 365.50 72.02
  Q 364.70 72.03 364.74 71.23
  L 364.79 70.32
  Q 364.84 69.45 365.70 69.52
  Q 369.45 69.84 369.47 65.99
  Q 369.55 51.86 369.46 39.56
  Q 369.45 37.94 368.52 36.60
  Q 368.21 36.15 367.66 36.13
  Z
  M 382.12 69.14
  C 393.95 70.38 397.98 59.99 397.19 50.04
  Q 396.79 44.99 393.90 41.18
  C 391.11 37.50 384.72 35.12 379.49 36.23
  A 1.84 1.83 -5.9 0 0 378.04 38.01
  Q 377.97 50.16 378.00 62.63
  C 378.01 65.49 378.73 68.79 382.12 69.14
  Z"
/>
<path fill="#060606" d="
  M 545.00 50.00
  L 551.78 50.00
  Q 552.58 50.00 553.09 49.39
  Q 554.14 48.12 554.01 46.32
  A 0.72 0.72 0.0 0 1 554.71 45.54
  L 556.23 45.51
  A 0.57 0.57 0.0 0 1 556.81 46.15
  Q 556.13 51.45 556.74 56.99
  Q 556.85 57.95 555.90 58.13
  L 555.19 58.27
  A 0.92 0.91 82.7 0 1 554.11 57.43
  Q 553.82 53.49 551.00 53.49
  Q 548.30 53.49 545.00 53.52
  Q 544.34 53.53 544.31 54.19
  Q 544.00 60.44 544.59 65.67
  Q 544.90 68.46 547.86 68.81
  C 553.96 69.55 558.01 69.23 560.85 63.21
  A 1.78 1.78 0.0 0 1 562.55 62.19
  Q 564.01 62.26 563.75 63.59
  Q 562.99 67.64 561.71 71.48
  A 0.77 0.76 -80.3 0 1 560.99 72.00
  L 530.47 72.00
  Q 529.93 72.00 529.94 71.47
  L 529.97 70.32
  A 0.56 0.56 0.0 0 1 530.42 69.78
  L 533.78 69.11
  A 2.40 2.39 84.7 0 0 535.70 66.78
  Q 535.82 51.80 535.72 39.07
  Q 535.69 35.52 532.00 35.50
  A 0.83 0.82 -87.5 0 1 531.18 34.60
  L 531.25 33.82
  Q 531.32 33.06 532.08 33.09
  Q 546.41 33.52 559.62 33.09
  Q 560.22 33.07 560.27 33.67
  L 561.00 41.98
  Q 561.04 42.51 560.52 42.50
  L 559.01 42.47
  Q 558.40 42.46 558.26 41.87
  Q 556.90 36.17 551.72 36.22
  Q 548.21 36.26 544.98 36.29
  Q 544.25 36.30 544.25 37.03
  L 544.25 49.25
  Q 544.25 50.00 545.00 50.00
  Z"
/>
<path fill="#060606" d="
  M 633.01 36.81
  L 633.00 49.51
  Q 633.00 50.03 633.51 50.02
  L 640.51 49.95
  A 1.81 1.81 0.0 0 0 642.25 48.55
  L 642.76 46.38
  Q 642.88 45.83 643.37 45.57
  Q 644.01 45.22 644.78 45.52
  Q 645.25 45.70 645.25 46.21
  L 645.26 57.48
  Q 645.27 58.21 644.53 58.25
  L 644.00 58.27
  A 1.26 1.26 0.0 0 1 642.68 57.02
  C 642.68 55.14 641.59 53.45 639.55 53.49
  Q 636.46 53.55 633.67 53.49
  Q 633.09 53.48 633.06 54.06
  Q 632.86 59.33 633.16 65.22
  Q 633.34 68.83 637.44 68.90
  C 643.27 69.01 647.01 69.21 649.59 63.01
  Q 649.82 62.46 650.40 62.32
  Q 651.23 62.11 651.97 62.38
  Q 652.49 62.57 652.42 63.12
  Q 651.89 67.45 650.27 71.48
  Q 650.06 72.00 649.49 72.00
  L 619.59 72.00
  Q 618.67 72.00 618.73 71.09
  L 618.76 70.54
  Q 618.82 69.61 619.74 69.60
  Q 621.83 69.57 623.42 68.75
  Q 623.92 68.48 624.03 67.92
  Q 624.39 66.03 624.42 64.32
  Q 624.66 51.17 624.40 40.68
  Q 624.36 38.87 624.06 36.99
  Q 623.97 36.48 623.51 36.27
  Q 622.03 35.61 620.46 35.49
  Q 620.01 35.46 620.00 35.01
  L 619.97 33.44
  Q 619.96 33.01 620.39 33.02
  Q 634.10 33.54 648.48 33.06
  Q 648.95 33.04 648.99 33.51
  L 649.57 41.43
  Q 649.65 42.52 648.56 42.53
  L 648.05 42.53
  Q 647.02 42.54 646.80 41.54
  Q 645.58 36.12 640.18 36.26
  C 637.98 36.31 635.77 36.22 633.57 36.24
  A 0.57 0.57 0.0 0 0 633.01 36.81
  Z"
/>
<path fill="#060606" d="
  M 663.30 42.96
  Q 662.60 42.11 662.58 43.21
  Q 662.35 54.95 662.59 63.53
  Q 662.65 65.56 663.22 67.51
  A 2.41 2.37 -1.0 0 0 664.96 69.17
  L 667.60 69.80
  Q 668.14 69.93 668.26 70.47
  Q 668.41 71.10 668.08 71.65
  Q 667.86 72.00 667.45 72.00
  L 654.49 72.00
  Q 653.73 72.00 653.73 71.24
  L 653.72 70.36
  Q 653.72 69.65 654.44 69.61
  Q 658.26 69.41 658.44 65.46
  Q 659.00 52.48 658.68 39.70
  Q 658.57 35.42 654.22 35.54
  A 0.72 0.72 0.0 0 1 653.48 34.83
  L 653.46 33.72
  Q 653.44 32.91 654.25 32.98
  Q 660.30 33.49 666.22 33.10
  Q 666.71 33.07 666.91 33.52
  C 667.57 34.98 668.40 36.54 669.40 37.78
  Q 677.36 47.69 686.07 57.70
  Q 686.73 58.45 686.73 57.45
  Q 686.74 50.60 686.76 43.22
  Q 686.77 39.90 685.74 37.02
  A 1.29 1.28 1.6 0 0 685.01 36.25
  Q 683.24 35.52 681.49 35.43
  Q 681.01 35.41 681.00 34.93
  L 680.97 33.52
  A 0.55 0.55 0.0 0 1 681.57 32.96
  Q 688.25 33.55 694.86 33.02
  A 0.83 0.82 -87.0 0 1 695.73 33.99
  L 695.65 34.40
  A 1.52 1.51 3.3 0 1 694.28 35.62
  Q 691.48 35.83 691.07 38.67
  Q 690.52 42.55 690.51 46.21
  Q 690.47 58.91 690.53 71.46
  Q 690.53 72.06 689.95 72.20
  L 687.76 72.75
  Q 687.20 72.88 686.82 72.45
  C 685.82 71.32 685.08 69.97 684.12 68.77
  Q 673.92 55.99 663.30 42.96
  Z"
/>
<path fill="#060606" d="
  M 748.78 54.06
  Q 748.62 59.90 748.87 65.01
  Q 749.04 68.61 752.68 68.88
  C 758.57 69.31 762.62 69.28 765.24 63.12
  Q 765.44 62.65 765.89 62.43
  Q 766.74 62.02 767.56 62.41
  A 0.88 0.86 -74.7 0 1 768.06 63.30
  Q 767.64 67.03 766.20 71.17
  A 1.24 1.23 -80.3 0 1 765.04 72.00
  L 735.28 72.00
  Q 734.56 72.00 734.45 71.28
  L 734.34 70.59
  Q 734.23 69.84 734.98 69.71
  L 738.15 69.17
  A 2.16 2.16 0.0 0 0 739.95 67.05
  Q 740.05 51.98 739.99 38.82
  Q 739.98 35.44 736.21 35.55
  Q 736.00 35.56 735.94 35.36
  Q 735.58 34.26 735.83 33.18
  Q 735.85 33.07 735.97 33.07
  Q 750.01 33.50 763.94 33.08
  Q 764.57 33.06 764.63 33.69
  L 765.32 41.51
  A 0.88 0.87 77.4 0 1 764.76 42.41
  Q 764.02 42.68 763.32 42.44
  A 1.12 1.12 0.0 0 1 762.60 41.68
  C 761.80 38.95 760.35 36.57 757.17 36.37
  Q 753.28 36.12 749.41 36.28
  Q 748.75 36.30 748.75 36.96
  L 748.75 49.37
  Q 748.75 49.99 749.37 49.99
  L 756.19 50.00
  A 1.29 1.28 -68.1 0 0 757.12 49.60
  Q 758.48 48.17 758.48 46.03
  A 0.50 0.50 0.0 0 1 758.96 45.53
  L 760.48 45.48
  Q 761.00 45.46 761.00 45.98
  L 761.00 57.49
  A 0.76 0.75 89.6 0 1 760.26 58.25
  L 759.22 58.25
  Q 758.49 58.26 758.49 57.53
  C 758.49 55.42 757.36 53.30 754.94 53.44
  Q 751.94 53.63 749.45 53.45
  Q 748.80 53.41 748.78 54.06
  Z"
/>
<path fill="#060606" d="
  M 782.82 56.14
  Q 782.53 62.21 783.17 67.66
  A 1.78 1.78 0.0 0 0 784.50 69.18
  L 786.84 69.75
  Q 787.41 69.88 787.57 70.44
  Q 787.75 71.03 787.47 71.56
  Q 787.24 72.00 786.75 72.00
  L 770.76 72.00
  Q 769.61 72.00 769.87 70.88
  L 769.96 70.52
  A 1.32 1.31 -82.8 0 1 771.28 69.49
  Q 774.47 69.56 774.57 66.33
  Q 775.01 51.48 774.57 38.87
  Q 774.46 35.69 771.24 36.09
  A 0.65 0.65 0.0 0 1 770.51 35.45
  L 770.51 34.22
  Q 770.51 33.58 771.15 33.53
  C 774.55 33.23 777.89 33.23 781.25 33.04
  C 788.85 32.60 800.26 32.96 801.68 42.12
  C 802.58 47.88 800.03 50.09 795.86 52.80
  A 0.92 0.90 61.7 0 0 795.53 53.94
  C 797.58 58.36 802.26 69.06 807.63 69.86
  Q 808.42 69.97 808.48 70.77
  L 808.52 71.23
  Q 808.56 71.80 808.00 71.91
  Q 796.10 74.23 791.32 64.30
  C 790.21 61.98 788.90 59.73 787.95 57.34
  C 787.21 55.47 785.72 54.84 783.86 55.03
  A 1.16 1.16 0.0 0 0 782.82 56.14
  Z
  M 782.76 37.72
  L 782.80 50.76
  A 1.65 1.65 0.0 0 0 784.46 52.40
  L 785.69 52.40
  A 7.19 7.06 89.8 0 0 792.72 45.18
  L 792.72 43.22
  A 7.19 7.06 89.8 0 0 785.63 36.06
  L 784.40 36.06
  A 1.65 1.65 0.0 0 0 782.76 37.72
  Z"
/>
<ellipse fill="#ffffff" cx="0.00" cy="0.00" transform="translate(249.82,52.60) rotate(86.8)" rx="17.59" ry="11.33"/>
<path fill="#ffffff" d="
  M 287.44 37.47
  A 1.37 1.37 0.0 0 1 288.80 36.09
  L 290.41 36.08
  A 7.05 6.78 89.6 0 1 297.24 43.09
  L 297.26 45.31
  A 7.05 6.78 89.6 0 1 290.53 52.40
  L 288.92 52.41
  A 1.37 1.37 0.0 0 1 287.54 51.05
  L 287.44 37.47
  Z"
/>
<path fill="#ffffff" d="
  M 397.19 50.04
  C 397.98 59.99 393.95 70.38 382.12 69.14
  C 378.73 68.79 378.01 65.49 378.00 62.63
  Q 377.97 50.16 378.04 38.01
  A 1.84 1.83 -5.9 0 1 379.49 36.23
  C 384.72 35.12 391.11 37.50 393.90 41.18
  Q 396.79 44.99 397.19 50.04
  Z"
/>
<path fill="#ffffff" d="
  M 782.76 37.72
  A 1.65 1.65 0.0 0 1 784.40 36.06
  L 785.63 36.06
  A 7.19 7.06 89.8 0 1 792.72 43.22
  L 792.72 45.18
  A 7.19 7.06 89.8 0 1 785.69 52.40
  L 784.46 52.40
  A 1.65 1.65 0.0 0 1 782.80 50.76
  L 782.76 37.72
  Z"
/>
<path fill="#ffffff" d="
  M 90.91 55.02
  L 94.84 43.43
  A 0.34 0.34 0.0 0 1 95.48 43.43
  L 99.29 55.07
  A 0.34 0.34 0.0 0 1 98.96 55.51
  L 91.23 55.47
  A 0.34 0.34 0.0 0 1 90.91 55.02
  Z"
/>
<path fill="#ffffff" d="
  M 420.76 54.95
  L 424.64 43.66
  A 0.40 0.40 0.0 0 1 425.40 43.66
  L 429.16 54.99
  A 0.40 0.40 0.0 0 1 428.78 55.52
  L 421.14 55.48
  A 0.40 0.40 0.0 0 1 420.76 54.95
  Z"
/>
<rect fill="#060606" x="-382.74" y="-2.10" transform="translate(425.67,81.51) rotate(-0.1)" width="765.48" height="4.20" rx="0.43"/>
</svg>
