<?xml version="1.0" encoding="UTF-8" standalone="no"?>
<!DOCTYPE svg PUBLIC "-//W3C//DTD SVG 1.1//EN" "http://www.w3.org/Graphics/SVG/1.1/DTD/svg11.dtd">
<svg xmlns="http://www.w3.org/2000/svg" version="1.1" viewBox="0.00 0.00 851.00 183.00">
<g stroke-width="2.00" fill="none" stroke-linecap="butt">
<path stroke="#808080" vector-effect="non-scaling-stroke" d="
  M 851.00 160.04
  L 804.43 160.03
  A 1.45 1.45 0.0 0 1 802.98 158.65
  Q 802.81 155.25 802.56 152.02
  C 802.39 149.77 803.78 146.65 804.29 144.09
  Q 804.99 140.53 805.54 136.85
  Q 805.84 134.85 807.79 135.39
  C 812.07 136.59 816.33 138.72 819.68 141.93
  Q 822.26 144.41 825.06 146.70
  Q 828.30 149.36 828.48 152.77
  C 828.58 154.58 830.10 155.75 831.89 155.44
  C 836.24 154.69 836.61 152.11 837.60 148.51
  A 2.20 2.12 74.0 0 1 838.05 147.66
  Q 841.88 143.33 840.74 138.14
  Q 839.67 133.25 834.65 134.59
  Q 834.21 134.71 834.08 135.14
  L 833.39 137.50
  A 0.42 0.42 0.0 0 1 832.70 137.69
  Q 830.35 135.50 827.27 134.65
  C 824.75 133.95 821.41 131.27 820.19 128.94
  Q 818.46 125.63 815.59 123.50
  Q 814.01 122.33 813.18 120.32
  Q 812.97 119.80 813.38 119.41
  Q 814.08 118.74 814.04 117.82
  A 0.78 0.76 -81.8 0 0 813.53 117.12
  C 809.61 115.77 809.88 110.54 809.70 107.06
  C 809.61 105.28 807.84 101.96 806.12 100.70
  Q 802.23 97.84 798.05 96.95
  A 1.48 1.47 17.1 0 1 796.99 94.96
  Q 797.82 92.90 796.55 91.09
  A 1.52 1.49 27.2 0 1 796.27 90.25
  L 796.16 85.93
  Q 796.14 85.29 795.67 84.85
  Q 789.91 79.59 784.20 83.72
  Q 783.71 84.08 783.55 84.67
  Q 782.61 88.33 782.67 92.75
  C 782.69 94.54 783.79 95.84 783.73 97.59
  A 0.90 0.90 0.0 0 1 783.30 98.32
  C 778.19 101.38 772.75 105.84 774.18 112.69
  Q 774.55 114.48 774.37 116.39
  Q 774.03 119.89 774.80 123.59
  A 1.48 1.47 -15.2 0 1 773.83 125.28
  Q 768.20 127.22 762.91 129.59
  C 760.29 130.76 757.08 131.58 754.26 131.50
  Q 746.03 131.27 738.68 131.61
  Q 736.68 131.70 736.20 133.48
  A 1.40 1.40 0.0 0 1 733.95 134.20
  Q 732.53 133.03 731.45 131.40
  C 730.12 129.38 726.78 129.12 726.36 132.01
  C 725.73 136.38 728.40 139.96 731.38 142.91
  C 734.08 145.58 734.79 150.49 739.45 150.49
  Q 739.96 150.49 740.27 150.10
  Q 744.48 144.89 748.53 143.20
  C 752.72 141.45 757.76 142.22 762.06 140.30
  Q 767.05 138.08 772.19 136.97
  Q 774.00 136.58 773.99 138.43
  C 773.97 142.56 774.71 146.40 774.19 150.63
  Q 773.92 152.79 772.69 154.40
  Q 771.15 156.44 769.64 158.37
  Q 769.26 158.85 769.81 159.12
  Q 770.52 159.46 771.24 159.07
  A 0.33 0.33 0.0 0 1 771.70 159.23
  Q 771.88 159.66 771.29 159.93
  A 0.68 0.62 -55.9 0 1 771.00 160.00
  L 702.99 160.00
  A 0.28 0.28 0.0 0 1 702.78 159.53
  Q 705.01 157.00 706.27 153.67
  A 1.64 1.63 -3.5 0 1 707.05 152.79
  Q 709.93 151.28 712.19 148.70
  Q 712.59 148.25 712.23 147.77
  L 709.65 144.34
  A 1.47 1.45 -54.7 0 1 709.43 143.02
  Q 710.01 141.23 708.85 139.85
  Q 708.43 139.34 708.48 138.69
  C 708.78 134.26 707.75 129.89 707.67 125.34
  Q 707.59 120.96 707.97 116.73
  Q 708.31 113.04 710.21 109.36
  C 712.99 103.98 715.04 98.28 717.26 92.71
  A 4.46 4.43 -88.7 0 1 719.89 90.18
  Q 729.72 86.69 742.96 81.68
  Q 747.35 80.02 749.15 76.60
  Q 752.13 70.91 753.80 64.31
  A 0.73 0.72 12.6 0 1 754.63 63.79
  Q 755.89 64.02 756.61 65.04
  A 1.11 1.10 64.6 0 0 757.81 65.47
  Q 758.99 65.14 760.19 65.26
  Q 760.67 65.31 760.68 64.83
  L 760.75 62.00
  Q 760.76 61.47 760.24 61.36
  L 756.30 60.56
  Q 755.17 60.33 755.49 59.21
  Q 757.48 52.39 760.75 47.07
  A 2.02 2.02 0.0 0 0 760.04 44.26
  C 758.77 43.53 757.14 43.53 755.83 44.15
  Q 753.51 45.25 751.05 44.11
  A 2.80 2.73 -35.7 0 0 749.51 43.88
  Q 747.70 44.14 746.09 45.14
  A 1.14 1.12 70.6 0 0 745.57 46.24
  Q 746.10 50.50 745.13 54.75
  C 744.85 55.98 745.23 56.79 745.62 57.90
  A 0.70 0.70 0.0 0 1 745.06 58.82
  Q 741.22 59.35 737.68 59.07
  C 734.66 58.83 732.43 59.94 729.22 59.07
  Q 725.57 58.08 721.40 57.36
  C 715.81 56.40 716.07 52.88 713.43 49.06
  A 1.28 1.26 49.8 0 1 713.55 47.46
  Q 716.24 44.67 717.94 41.09
  C 719.72 37.37 717.88 33.99 714.88 31.74
  A 0.62 0.62 0.0 0 1 714.79 30.83
  Q 717.87 27.28 720.92 24.06
  C 723.56 21.29 724.84 17.59 726.64 14.30
  Q 726.95 13.74 726.41 13.41
  Q 725.03 12.56 724.78 10.63
  A 0.28 0.28 0.0 0 0 724.24 10.57
  Q 723.50 12.66 723.74 15.39
  Q 723.80 16.03 723.18 16.42
  Q 722.73 16.71 722.38 16.31
  Q 721.80 15.64 721.03 15.25
  A 0.54 0.54 0.0 0 0 720.25 15.82
  L 720.77 19.21
  A 2.59 2.58 -18.8 0 1 719.46 21.86
  Q 714.96 24.35 710.87 27.74
  C 705.76 31.98 703.36 37.63 700.57 44.19
  C 699.11 47.61 696.14 49.73 694.66 53.32
  C 693.40 56.38 689.27 58.10 689.94 61.74
  Q 690.49 64.77 690.06 67.91
  Q 689.74 70.18 690.47 72.45
  Q 692.09 77.52 693.51 82.35
  A 3.63 3.62 -81.3 0 0 694.97 84.34
  C 697.86 86.29 700.22 88.15 701.31 91.73
  Q 701.47 92.24 701.28 92.74
  C 698.32 100.45 697.15 107.93 695.78 115.93
  Q 695.57 117.19 696.09 118.41
  Q 696.72 119.90 697.09 122.94
  Q 697.74 128.38 697.51 134.37
  Q 697.42 136.72 699.79 138.90
  A 1.01 1.00 -60.2 0 1 700.07 139.94
  Q 699.46 141.92 699.55 144.14
  Q 699.58 144.77 699.29 145.32
  Q 696.89 150.02 699.93 153.50
  A 2.50 2.48 22.6 0 1 700.54 154.96
  Q 700.72 157.33 699.32 159.49
  Q 698.99 160.00 698.39 160.00
  Q 674.64 160.00 651.25 160.01
  C 647.33 160.01 643.48 159.60 639.58 159.13
  Q 638.53 159.00 636.98 157.97
  A 1.38 1.34 10.0 0 1 636.41 157.18
  Q 635.71 154.44 636.21 151.92
  Q 636.31 151.41 636.00 151.00
  L 635.32 150.12
  Q 635.00 149.70 635.01 149.17
  Q 635.20 141.82 634.57 134.50
  Q 634.30 131.26 635.86 128.72
  Q 639.24 123.24 642.10 118.29
  A 0.68 0.68 0.0 0 1 643.08 118.07
  L 646.06 120.13
  A 2.48 2.47 42.8 0 0 649.03 120.02
  C 651.71 117.84 651.45 115.65 652.85 112.85
  A 1.58 1.54 50.8 0 0 652.95 111.72
  Q 651.91 108.27 650.08 105.71
  C 648.85 103.98 646.82 103.57 644.94 102.86
  Q 642.60 101.98 643.39 99.71
  Q 644.13 97.55 644.67 95.36
  A 0.81 0.81 0.0 0 1 645.46 94.74
  L 647.61 94.76
  A 1.86 1.86 0.0 0 0 649.32 93.63
  Q 651.30 89.04 653.85 84.77
  C 654.45 83.77 654.60 82.71 654.74 81.58
  Q 654.82 80.97 655.42 81.11
  L 658.24 81.79
  A 1.64 1.63 -85.3 0 0 660.25 80.08
  Q 660.08 77.74 659.63 75.37
  C 659.17 72.99 661.47 70.97 663.53 70.50
  C 666.77 69.76 669.28 66.87 669.33 63.50
  C 669.39 58.49 667.54 53.38 665.43 48.96
  Q 664.86 47.76 663.89 46.81
  Q 663.44 46.36 662.86 46.63
  Q 659.68 48.08 658.17 50.88
  Q 657.09 52.86 655.50 54.37
  C 650.99 58.65 646.40 62.59 642.30 67.30
  Q 640.83 68.99 638.26 70.67
  Q 630.87 75.47 620.71 80.53
  C 615.19 83.27 610.70 84.88 604.76 83.61
  Q 598.60 82.30 592.89 81.05
  C 590.79 80.59 588.88 79.34 587.55 77.72
  Q 582.59 71.71 575.72 66.92
  C 573.49 65.37 571.93 62.15 569.36 61.24
  C 567.24 60.48 565.85 63.02 565.95 64.74
  Q 566.22 69.48 566.12 74.09
  Q 566.03 78.32 569.98 81.03
  A 1.20 1.16 -34.9 0 0 570.97 81.19
  C 572.81 80.66 574.05 78.87 576.01 80.86
  Q 577.07 81.95 577.71 83.43
  A 1.85 1.85 0.0 0 0 579.18 84.53
  Q 583.52 85.09 586.62 87.55
  A 1.78 1.77 -82.1 0 1 587.19 88.31
  L 587.65 89.49
  A 1.24 1.22 0.7 0 0 588.31 90.16
  Q 591.19 91.38 593.77 93.20
  C 595.75 94.60 597.95 95.53 600.14 96.61
  C 604.74 98.87 610.49 103.46 609.20 109.24
  Q 608.34 113.08 605.82 116.72
  A 0.39 0.39 0.0 0 0 605.93 117.27
  Q 609.70 119.68 613.27 121.59
  C 614.25 122.11 614.72 122.98 615.34 123.85
  Q 615.67 124.31 616.22 124.48
  L 624.26 126.95
  A 1.81 1.79 9.7 0 1 625.53 128.73
  C 625.38 132.73 625.44 136.55 626.46 140.50
  Q 627.87 145.94 628.05 150.46
  C 628.17 153.65 629.90 155.99 629.45 159.33
  Q 629.36 160.00 628.69 160.00
  L 561.26 159.99
  Q 559.34 159.99 560.98 158.99
  Q 561.75 158.52 562.63 158.29
  A 1.10 1.09 -31.6 0 0 563.08 156.42
  L 561.25 154.78
  Q 560.64 154.24 561.45 154.28
  Q 563.66 154.37 565.03 156.07
  Q 565.34 156.46 565.83 156.52
  Q 566.52 156.61 567.19 156.33
  Q 567.71 156.11 568.26 156.23
  C 570.23 156.65 573.02 157.16 574.94 156.46
  Q 577.64 155.47 579.43 157.81
  C 580.12 158.72 581.19 158.76 582.24 158.74
  Q 586.40 158.67 590.14 157.70
  Q 590.66 157.56 590.87 157.06
  Q 591.17 156.34 590.94 155.62
  Q 590.81 155.20 590.42 155.00
  Q 587.72 153.62 585.13 153.30
  Q 582.90 153.03 580.87 151.79
  Q 577.05 149.46 573.57 146.87
  C 570.32 144.45 566.86 142.53 563.36 140.58
  Q 561.25 139.41 559.05 139.28
  Q 554.20 139.00 549.56 138.17
  A 3.97 3.96 -14.6 0 1 547.22 136.80
  Q 545.94 135.27 544.18 135.48
  Q 543.45 135.58 543.29 134.85
  Q 542.24 130.08 540.02 125.03
  Q 539.69 124.29 539.73 123.51
  A 0.60 0.60 0.0 0 1 540.59 122.99
  Q 545.71 125.41 550.11 128.31
  C 554.60 131.28 559.31 133.34 564.23 135.44
  Q 567.27 136.74 568.79 139.55
  Q 569.07 140.06 569.63 140.25
  Q 571.73 140.97 573.43 139.37
  Q 573.84 138.98 573.73 138.42
  L 573.05 135.06
  A 1.49 1.48 89.4 0 0 571.86 133.89
  C 569.25 133.41 566.74 132.31 564.54 130.89
  Q 559.56 127.66 554.30 124.62
  C 550.85 122.63 547.80 119.90 544.63 117.47
  Q 543.82 116.85 543.92 115.84
  C 544.06 114.35 543.93 113.01 543.33 111.62
  Q 542.69 110.11 542.34 108.38
  Q 541.60 104.58 539.69 100.76
  C 537.96 97.29 534.91 95.26 531.26 94.90
  Q 528.95 94.67 527.88 97.03
  Q 526.49 100.08 523.70 100.78
  A 0.57 0.57 0.0 0 0 523.28 101.47
  Q 523.73 103.20 522.83 104.81
  Q 521.41 107.36 524.01 108.73
  Q 524.64 109.06 524.97 109.67
  Q 525.37 110.42 524.56 110.16
  Q 520.61 108.91 517.59 107.34
  Q 514.30 105.63 513.21 101.88
  Q 511.20 94.91 510.57 89.64
  A 0.84 0.83 -17.5 0 1 511.01 88.80
  Q 513.40 87.55 514.33 85.13
  Q 514.99 83.41 513.45 84.42
  L 512.02 85.35
  Q 511.26 85.84 511.09 84.95
  L 510.67 82.63
  A 0.81 0.80 -17.7 0 0 509.54 82.05
  Q 507.70 82.89 506.09 84.15
  C 502.22 87.18 496.18 77.96 494.28 75.66
  Q 492.35 73.33 489.72 70.86
  C 486.92 68.23 483.64 65.54 481.68 62.28
  C 480.13 59.69 477.90 57.56 476.51 54.94
  Q 475.53 53.11 473.46 51.74
  Q 473.19 51.56 473.05 51.21
  Q 472.88 50.80 473.42 50.55
  A 0.70 0.67 -50.7 0 1 473.83 50.50
  Q 474.93 50.71 476.07 50.55
  Q 476.74 50.46 476.80 49.79
  L 477.04 47.43
  A 1.27 1.25 -15.4 0 1 477.57 46.51
  L 478.67 45.72
  Q 479.23 45.31 478.76 44.80
  Q 478.01 43.98 477.62 42.94
  Q 477.37 42.24 477.63 41.55
  C 478.40 39.54 479.14 36.62 477.83 34.70
  A 1.51 1.50 79.7 0 0 476.97 34.10
  C 472.66 32.99 469.94 30.65 465.46 33.56
  C 461.14 36.36 462.60 42.14 465.83 45.20
  A 0.79 0.78 -38.3 0 1 465.68 46.45
  L 465.30 46.66
  Q 463.99 47.41 462.84 46.45
  Q 459.97 44.05 456.71 41.79
  C 453.46 39.53 450.83 36.26 447.42 34.61
  C 441.05 31.53 434.51 25.11 427.39 31.23
  Q 426.10 32.34 427.80 32.32
  L 430.41 32.30
  A 0.98 0.96 -13.6 0 1 431.27 32.81
  Q 431.44 33.12 431.75 33.29
  Q 432.21 33.56 432.64 33.24
  Q 435.52 31.09 438.29 33.84
  Q 443.28 38.77 447.84 43.78
  A 12.51 12.39 11.6 0 1 449.88 46.84
  Q 452.29 51.97 455.36 56.87
  Q 456.97 59.43 457.42 62.40
  Q 458.71 70.92 457.26 79.65
  Q 456.85 82.15 455.94 84.38
  C 454.42 88.10 454.88 91.40 455.12 95.23
  Q 455.33 98.37 455.82 101.21
  Q 458.48 116.51 460.34 131.74
  Q 460.48 132.89 460.17 133.96
  Q 458.50 139.89 455.87 147.24
  C 455.27 148.95 454.05 150.19 453.35 151.83
  Q 453.04 152.57 453.67 153.08
  Q 454.54 153.77 455.02 154.65
  Q 455.34 155.25 455.04 155.85
  L 453.28 159.42
  Q 452.98 160.00 452.33 160.00
  Q 429.92 159.97 407.87 160.04
  C 400.38 160.06 397.40 147.36 396.74 141.17
  A 2.06 1.97 57.1 0 1 396.96 140.03
  C 399.00 136.13 396.54 131.94 398.63 128.55
  Q 400.28 125.86 401.23 122.84
  Q 401.41 122.27 401.95 122.53
  Q 404.04 123.55 405.87 121.86
  Q 406.25 121.51 406.14 121.01
  C 405.13 116.29 404.35 110.31 405.75 105.52
  Q 406.80 101.93 405.64 97.39
  A 0.53 0.52 0.1 0 1 406.28 96.76
  Q 408.60 97.34 410.95 98.19
  C 414.95 99.64 420.15 96.78 423.99 95.77
  C 426.26 95.17 427.75 93.67 428.59 91.55
  Q 428.99 90.55 428.15 91.22
  Q 427.36 91.86 426.62 92.65
  Q 426.41 92.88 426.10 92.96
  Q 425.73 93.05 425.48 92.77
  Q 425.21 92.46 425.50 92.17
  Q 425.91 91.75 425.83 91.19
  Q 425.71 90.42 425.30 91.08
  L 423.80 93.46
  A 2.64 2.62 -76.3 0 1 421.79 94.69
  C 419.16 94.90 414.57 95.49 412.13 94.23
  C 410.17 93.22 408.27 92.69 406.84 90.86
  Q 405.06 88.59 402.20 88.78
  A 0.78 0.74 62.0 0 1 401.63 88.59
  Q 401.07 88.08 401.42 87.46
  A 0.72 0.72 0.0 0 1 401.99 87.10
  L 403.61 86.94
  A 1.09 1.06 -77.6 0 0 404.45 86.39
  C 405.31 84.80 406.08 83.28 405.70 81.40
  C 405.20 78.82 406.62 75.31 403.91 73.33
  Q 401.46 71.55 398.85 71.22
  Q 398.28 71.15 398.05 70.63
  L 397.59 69.54
  Q 397.35 69.00 396.81 68.74
  C 392.83 66.86 389.16 71.81 391.90 74.87
  A 1.19 1.19 0.0 0 1 392.20 75.78
  Q 391.70 81.11 394.91 84.01
  A 2.72 2.71 54.2 0 1 394.18 88.52
  Q 391.29 89.77 388.35 91.70
  C 386.36 93.01 381.90 94.36 379.52 94.15
  Q 374.61 93.71 370.70 92.74
  A 2.44 2.44 0.0 0 1 369.04 91.36
  Q 368.30 89.69 367.16 88.14
  Q 367.06 88.01 366.90 88.00
  Q 366.77 87.99 366.66 88.06
  Q 366.53 88.15 366.61 88.29
  Q 367.27 89.45 366.94 90.62
  A 0.53 0.53 0.0 0 1 365.98 90.76
  L 364.02 87.73
  A 0.23 0.23 0.0 0 0 363.60 87.87
  C 363.83 90.62 365.47 92.64 368.10 93.77
  C 372.57 95.67 378.08 99.47 383.16 98.61
  Q 386.74 98.00 390.68 96.74
  Q 391.26 96.56 391.46 97.13
  Q 392.62 100.48 393.59 103.55
  C 395.75 110.42 390.01 113.05 384.48 114.16
  A 0.46 0.45 75.0 0 0 384.14 114.76
  L 384.24 115.07
  A 0.28 0.26 -8.7 0 0 384.50 115.25
  Q 385.53 115.20 386.42 115.59
  A 0.54 0.54 0.0 0 1 386.50 116.53
  L 385.66 117.07
  A 0.69 0.68 62.3 0 0 385.40 117.91
  Q 386.63 120.85 389.12 119.90
  Q 389.75 119.66 389.74 120.34
  Q 389.71 122.59 390.43 124.80
  C 391.85 129.12 390.20 133.58 387.14 136.85
  C 384.65 139.51 383.88 143.88 382.93 147.39
  A 2.24 2.23 -1.3 0 1 381.46 148.92
  L 379.77 149.46
  A 1.26 1.26 0.0 0 0 379.21 151.51
  C 381.50 154.07 378.68 155.92 376.65 156.96
  Q 375.31 157.65 376.78 158.01
  C 381.14 159.07 383.65 156.02 385.22 152.38
  Q 387.73 146.56 391.22 140.59
  Q 391.97 139.30 391.89 140.79
  Q 391.54 147.06 395.84 153.39
  Q 397.44 155.74 397.36 159.39
  Q 397.35 159.99 396.75 159.99
  Q 363.87 160.02 331.00 159.94
  Q 329.75 159.93 329.72 159.11"
/>
<path stroke="#918f90" vector-effect="non-scaling-stroke" d="
  M 329.72 159.11
  C 328.17 155.17 328.03 152.73 329.79 149.38
  A 0.98 0.98 0.0 0 0 328.80 147.95
  Q 325.77 148.33 325.91 145.12
  C 326.17 139.15 326.87 131.20 324.04 125.99
  C 322.09 122.40 320.01 119.01 319.64 114.74
  Q 319.19 109.46 317.49 104.69
  Q 317.30 104.15 317.44 103.59
  L 319.47 95.53
  A 1.63 1.62 78.5 0 1 320.05 94.65
  L 323.30 92.14
  Q 323.85 91.71 324.37 92.19
  Q 325.54 93.26 326.58 92.00
  Q 329.55 88.36 333.11 88.99
  A 0.89 0.89 0.0 0 0 334.03 88.54
  L 334.83 87.11
  Q 335.11 86.60 335.66 86.78
  Q 339.68 88.10 341.51 83.77
  Q 342.60 81.19 341.27 77.96
  Q 340.64 76.43 339.07 75.54
  C 337.71 74.76 336.24 75.31 334.78 75.32
  Q 334.14 75.32 333.76 74.82
  C 333.07 73.90 332.14 74.14 331.25 74.61
  Q 326.37 77.22 322.90 77.42
  Q 319.30 77.63 315.61 77.90
  Q 311.68 78.19 314.21 75.17
  Q 317.36 71.39 319.75 66.52
  A 2.66 2.65 -71.3 0 1 322.64 65.09
  Q 333.87 67.27 346.76 66.52
  Q 347.91 66.45 348.60 67.38
  Q 350.07 69.38 350.84 72.47
  Q 350.92 72.79 351.21 72.63
  L 351.74 72.35
  Q 351.84 72.30 351.84 72.20
  Q 351.86 71.00 351.36 69.85
  A 0.88 0.87 88.6 0 1 352.47 68.68
  Q 355.09 69.68 355.61 72.48
  Q 355.70 73.01 356.23 73.10
  Q 356.96 73.23 356.41 72.73
  Q 356.17 72.51 356.25 72.20
  Q 356.39 71.63 356.80 72.05
  Q 357.29 72.55 358.01 72.45
  Q 358.64 72.36 358.35 71.78
  Q 357.73 70.56 356.80 69.64
  Q 356.29 69.14 356.99 68.98
  Q 357.72 68.82 358.36 69.24
  Q 358.44 69.29 358.48 69.20
  Q 358.49 69.17 358.50 69.15
  Q 358.54 69.03 358.43 68.98
  Q 348.52 64.05 338.14 62.63
  C 332.48 61.85 325.79 61.09 320.95 57.82
  Q 319.32 56.71 319.06 54.92
  Q 318.46 50.67 321.23 47.79
  C 321.66 47.35 322.02 47.23 322.63 47.16
  Q 323.38 47.06 323.29 46.31
  Q 323.02 44.18 323.57 42.05
  C 324.35 39.00 321.35 34.28 317.85 35.79
  Q 312.94 37.89 311.55 41.93
  Q 311.41 42.35 311.06 42.62
  C 309.44 43.88 310.70 46.23 312.38 46.68
  Q 312.93 46.83 312.73 47.36
  L 311.45 50.72
  A 0.52 0.52 0.0 0 1 310.48 50.71
  C 309.80 48.87 308.87 47.12 308.51 45.17
  Q 307.15 37.86 306.80 31.09
  C 306.59 26.82 305.75 22.71 305.36 18.44
  Q 305.16 16.14 303.81 14.53
  C 301.92 12.27 299.97 10.25 298.72 7.50
  A 0.36 0.36 0.0 0 0 298.27 7.31
  L 298.02 7.40
  A 0.38 0.38 0.0 0 0 297.82 7.95
  L 298.45 9.08
  Q 299.52 10.99 297.50 10.14
  L 295.54 9.33
  Q 294.68 8.97 295.22 9.73
  C 295.95 10.77 297.88 11.17 298.94 11.59
  Q 299.81 11.93 300.16 12.80
  Q 300.32 13.21 300.18 13.61
  A 0.51 0.51 0.0 0 1 299.44 13.88
  Q 298.06 13.10 296.32 12.81
  Q 296.26 12.80 296.25 12.86
  L 296.17 13.13
  Q 296.12 13.31 296.28 13.39
  L 300.63 15.82
  Q 301.11 16.09 301.64 16.16
  Q 303.02 16.34 302.90 17.49
  C 301.70 29.04 302.72 40.60 304.55 51.73
  C 304.96 54.22 304.10 56.55 302.39 58.32
  C 299.87 60.94 298.35 64.54 298.72 68.19
  Q 299.29 73.70 299.69 79.48
  Q 299.73 80.01 299.22 80.14
  Q 287.83 83.04 278.75 86.07
  Q 276.84 86.71 275.43 88.66
  Q 275.13 89.07 275.26 89.53
  Q 275.38 90.02 275.86 90.19
  A 1.03 1.02 -3.1 0 1 276.41 90.68
  C 279.65 96.70 279.64 101.70 287.79 103.14
  Q 288.30 103.23 288.72 103.53
  Q 289.22 103.89 289.18 104.56
  Q 289.16 104.98 289.54 105.18
  Q 293.07 106.96 296.08 102.64
  Q 296.68 101.78 297.68 102.11
  L 299.50 102.72
  A 0.83 0.82 -62.1 0 0 300.42 102.43
  L 301.26 101.27
  A 1.41 1.40 47.8 0 1 303.60 101.39
  C 304.88 103.56 306.15 105.68 305.78 108.39
  C 304.60 116.94 304.59 125.66 303.29 134.10
  Q 302.44 139.67 300.22 144.21
  Q 298.63 147.45 298.13 151.77
  Q 297.55 156.76 298.09 159.96"
/>
<path stroke="#808080" vector-effect="non-scaling-stroke" d="
  M 298.09 159.96
  L 218.51 159.92
  Q 217.65 159.92 217.62 159.05
  L 217.49 155.84
  A 1.94 1.93 -27.7 0 1 217.87 154.63
  Q 219.52 152.37 220.64 150.22
  Q 226.28 139.40 231.18 129.73
  Q 232.71 126.72 235.08 124.75
  A 1.11 1.11 0.0 0 1 236.71 124.99
  Q 243.39 135.06 247.20 145.42
  Q 247.66 146.67 248.87 147.48
  Q 250.55 148.61 252.08 149.85
  Q 253.69 151.16 256.14 150.92
  Q 256.62 150.87 256.83 150.44
  Q 257.46 149.16 256.40 148.20
  Q 251.05 143.30 250.15 137.52
  C 249.57 133.82 248.01 130.38 247.27 126.68
  Q 246.08 120.73 243.85 114.72
  C 243.29 113.22 243.59 112.19 243.93 110.73
  C 244.91 106.58 245.46 102.22 244.53 97.92
  C 243.63 93.82 244.84 89.49 239.31 88.27
  A 0.99 0.99 0.0 0 1 238.76 86.66
  Q 241.93 82.93 241.41 77.33
  C 240.86 71.54 233.06 70.68 231.69 76.41
  Q 231.18 78.52 230.49 80.71
  Q 230.33 81.22 230.59 81.70
  Q 231.20 82.79 231.73 83.95
  Q 232.16 84.87 231.40 85.41
  A 0.74 0.74 0.0 0 1 230.43 85.30
  Q 227.61 82.21 224.27 80.95
  C 220.43 79.49 217.27 75.98 214.59 72.99
  Q 210.85 68.84 206.64 65.40
  Q 204.87 63.96 203.97 62.23
  Q 202.31 59.02 199.57 56.26
  A 0.69 0.69 0.0 0 0 198.65 56.21
  L 198.42 56.41
  A 0.40 0.40 0.0 0 0 198.42 57.03
  Q 200.74 58.93 199.06 61.09
  A 1.16 1.16 0.0 0 0 199.40 62.81
  C 204.98 66.01 207.64 71.68 212.42 75.79
  C 214.68 77.74 215.61 80.32 217.24 82.70
  A 1.96 1.92 32.4 0 1 217.56 84.05
  L 217.25 86.52
  Q 217.12 87.58 218.13 87.92
  Q 223.21 89.68 223.62 94.06
  Q 223.95 97.51 224.26 100.91
  C 224.66 105.46 223.47 109.94 223.49 114.51
  C 223.51 118.66 222.40 122.82 221.61 126.98
  Q 221.17 129.28 219.92 132.16
  Q 216.34 140.47 213.14 153.16
  C 212.61 155.23 212.55 157.28 212.78 159.38
  Q 212.85 160.01 212.21 160.01
  L 162.00 159.98
  Q 161.09 159.98 161.56 159.08
  Q 161.78 158.66 161.03 158.35
  A 0.70 0.63 -29.7 0 0 160.75 158.29
  Q 159.01 158.25 157.99 157.11"
/>
<path stroke="#888988" vector-effect="non-scaling-stroke" d="
  M 157.99 157.11
  Q 155.18 152.18 155.03 149.26
  Q 154.78 144.08 154.46 142.74
  Q 152.25 133.65 152.53 125.08
  C 152.65 121.43 149.94 117.67 148.79 114.28
  Q 147.04 109.17 145.32 103.08
  Q 145.18 102.58 145.44 102.12
  L 146.50 100.30
  Q 146.81 99.77 146.77 99.16
  Q 146.72 98.27 146.99 97.44
  Q 147.15 96.93 147.68 96.88
  Q 150.96 96.53 153.04 94.34
  Q 156.32 90.88 160.10 87.20
  C 162.86 84.51 165.06 81.47 167.42 78.41
  Q 169.72 75.41 172.28 78.20
  Q 172.63 78.58 172.82 79.07
  Q 173.12 79.83 173.88 79.53
  Q 176.96 78.32 180.01 78.99
  C 182.63 79.56 185.93 78.35 186.42 75.53
  C 187.00 72.22 186.63 68.19 183.10 66.54
  Q 181.55 65.81 179.83 66.13
  Q 176.82 66.69 173.80 66.43
  A 1.74 1.72 -57.3 0 0 172.77 66.66
  Q 168.39 69.18 164.11 70.37
  A 2.43 2.41 -34.2 0 1 162.01 69.98
  Q 158.97 67.72 155.83 65.93
  C 153.40 64.54 152.18 62.45 150.15 60.69
  A 2.48 2.47 42.5 0 1 149.99 57.11
  Q 151.07 55.97 151.81 54.71
  C 153.39 51.98 152.14 48.89 153.06 46.00
  Q 153.48 44.66 152.27 43.73
  C 150.05 42.05 147.64 40.25 144.72 40.40
  Q 140.29 40.62 139.15 45.50
  C 138.78 47.10 139.25 48.76 139.49 50.35
  A 1.34 1.33 -4.0 0 1 138.14 51.89
  Q 135.16 51.82 134.69 54.28
  A 2.36 2.36 0.0 0 1 132.09 56.18
  L 123.97 55.19
  A 1.51 1.50 12.0 0 0 122.35 56.24
  C 121.54 58.92 116.99 60.91 114.55 61.86
  C 112.21 62.76 110.53 64.34 108.52 65.66
  C 106.24 67.16 105.15 69.29 104.99 71.96
  Q 104.60 78.53 103.89 85.01
  A 1.20 1.20 0.0 0 0 104.33 86.07
  Q 104.66 86.33 105.05 86.35
  Q 105.85 86.40 105.63 87.16
  L 101.72 100.65
  Q 101.58 101.15 102.07 101.29
  Q 104.79 102.09 107.24 103.74
  A 1.08 1.07 -72.9 0 1 107.71 104.63
  L 107.78 110.63
  Q 107.79 111.33 107.58 112.01
  Q 107.36 112.70 107.41 113.42
  Q 107.44 114.00 107.90 114.35
  Q 108.21 114.59 108.38 114.95
  Q 108.62 115.45 108.45 115.98
  C 107.66 118.39 106.17 122.45 107.76 124.78
  Q 108.08 125.24 108.16 125.80
  L 108.44 127.62
  Q 108.53 128.19 108.94 128.59
  C 111.00 130.62 113.26 131.90 113.41 135.18
  Q 113.65 140.37 113.85 146.34
  C 113.91 148.20 113.18 149.99 112.48 151.67
  C 111.60 153.75 113.72 155.41 112.80 157.94"
/>
<path stroke="#808080" vector-effect="non-scaling-stroke" d="
  M 112.80 157.94
  Q 112.38 159.99 109.75 159.99
  Q 79.87 160.01 49.97 159.99
  Q 49.20 159.99 49.20 159.22
  C 49.21 157.32 48.74 155.91 50.31 154.37
  Q 51.72 152.98 52.64 151.35
  A 0.89 0.88 -56.6 0 0 52.42 150.23
  Q 49.03 147.53 49.26 142.85
  C 49.53 137.45 50.07 131.45 48.09 126.32
  Q 46.33 121.74 44.63 117.03
  A 0.98 0.97 67.2 0 1 45.12 115.82
  C 47.79 114.56 49.78 112.41 51.33 109.91
  Q 54.23 105.25 57.29 101.61
  C 59.88 98.55 61.79 95.13 64.50 92.18
  C 66.44 90.06 67.73 87.10 65.78 84.49
  Q 64.66 83.00 62.85 82.80
  Q 53.17 81.75 45.98 84.18
  Q 43.95 84.87 41.96 83.43
  Q 38.24 80.75 34.23 78.32
  Q 33.65 77.97 34.01 77.40
  C 36.19 73.96 40.53 69.56 45.04 70.56
  C 51.84 72.06 58.62 73.29 65.40 71.16
  Q 69.59 69.85 73.69 68.58
  A 2.53 2.52 51.2 0 1 75.66 68.80
  Q 78.71 70.53 81.45 72.51
  Q 81.71 72.69 81.96 72.51
  Q 82.40 72.19 82.04 71.78
  L 80.60 70.16
  Q 80.00 69.49 80.90 69.48
  C 82.85 69.47 84.60 71.38 85.61 72.87
  Q 86.04 73.52 86.24 72.76
  L 86.75 70.75
  Q 86.88 70.27 86.44 70.03
  C 81.78 67.40 78.92 65.29 73.26 65.87
  Q 66.97 66.51 60.74 67.82
  C 57.28 68.55 53.78 68.13 50.62 66.92
  Q 45.93 65.12 41.45 63.98
  C 38.59 63.25 35.48 59.31 38.15 56.59
  Q 38.60 56.13 39.21 56.32
  L 40.76 56.81
  Q 42.06 57.23 42.78 56.06
  Q 45.05 52.38 45.78 47.60
  C 46.40 43.63 42.26 39.99 38.53 39.97
  Q 36.97 39.96 35.46 39.45
  Q 34.88 39.25 34.33 39.51
  C 32.07 40.58 30.78 42.94 31.47 45.47
  Q 32.14 47.91 32.55 50.65
  C 32.79 52.17 31.72 56.23 29.45 56.21
  A 1.44 1.44 0.0 0 1 28.14 55.34
  C 27.25 53.32 26.78 51.18 25.35 49.44
  C 22.72 46.27 20.61 43.28 20.18 39.07
  Q 19.80 35.33 18.44 32.36
  C 16.18 27.42 15.24 22.91 13.00 18.10
  C 11.86 15.64 9.96 14.36 8.81 12.03
  Q 8.63 11.66 8.24 11.54
  Q 7.68 11.36 7.81 11.93
  L 7.96 12.55
  Q 8.16 13.38 7.32 13.26
  Q 7.00 13.21 6.74 13.02
  A 0.30 0.29 35.0 0 0 6.32 13.09
  Q 6.20 13.26 6.27 13.46
  Q 6.33 13.64 6.49 13.74
  Q 8.18 14.78 9.72 16.45
  Q 9.82 16.56 9.75 16.68
  L 9.48 17.11
  Q 9.30 17.40 9.06 17.15
  Q 8.50 16.57 7.75 16.10
  Q 6.38 15.23 7.15 16.65
  Q 8.66 19.42 11.01 21.53
  Q 12.32 22.70 12.63 24.47
  Q 13.81 31.00 15.07 37.48
  Q 16.08 42.71 21.24 53.74
  C 22.42 56.25 22.77 59.99 21.24 62.51
  C 20.12 64.35 18.77 66.37 18.52 68.55
  Q 17.98 73.31 18.39 77.77
  C 18.68 80.96 20.39 84.10 21.43 87.10
  A 1.79 1.75 -48.6 0 1 21.48 88.06
  Q 20.37 93.13 18.16 97.64
  A 0.89 0.89 0.0 0 0 18.31 98.64
  L 21.50 102.06
  Q 22.08 102.68 22.91 102.51
  Q 24.76 102.13 25.23 103.81
  Q 25.41 104.43 26.05 104.49
  L 29.05 104.76
  Q 29.52 104.81 29.68 105.25
  Q 31.75 111.04 35.23 115.74
  Q 36.75 117.79 37.65 120.37
  C 38.78 123.59 41.18 126.51 41.62 129.90
  Q 42.43 136.06 43.80 141.04
  C 44.98 145.31 44.85 149.20 44.71 153.44
  C 44.64 155.66 45.39 157.44 45.86 159.51
  A 0.45 0.45 0.0 0 1 45.42 160.06
  L 0.00 160.06"
/>
<path stroke="#121011" vector-effect="non-scaling-stroke" d="
  M 329.72 159.11
  Q 327.36 160.82 324.99 159.96"
/>
<path stroke="#918f90" vector-effect="non-scaling-stroke" d="
  M 324.99 159.96
  Q 321.81 153.61 321.18 144.76
  Q 320.65 137.27 316.26 126.75
  Q 314.54 122.61 312.21 120.26
  Q 311.54 119.58 311.54 120.53
  Q 311.53 123.48 311.65 126.39
  Q 311.88 131.94 308.43 138.16
  C 305.66 143.16 302.43 147.48 303.51 153.44
  C 303.91 155.64 303.69 157.66 303.42 159.89"
/>
<path stroke="#121011" vector-effect="non-scaling-stroke" d="
  M 303.42 159.89
  Q 302.31 159.74 300.74 160.16
  Q 300.27 160.29 299.81 160.12
  Q 298.80 159.74 298.09 159.96"
/>
<path stroke="#090a09" vector-effect="non-scaling-stroke" d="
  M 112.80 157.94
  Q 114.18 158.36 114.22 159.06
  A 1.58 1.58 0.0 0 0 116.90 160.09
  Q 117.82 159.19 119.34 159.94"
/>
<path stroke="#808080" vector-effect="non-scaling-stroke" d="
  M 119.34 159.94
  L 137.12 159.92"
/>
<path stroke="#090a09" vector-effect="non-scaling-stroke" d="
  M 137.12 159.92
  Q 137.73 159.60 138.30 159.71
  Q 138.71 159.79 138.91 160.16
  Q 139.29 160.90 140.11 160.74
  Q 140.58 160.65 140.81 160.23
  Q 141.24 159.44 142.09 159.59"
/>
<path stroke="#808080" vector-effect="non-scaling-stroke" d="
  M 142.09 159.59
  Q 144.08 160.66 144.77 159.35"
/>
<path stroke="#090a09" vector-effect="non-scaling-stroke" d="
  M 144.77 159.35
  Q 145.61 158.70 145.75 159.55"
/>
<path stroke="#808080" vector-effect="non-scaling-stroke" d="
  M 145.75 159.55
  Q 145.77 159.88 146.00 159.91
  Q 149.57 160.40 152.93 159.50"
/>
<path stroke="#090a09" vector-effect="non-scaling-stroke" d="
  M 152.93 159.50
  Q 156.41 159.76 157.99 157.11"
/>
<path stroke="#808080" vector-effect="non-scaling-stroke" d="
  M 303.42 159.89
  L 324.99 159.96"
/>
<path stroke="#808080" vector-effect="non-scaling-stroke" d="
  M 740.82 64.58
  A 0.34 0.34 0.0 0 0 740.48 64.09
  Q 735.89 64.54 730.86 64.18
  C 725.39 63.80 720.62 64.75 715.10 62.77
  C 711.85 61.61 708.44 67.26 707.32 69.61
  Q 707.08 70.14 707.59 70.40
  Q 713.02 73.20 717.90 74.51
  Q 720.94 75.33 724.12 74.83
  Q 730.13 73.90 736.77 73.54
  Q 737.45 73.50 737.64 72.84
  Q 738.80 68.74 740.82 64.58"
/>
<path stroke="#808080" vector-effect="non-scaling-stroke" d="
  M 478.75 151.96
  L 478.34 152.96
  A 1.11 1.10 -60.0 0 0 478.68 154.24
  L 483.48 158.00
  Q 483.79 158.24 483.87 158.63
  Q 483.95 159.01 483.87 159.10
  A 0.52 0.52 0.0 0 0 484.26 159.97
  Q 502.34 160.02 522.16 160.01
  Q 522.95 160.01 522.40 159.44
  C 519.23 156.18 522.02 151.35 525.10 148.94
  Q 525.55 148.59 525.47 148.03
  Q 524.93 144.19 524.21 139.84
  Q 523.77 137.17 519.81 128.12
  Q 519.53 127.49 519.76 126.85
  C 520.51 124.67 523.17 118.01 520.22 116.50
  C 517.08 114.89 508.95 109.25 508.47 105.17
  Q 507.50 96.92 507.59 90.07
  Q 507.59 89.50 507.02 89.55
  Q 502.95 89.95 500.44 87.98
  Q 497.36 85.57 493.75 83.30
  C 491.25 81.72 489.34 79.64 487.08 77.86
  Q 484.51 75.86 479.94 74.25
  C 478.95 73.90 478.30 73.36 477.72 72.49
  Q 476.69 70.96 476.53 72.80
  Q 475.96 79.30 474.82 85.54
  C 474.50 87.29 475.20 89.99 474.96 92.21
  Q 474.06 100.52 472.87 108.68
  C 472.42 111.78 470.90 114.23 471.80 117.49
  Q 472.35 119.46 472.42 121.42
  Q 472.75 129.74 473.30 138.10
  C 473.55 141.74 475.08 144.84 475.68 148.39
  C 475.91 149.70 476.85 150.60 478.15 150.86
  Q 479.11 151.05 478.75 151.96"
/>
<path stroke="#808080" vector-effect="non-scaling-stroke" d="
  M 626.63 94.79
  C 629.41 100.58 634.32 98.29 637.01 94.43
  Q 640.86 88.92 645.07 83.32
  C 647.23 80.43 650.07 78.33 652.41 75.59
  A 0.97 0.96 52.2 0 0 652.54 74.54
  L 652.36 74.18
  A 0.46 0.46 0.0 0 0 651.58 74.10
  Q 649.79 76.43 648.74 76.54
  Q 643.22 77.13 639.59 81.36
  C 637.89 83.35 636.32 85.30 634.32 87.03
  Q 630.57 90.28 626.83 93.75
  Q 626.35 94.20 626.63 94.79"
/>
<path stroke="#808080" vector-effect="non-scaling-stroke" d="
  M 45.92 103.75
  L 48.53 103.75
  A 1.87 1.86 -81.6 0 0 50.31 102.42
  Q 51.86 97.33 54.12 92.83
  A 0.25 0.25 0.0 0 0 53.83 92.48
  Q 49.13 93.84 43.79 94.50
  Q 40.93 94.86 41.35 97.53
  A 0.82 0.80 67.4 0 1 41.04 98.31
  Q 38.86 99.96 40.03 102.82
  Q 41.91 107.40 43.52 111.95
  Q 43.90 113.03 44.54 112.08
  L 45.25 111.02
  A 2.23 2.23 0.0 0 0 45.47 108.96
  Q 44.52 106.55 45.04 104.44
  Q 45.21 103.75 45.92 103.75"
/>
<path stroke="#808080" vector-effect="non-scaling-stroke" d="
  M 788.89 120.98
  A 0.67 0.67 0.0 0 0 789.31 119.91
  L 786.98 116.94
  A 0.67 0.67 0.0 0 0 786.76 116.76
  L 783.27 114.92
  A 0.67 0.67 0.0 0 0 782.30 115.37
  L 780.97 121.35
  A 0.67 0.67 0.0 0 0 781.74 122.16
  L 788.89 120.98"
/>
<path stroke="#808080" vector-effect="non-scaling-stroke" d="
  M 779.61 159.61
  Q 779.65 160.00 780.04 160.00
  L 793.74 160.00
  Q 794.65 160.00 795.16 159.24
  Q 796.92 156.66 798.17 153.50
  C 799.06 151.26 799.00 148.84 799.41 146.41
  C 799.96 143.16 799.60 139.63 800.39 136.14
  Q 800.57 135.33 799.74 135.34
  L 781.19 135.52
  A 1.44 1.43 -86.3 0 0 779.78 136.76
  Q 778.97 142.58 778.09 148.01
  Q 777.63 150.84 778.43 153.20
  C 779.13 155.28 779.36 157.46 779.61 159.61"
/>
<path stroke="#808080" vector-effect="non-scaling-stroke" d="
  M 464.38 155.76
  Q 462.23 157.15 460.49 159.18
  Q 459.99 159.76 460.75 159.82
  Q 466.09 160.29 472.30 159.74
  Q 473.74 159.61 472.33 159.25
  Q 469.29 158.48 468.53 154.91
  Q 467.89 151.85 467.32 148.60
  Q 466.77 145.50 466.24 148.61
  Q 465.75 151.48 465.29 154.37
  Q 465.14 155.26 464.38 155.76"
/>
<path stroke="#808080" vector-effect="non-scaling-stroke" d="
  M 559.8783 153.7680
  A 2.51 0.45 -2.1 0 0 557.3535 153.4103
  A 2.51 0.45 -2.1 0 0 554.8617 153.9520
  A 2.51 0.45 -2.1 0 0 557.3865 154.3097
  A 2.51 0.45 -2.1 0 0 559.8783 153.7680"
/>
<path stroke="#808080" vector-effect="non-scaling-stroke" d="
  M 778.22 160.01
  A 0.42 0.42 0.0 0 0 778.56 159.34
  L 777.25 157.56
  A 0.42 0.42 0.0 0 0 776.67 157.46
  L 774.11 159.23
  A 0.42 0.42 0.0 0 0 774.35 159.99
  L 778.22 160.01"
/>
<path stroke="#888988" vector-effect="non-scaling-stroke" d="
  M 152.93 159.50
  Q 151.69 158.42 150.08 158.23
  Q 149.44 158.15 149.47 157.51
  L 149.53 156.46
  Q 149.56 155.85 148.98 155.67
  Q 148.74 155.59 148.52 155.72
  Q 148.17 155.94 147.98 156.33
  Q 147.14 158.14 145.75 159.55"
/>
<path stroke="#888988" vector-effect="non-scaling-stroke" d="
  M 144.77 159.35
  Q 143.60 157.81 142.09 159.59"
/>
<path stroke="#888988" vector-effect="non-scaling-stroke" d="
  M 137.12 159.92
  L 139.41 153.73
  A 0.53 0.53 0.0 0 0 138.96 153.02
  C 136.61 152.82 134.33 152.69 132.06 151.91
  Q 126.64 150.04 121.66 147.80
  Q 120.87 147.44 121.01 148.29
  L 121.80 153.46
  Q 121.87 153.91 121.70 154.32
  L 119.34 159.94"
/>
<path stroke="#888988" vector-effect="non-scaling-stroke" d="
  M 118.17 73.05
  A 1.32 1.32 0.0 0 0 116.41 71.45
  L 113.33 72.69
  A 1.32 1.32 0.0 0 0 112.52 73.67
  L 111.46 79.23
  A 1.32 1.32 0.0 0 0 112.68 80.79
  L 114.77 80.91
  A 1.32 1.32 0.0 0 0 116.11 79.97
  L 118.17 73.05"
/>
</g>
<path fill="#ffffff" d="
  M 0.00 0.00
  L 851.00 0.00
  L 851.00 160.04
  L 804.43 160.03
  A 1.45 1.45 0.0 0 1 802.98 158.65
  Q 802.81 155.25 802.56 152.02
  C 802.39 149.77 803.78 146.65 804.29 144.09
  Q 804.99 140.53 805.54 136.85
  Q 805.84 134.85 807.79 135.39
  C 812.07 136.59 816.33 138.72 819.68 141.93
  Q 822.26 144.41 825.06 146.70
  Q 828.30 149.36 828.48 152.77
  C 828.58 154.58 830.10 155.75 831.89 155.44
  C 836.24 154.69 836.61 152.11 837.60 148.51
  A 2.20 2.12 74.0 0 1 838.05 147.66
  Q 841.88 143.33 840.74 138.14
  Q 839.67 133.25 834.65 134.59
  Q 834.21 134.71 834.08 135.14
  L 833.39 137.50
  A 0.42 0.42 0.0 0 1 832.70 137.69
  Q 830.35 135.50 827.27 134.65
  C 824.75 133.95 821.41 131.27 820.19 128.94
  Q 818.46 125.63 815.59 123.50
  Q 814.01 122.33 813.18 120.32
  Q 812.97 119.80 813.38 119.41
  Q 814.08 118.74 814.04 117.82
  A 0.78 0.76 -81.8 0 0 813.53 117.12
  C 809.61 115.77 809.88 110.54 809.70 107.06
  C 809.61 105.28 807.84 101.96 806.12 100.70
  Q 802.23 97.84 798.05 96.95
  A 1.48 1.47 17.1 0 1 796.99 94.96
  Q 797.82 92.90 796.55 91.09
  A 1.52 1.49 27.2 0 1 796.27 90.25
  L 796.16 85.93
  Q 796.14 85.29 795.67 84.85
  Q 789.91 79.59 784.20 83.72
  Q 783.71 84.08 783.55 84.67
  Q 782.61 88.33 782.67 92.75
  C 782.69 94.54 783.79 95.84 783.73 97.59
  A 0.90 0.90 0.0 0 1 783.30 98.32
  C 778.19 101.38 772.75 105.84 774.18 112.69
  Q 774.55 114.48 774.37 116.39
  Q 774.03 119.89 774.80 123.59
  A 1.48 1.47 -15.2 0 1 773.83 125.28
  Q 768.20 127.22 762.91 129.59
  C 760.29 130.76 757.08 131.58 754.26 131.50
  Q 746.03 131.27 738.68 131.61
  Q 736.68 131.70 736.20 133.48
  A 1.40 1.40 0.0 0 1 733.95 134.20
  Q 732.53 133.03 731.45 131.40
  C 730.12 129.38 726.78 129.12 726.36 132.01
  C 725.73 136.38 728.40 139.96 731.38 142.91
  C 734.08 145.58 734.79 150.49 739.45 150.49
  Q 739.96 150.49 740.27 150.10
  Q 744.48 144.89 748.53 143.20
  C 752.72 141.45 757.76 142.22 762.06 140.30
  Q 767.05 138.08 772.19 136.97
  Q 774.00 136.58 773.99 138.43
  C 773.97 142.56 774.71 146.40 774.19 150.63
  Q 773.92 152.79 772.69 154.40
  Q 771.15 156.44 769.64 158.37
  Q 769.26 158.85 769.81 159.12
  Q 770.52 159.46 771.24 159.07
  A 0.33 0.33 0.0 0 1 771.70 159.23
  Q 771.88 159.66 771.29 159.93
  A 0.68 0.62 -55.9 0 1 771.00 160.00
  L 702.99 160.00
  A 0.28 0.28 0.0 0 1 702.78 159.53
  Q 705.01 157.00 706.27 153.67
  A 1.64 1.63 -3.5 0 1 707.05 152.79
  Q 709.93 151.28 712.19 148.70
  Q 712.59 148.25 712.23 147.77
  L 709.65 144.34
  A 1.47 1.45 -54.7 0 1 709.43 143.02
  Q 710.01 141.23 708.85 139.85
  Q 708.43 139.34 708.48 138.69
  C 708.78 134.26 707.75 129.89 707.67 125.34
  Q 707.59 120.96 707.97 116.73
  Q 708.31 113.04 710.21 109.36
  C 712.99 103.98 715.04 98.28 717.26 92.71
  A 4.46 4.43 -88.7 0 1 719.89 90.18
  Q 729.72 86.69 742.96 81.68
  Q 747.35 80.02 749.15 76.60
  Q 752.13 70.91 753.80 64.31
  A 0.73 0.72 12.6 0 1 754.63 63.79
  Q 755.89 64.02 756.61 65.04
  A 1.11 1.10 64.6 0 0 757.81 65.47
  Q 758.99 65.14 760.19 65.26
  Q 760.67 65.31 760.68 64.83
  L 760.75 62.00
  Q 760.76 61.47 760.24 61.36
  L 756.30 60.56
  Q 755.17 60.33 755.49 59.21
  Q 757.48 52.39 760.75 47.07
  A 2.02 2.02 0.0 0 0 760.04 44.26
  C 758.77 43.53 757.14 43.53 755.83 44.15
  Q 753.51 45.25 751.05 44.11
  A 2.80 2.73 -35.7 0 0 749.51 43.88
  Q 747.70 44.14 746.09 45.14
  A 1.14 1.12 70.6 0 0 745.57 46.24
  Q 746.10 50.50 745.13 54.75
  C 744.85 55.98 745.23 56.79 745.62 57.90
  A 0.70 0.70 0.0 0 1 745.06 58.82
  Q 741.22 59.35 737.68 59.07
  C 734.66 58.83 732.43 59.94 729.22 59.07
  Q 725.57 58.08 721.40 57.36
  C 715.81 56.40 716.07 52.88 713.43 49.06
  A 1.28 1.26 49.8 0 1 713.55 47.46
  Q 716.24 44.67 717.94 41.09
  C 719.72 37.37 717.88 33.99 714.88 31.74
  A 0.62 0.62 0.0 0 1 714.79 30.83
  Q 717.87 27.28 720.92 24.06
  C 723.56 21.29 724.84 17.59 726.64 14.30
  Q 726.95 13.74 726.41 13.41
  Q 725.03 12.56 724.78 10.63
  A 0.28 0.28 0.0 0 0 724.24 10.57
  Q 723.50 12.66 723.74 15.39
  Q 723.80 16.03 723.18 16.42
  Q 722.73 16.71 722.38 16.31
  Q 721.80 15.64 721.03 15.25
  A 0.54 0.54 0.0 0 0 720.25 15.82
  L 720.77 19.21
  A 2.59 2.58 -18.8 0 1 719.46 21.86
  Q 714.96 24.35 710.87 27.74
  C 705.76 31.98 703.36 37.63 700.57 44.19
  C 699.11 47.61 696.14 49.73 694.66 53.32
  C 693.40 56.38 689.27 58.10 689.94 61.74
  Q 690.49 64.77 690.06 67.91
  Q 689.74 70.18 690.47 72.45
  Q 692.09 77.52 693.51 82.35
  A 3.63 3.62 -81.3 0 0 694.97 84.34
  C 697.86 86.29 700.22 88.15 701.31 91.73
  Q 701.47 92.24 701.28 92.74
  C 698.32 100.45 697.15 107.93 695.78 115.93
  Q 695.57 117.19 696.09 118.41
  Q 696.72 119.90 697.09 122.94
  Q 697.74 128.38 697.51 134.37
  Q 697.42 136.72 699.79 138.90
  A 1.01 1.00 -60.2 0 1 700.07 139.94
  Q 699.46 141.92 699.55 144.14
  Q 699.58 144.77 699.29 145.32
  Q 696.89 150.02 699.93 153.50
  A 2.50 2.48 22.6 0 1 700.54 154.96
  Q 700.72 157.33 699.32 159.49
  Q 698.99 160.00 698.39 160.00
  Q 674.64 160.00 651.25 160.01
  C 647.33 160.01 643.48 159.60 639.58 159.13
  Q 638.53 159.00 636.98 157.97
  A 1.38 1.34 10.0 0 1 636.41 157.18
  Q 635.71 154.44 636.21 151.92
  Q 636.31 151.41 636.00 151.00
  L 635.32 150.12
  Q 635.00 149.70 635.01 149.17
  Q 635.20 141.82 634.57 134.50
  Q 634.30 131.26 635.86 128.72
  Q 639.24 123.24 642.10 118.29
  A 0.68 0.68 0.0 0 1 643.08 118.07
  L 646.06 120.13
  A 2.48 2.47 42.8 0 0 649.03 120.02
  C 651.71 117.84 651.45 115.65 652.85 112.85
  A 1.58 1.54 50.8 0 0 652.95 111.72
  Q 651.91 108.27 650.08 105.71
  C 648.85 103.98 646.82 103.57 644.94 102.86
  Q 642.60 101.98 643.39 99.71
  Q 644.13 97.55 644.67 95.36
  A 0.81 0.81 0.0 0 1 645.46 94.74
  L 647.61 94.76
  A 1.86 1.86 0.0 0 0 649.32 93.63
  Q 651.30 89.04 653.85 84.77
  C 654.45 83.77 654.60 82.71 654.74 81.58
  Q 654.82 80.97 655.42 81.11
  L 658.24 81.79
  A 1.64 1.63 -85.3 0 0 660.25 80.08
  Q 660.08 77.74 659.63 75.37
  C 659.17 72.99 661.47 70.97 663.53 70.50
  C 666.77 69.76 669.28 66.87 669.33 63.50
  C 669.39 58.49 667.54 53.38 665.43 48.96
  Q 664.86 47.76 663.89 46.81
  Q 663.44 46.36 662.86 46.63
  Q 659.68 48.08 658.17 50.88
  Q 657.09 52.86 655.50 54.37
  C 650.99 58.65 646.40 62.59 642.30 67.30
  Q 640.83 68.99 638.26 70.67
  Q 630.87 75.47 620.71 80.53
  C 615.19 83.27 610.70 84.88 604.76 83.61
  Q 598.60 82.30 592.89 81.05
  C 590.79 80.59 588.88 79.34 587.55 77.72
  Q 582.59 71.71 575.72 66.92
  C 573.49 65.37 571.93 62.15 569.36 61.24
  C 567.24 60.48 565.85 63.02 565.95 64.74
  Q 566.22 69.48 566.12 74.09
  Q 566.03 78.32 569.98 81.03
  A 1.20 1.16 -34.9 0 0 570.97 81.19
  C 572.81 80.66 574.05 78.87 576.01 80.86
  Q 577.07 81.95 577.71 83.43
  A 1.85 1.85 0.0 0 0 579.18 84.53
  Q 583.52 85.09 586.62 87.55
  A 1.78 1.77 -82.1 0 1 587.19 88.31
  L 587.65 89.49
  A 1.24 1.22 0.7 0 0 588.31 90.16
  Q 591.19 91.38 593.77 93.20
  C 595.75 94.60 597.95 95.53 600.14 96.61
  C 604.74 98.87 610.49 103.46 609.20 109.24
  Q 608.34 113.08 605.82 116.72
  A 0.39 0.39 0.0 0 0 605.93 117.27
  Q 609.70 119.68 613.27 121.59
  C 614.25 122.11 614.72 122.98 615.34 123.85
  Q 615.67 124.31 616.22 124.48
  L 624.26 126.95
  A 1.81 1.79 9.7 0 1 625.53 128.73
  C 625.38 132.73 625.44 136.55 626.46 140.50
  Q 627.87 145.94 628.05 150.46
  C 628.17 153.65 629.90 155.99 629.45 159.33
  Q 629.36 160.00 628.69 160.00
  L 561.26 159.99
  Q 559.34 159.99 560.98 158.99
  Q 561.75 158.52 562.63 158.29
  A 1.10 1.09 -31.6 0 0 563.08 156.42
  L 561.25 154.78
  Q 560.64 154.24 561.45 154.28
  Q 563.66 154.37 565.03 156.07
  Q 565.34 156.46 565.83 156.52
  Q 566.52 156.61 567.19 156.33
  Q 567.71 156.11 568.26 156.23
  C 570.23 156.65 573.02 157.16 574.94 156.46
  Q 577.64 155.47 579.43 157.81
  C 580.12 158.72 581.19 158.76 582.24 158.74
  Q 586.40 158.67 590.14 157.70
  Q 590.66 157.56 590.87 157.06
  Q 591.17 156.34 590.94 155.62
  Q 590.81 155.20 590.42 155.00
  Q 587.72 153.62 585.13 153.30
  Q 582.90 153.03 580.87 151.79
  Q 577.05 149.46 573.57 146.87
  C 570.32 144.45 566.86 142.53 563.36 140.58
  Q 561.25 139.41 559.05 139.28
  Q 554.20 139.00 549.56 138.17
  A 3.97 3.96 -14.6 0 1 547.22 136.80
  Q 545.94 135.27 544.18 135.48
  Q 543.45 135.58 543.29 134.85
  Q 542.24 130.08 540.02 125.03
  Q 539.69 124.29 539.73 123.51
  A 0.60 0.60 0.0 0 1 540.59 122.99
  Q 545.71 125.41 550.11 128.31
  C 554.60 131.28 559.31 133.34 564.23 135.44
  Q 567.27 136.74 568.79 139.55
  Q 569.07 140.06 569.63 140.25
  Q 571.73 140.97 573.43 139.37
  Q 573.84 138.98 573.73 138.42
  L 573.05 135.06
  A 1.49 1.48 89.4 0 0 571.86 133.89
  C 569.25 133.41 566.74 132.31 564.54 130.89
  Q 559.56 127.66 554.30 124.62
  C 550.85 122.63 547.80 119.90 544.63 117.47
  Q 543.82 116.85 543.92 115.84
  C 544.06 114.35 543.93 113.01 543.33 111.62
  Q 542.69 110.11 542.34 108.38
  Q 541.60 104.58 539.69 100.76
  C 537.96 97.29 534.91 95.26 531.26 94.90
  Q 528.95 94.67 527.88 97.03
  Q 526.49 100.08 523.70 100.78
  A 0.57 0.57 0.0 0 0 523.28 101.47
  Q 523.73 103.20 522.83 104.81
  Q 521.41 107.36 524.01 108.73
  Q 524.64 109.06 524.97 109.67
  Q 525.37 110.42 524.56 110.16
  Q 520.61 108.91 517.59 107.34
  Q 514.30 105.63 513.21 101.88
  Q 511.20 94.91 510.57 89.64
  A 0.84 0.83 -17.5 0 1 511.01 88.80
  Q 513.40 87.55 514.33 85.13
  Q 514.99 83.41 513.45 84.42
  L 512.02 85.35
  Q 511.26 85.84 511.09 84.95
  L 510.67 82.63
  A 0.81 0.80 -17.7 0 0 509.54 82.05
  Q 507.70 82.89 506.09 84.15
  C 502.22 87.18 496.18 77.96 494.28 75.66
  Q 492.35 73.33 489.72 70.86
  C 486.92 68.23 483.64 65.54 481.68 62.28
  C 480.13 59.69 477.90 57.56 476.51 54.94
  Q 475.53 53.11 473.46 51.74
  Q 473.19 51.56 473.05 51.21
  Q 472.88 50.80 473.42 50.55
  A 0.70 0.67 -50.7 0 1 473.83 50.50
  Q 474.93 50.71 476.07 50.55
  Q 476.74 50.46 476.80 49.79
  L 477.04 47.43
  A 1.27 1.25 -15.4 0 1 477.57 46.51
  L 478.67 45.72
  Q 479.23 45.31 478.76 44.80
  Q 478.01 43.98 477.62 42.94
  Q 477.37 42.24 477.63 41.55
  C 478.40 39.54 479.14 36.62 477.83 34.70
  A 1.51 1.50 79.7 0 0 476.97 34.10
  C 472.66 32.99 469.94 30.65 465.46 33.56
  C 461.14 36.36 462.60 42.14 465.83 45.20
  A 0.79 0.78 -38.3 0 1 465.68 46.45
  L 465.30 46.66
  Q 463.99 47.41 462.84 46.45
  Q 459.97 44.05 456.71 41.79
  C 453.46 39.53 450.83 36.26 447.42 34.61
  C 441.05 31.53 434.51 25.11 427.39 31.23
  Q 426.10 32.34 427.80 32.32
  L 430.41 32.30
  A 0.98 0.96 -13.6 0 1 431.27 32.81
  Q 431.44 33.12 431.75 33.29
  Q 432.21 33.56 432.64 33.24
  Q 435.52 31.09 438.29 33.84
  Q 443.28 38.77 447.84 43.78
  A 12.51 12.39 11.6 0 1 449.88 46.84
  Q 452.29 51.97 455.36 56.87
  Q 456.97 59.43 457.42 62.40
  Q 458.71 70.92 457.26 79.65
  Q 456.85 82.15 455.94 84.38
  C 454.42 88.10 454.88 91.40 455.12 95.23
  Q 455.33 98.37 455.82 101.21
  Q 458.48 116.51 460.34 131.74
  Q 460.48 132.89 460.17 133.96
  Q 458.50 139.89 455.87 147.24
  C 455.27 148.95 454.05 150.19 453.35 151.83
  Q 453.04 152.57 453.67 153.08
  Q 454.54 153.77 455.02 154.65
  Q 455.34 155.25 455.04 155.85
  L 453.28 159.42
  Q 452.98 160.00 452.33 160.00
  Q 429.92 159.97 407.87 160.04
  C 400.38 160.06 397.40 147.36 396.74 141.17
  A 2.06 1.97 57.1 0 1 396.96 140.03
  C 399.00 136.13 396.54 131.94 398.63 128.55
  Q 400.28 125.86 401.23 122.84
  Q 401.41 122.27 401.95 122.53
  Q 404.04 123.55 405.87 121.86
  Q 406.25 121.51 406.14 121.01
  C 405.13 116.29 404.35 110.31 405.75 105.52
  Q 406.80 101.93 405.64 97.39
  A 0.53 0.52 0.1 0 1 406.28 96.76
  Q 408.60 97.34 410.95 98.19
  C 414.95 99.64 420.15 96.78 423.99 95.77
  C 426.26 95.17 427.75 93.67 428.59 91.55
  Q 428.99 90.55 428.15 91.22
  Q 427.36 91.86 426.62 92.65
  Q 426.41 92.88 426.10 92.96
  Q 425.73 93.05 425.48 92.77
  Q 425.21 92.46 425.50 92.17
  Q 425.91 91.75 425.83 91.19
  Q 425.71 90.42 425.30 91.08
  L 423.80 93.46
  A 2.64 2.62 -76.3 0 1 421.79 94.69
  C 419.16 94.90 414.57 95.49 412.13 94.23
  C 410.17 93.22 408.27 92.69 406.84 90.86
  Q 405.06 88.59 402.20 88.78
  A 0.78 0.74 62.0 0 1 401.63 88.59
  Q 401.07 88.08 401.42 87.46
  A 0.72 0.72 0.0 0 1 401.99 87.10
  L 403.61 86.94
  A 1.09 1.06 -77.6 0 0 404.45 86.39
  C 405.31 84.80 406.08 83.28 405.70 81.40
  C 405.20 78.82 406.62 75.31 403.91 73.33
  Q 401.46 71.55 398.85 71.22
  Q 398.28 71.15 398.05 70.63
  L 397.59 69.54
  Q 397.35 69.00 396.81 68.74
  C 392.83 66.86 389.16 71.81 391.90 74.87
  A 1.19 1.19 0.0 0 1 392.20 75.78
  Q 391.70 81.11 394.91 84.01
  A 2.72 2.71 54.2 0 1 394.18 88.52
  Q 391.29 89.77 388.35 91.70
  C 386.36 93.01 381.90 94.36 379.52 94.15
  Q 374.61 93.71 370.70 92.74
  A 2.44 2.44 0.0 0 1 369.04 91.36
  Q 368.30 89.69 367.16 88.14
  Q 367.06 88.01 366.90 88.00
  Q 366.77 87.99 366.66 88.06
  Q 366.53 88.15 366.61 88.29
  Q 367.27 89.45 366.94 90.62
  A 0.53 0.53 0.0 0 1 365.98 90.76
  L 364.02 87.73
  A 0.23 0.23 0.0 0 0 363.60 87.87
  C 363.83 90.62 365.47 92.64 368.10 93.77
  C 372.57 95.67 378.08 99.47 383.16 98.61
  Q 386.74 98.00 390.68 96.74
  Q 391.26 96.56 391.46 97.13
  Q 392.62 100.48 393.59 103.55
  C 395.75 110.42 390.01 113.05 384.48 114.16
  A 0.46 0.45 75.0 0 0 384.14 114.76
  L 384.24 115.07
  A 0.28 0.26 -8.7 0 0 384.50 115.25
  Q 385.53 115.20 386.42 115.59
  A 0.54 0.54 0.0 0 1 386.50 116.53
  L 385.66 117.07
  A 0.69 0.68 62.3 0 0 385.40 117.91
  Q 386.63 120.85 389.12 119.90
  Q 389.75 119.66 389.74 120.34
  Q 389.71 122.59 390.43 124.80
  C 391.85 129.12 390.20 133.58 387.14 136.85
  C 384.65 139.51 383.88 143.88 382.93 147.39
  A 2.24 2.23 -1.3 0 1 381.46 148.92
  L 379.77 149.46
  A 1.26 1.26 0.0 0 0 379.21 151.51
  C 381.50 154.07 378.68 155.92 376.65 156.96
  Q 375.31 157.65 376.78 158.01
  C 381.14 159.07 383.65 156.02 385.22 152.38
  Q 387.73 146.56 391.22 140.59
  Q 391.97 139.30 391.89 140.79
  Q 391.54 147.06 395.84 153.39
  Q 397.44 155.74 397.36 159.39
  Q 397.35 159.99 396.75 159.99
  Q 363.87 160.02 331.00 159.94
  Q 329.75 159.93 329.72 159.11
  C 328.17 155.17 328.03 152.73 329.79 149.38
  A 0.98 0.98 0.0 0 0 328.80 147.95
  Q 325.77 148.33 325.91 145.12
  C 326.17 139.15 326.87 131.20 324.04 125.99
  C 322.09 122.40 320.01 119.01 319.64 114.74
  Q 319.19 109.46 317.49 104.69
  Q 317.30 104.15 317.44 103.59
  L 319.47 95.53
  A 1.63 1.62 78.5 0 1 320.05 94.65
  L 323.30 92.14
  Q 323.85 91.71 324.37 92.19
  Q 325.54 93.26 326.58 92.00
  Q 329.55 88.36 333.11 88.99
  A 0.89 0.89 0.0 0 0 334.03 88.54
  L 334.83 87.11
  Q 335.11 86.60 335.66 86.78
  Q 339.68 88.10 341.51 83.77
  Q 342.60 81.19 341.27 77.96
  Q 340.64 76.43 339.07 75.54
  C 337.71 74.76 336.24 75.31 334.78 75.32
  Q 334.14 75.32 333.76 74.82
  C 333.07 73.90 332.14 74.14 331.25 74.61
  Q 326.37 77.22 322.90 77.42
  Q 319.30 77.63 315.61 77.90
  Q 311.68 78.19 314.21 75.17
  Q 317.36 71.39 319.75 66.52
  A 2.66 2.65 -71.3 0 1 322.64 65.09
  Q 333.87 67.27 346.76 66.52
  Q 347.91 66.45 348.60 67.38
  Q 350.07 69.38 350.84 72.47
  Q 350.92 72.79 351.21 72.63
  L 351.74 72.35
  Q 351.84 72.30 351.84 72.20
  Q 351.86 71.00 351.36 69.85
  A 0.88 0.87 88.6 0 1 352.47 68.68
  Q 355.09 69.68 355.61 72.48
  Q 355.70 73.01 356.23 73.10
  Q 356.96 73.23 356.41 72.73
  Q 356.17 72.51 356.25 72.20
  Q 356.39 71.63 356.80 72.05
  Q 357.29 72.55 358.01 72.45
  Q 358.64 72.36 358.35 71.78
  Q 357.73 70.56 356.80 69.64
  Q 356.29 69.14 356.99 68.98
  Q 357.72 68.82 358.36 69.24
  Q 358.44 69.29 358.48 69.20
  Q 358.49 69.17 358.50 69.15
  Q 358.54 69.03 358.43 68.98
  Q 348.52 64.05 338.14 62.63
  C 332.48 61.85 325.79 61.09 320.95 57.82
  Q 319.32 56.71 319.06 54.92
  Q 318.46 50.67 321.23 47.79
  C 321.66 47.35 322.02 47.23 322.63 47.16
  Q 323.38 47.06 323.29 46.31
  Q 323.02 44.18 323.57 42.05
  C 324.35 39.00 321.35 34.28 317.85 35.79
  Q 312.94 37.89 311.55 41.93
  Q 311.41 42.35 311.06 42.62
  C 309.44 43.88 310.70 46.23 312.38 46.68
  Q 312.93 46.83 312.73 47.36
  L 311.45 50.72
  A 0.52 0.52 0.0 0 1 310.48 50.71
  C 309.80 48.87 308.87 47.12 308.51 45.17
  Q 307.15 37.86 306.80 31.09
  C 306.59 26.82 305.75 22.71 305.36 18.44
  Q 305.16 16.14 303.81 14.53
  C 301.92 12.27 299.97 10.25 298.72 7.50
  A 0.36 0.36 0.0 0 0 298.27 7.31
  L 298.02 7.40
  A 0.38 0.38 0.0 0 0 297.82 7.95
  L 298.45 9.08
  Q 299.52 10.99 297.50 10.14
  L 295.54 9.33
  Q 294.68 8.97 295.22 9.73
  C 295.95 10.77 297.88 11.17 298.94 11.59
  Q 299.81 11.93 300.16 12.80
  Q 300.32 13.21 300.18 13.61
  A 0.51 0.51 0.0 0 1 299.44 13.88
  Q 298.06 13.10 296.32 12.81
  Q 296.26 12.80 296.25 12.86
  L 296.17 13.13
  Q 296.12 13.31 296.28 13.39
  L 300.63 15.82
  Q 301.11 16.09 301.64 16.16
  Q 303.02 16.34 302.90 17.49
  C 301.70 29.04 302.72 40.60 304.55 51.73
  C 304.96 54.22 304.10 56.55 302.39 58.32
  C 299.87 60.94 298.35 64.54 298.72 68.19
  Q 299.29 73.70 299.69 79.48
  Q 299.73 80.01 299.22 80.14
  Q 287.83 83.04 278.75 86.07
  Q 276.84 86.71 275.43 88.66
  Q 275.13 89.07 275.26 89.53
  Q 275.38 90.02 275.86 90.19
  A 1.03 1.02 -3.1 0 1 276.41 90.68
  C 279.65 96.70 279.64 101.70 287.79 103.14
  Q 288.30 103.23 288.72 103.53
  Q 289.22 103.89 289.18 104.56
  Q 289.16 104.98 289.54 105.18
  Q 293.07 106.96 296.08 102.64
  Q 296.68 101.78 297.68 102.11
  L 299.50 102.72
  A 0.83 0.82 -62.1 0 0 300.42 102.43
  L 301.26 101.27
  A 1.41 1.40 47.8 0 1 303.60 101.39
  C 304.88 103.56 306.15 105.68 305.78 108.39
  C 304.60 116.94 304.59 125.66 303.29 134.10
  Q 302.44 139.67 300.22 144.21
  Q 298.63 147.45 298.13 151.77
  Q 297.55 156.76 298.09 159.96
  L 218.51 159.92
  Q 217.65 159.92 217.62 159.05
  L 217.49 155.84
  A 1.94 1.93 -27.7 0 1 217.87 154.63
  Q 219.52 152.37 220.64 150.22
  Q 226.28 139.40 231.18 129.73
  Q 232.71 126.72 235.08 124.75
  A 1.11 1.11 0.0 0 1 236.71 124.99
  Q 243.39 135.06 247.20 145.42
  Q 247.66 146.67 248.87 147.48
  Q 250.55 148.61 252.08 149.85
  Q 253.69 151.16 256.14 150.92
  Q 256.62 150.87 256.83 150.44
  Q 257.46 149.16 256.40 148.20
  Q 251.05 143.30 250.15 137.52
  C 249.57 133.82 248.01 130.38 247.27 126.68
  Q 246.08 120.73 243.85 114.72
  C 243.29 113.22 243.59 112.19 243.93 110.73
  C 244.91 106.58 245.46 102.22 244.53 97.92
  C 243.63 93.82 244.84 89.49 239.31 88.27
  A 0.99 0.99 0.0 0 1 238.76 86.66
  Q 241.93 82.93 241.41 77.33
  C 240.86 71.54 233.06 70.68 231.69 76.41
  Q 231.18 78.52 230.49 80.71
  Q 230.33 81.22 230.59 81.70
  Q 231.20 82.79 231.73 83.95
  Q 232.16 84.87 231.40 85.41
  A 0.74 0.74 0.0 0 1 230.43 85.30
  Q 227.61 82.21 224.27 80.95
  C 220.43 79.49 217.27 75.98 214.59 72.99
  Q 210.85 68.84 206.64 65.40
  Q 204.87 63.96 203.97 62.23
  Q 202.31 59.02 199.57 56.26
  A 0.69 0.69 0.0 0 0 198.65 56.21
  L 198.42 56.41
  A 0.40 0.40 0.0 0 0 198.42 57.03
  Q 200.74 58.93 199.06 61.09
  A 1.16 1.16 0.0 0 0 199.40 62.81
  C 204.98 66.01 207.64 71.68 212.42 75.79
  C 214.68 77.74 215.61 80.32 217.24 82.70
  A 1.96 1.92 32.4 0 1 217.56 84.05
  L 217.25 86.52
  Q 217.12 87.58 218.13 87.92
  Q 223.21 89.68 223.62 94.06
  Q 223.95 97.51 224.26 100.91
  C 224.66 105.46 223.47 109.94 223.49 114.51
  C 223.51 118.66 222.40 122.82 221.61 126.98
  Q 221.17 129.28 219.92 132.16
  Q 216.34 140.47 213.14 153.16
  C 212.61 155.23 212.55 157.28 212.78 159.38
  Q 212.85 160.01 212.21 160.01
  L 162.00 159.98
  Q 161.09 159.98 161.56 159.08
  Q 161.78 158.66 161.03 158.35
  A 0.70 0.63 -29.7 0 0 160.75 158.29
  Q 159.01 158.25 157.99 157.11
  Q 155.18 152.18 155.03 149.26
  Q 154.78 144.08 154.46 142.74
  Q 152.25 133.65 152.53 125.08
  C 152.65 121.43 149.94 117.67 148.79 114.28
  Q 147.04 109.17 145.32 103.08
  Q 145.18 102.58 145.44 102.12
  L 146.50 100.30
  Q 146.81 99.77 146.77 99.16
  Q 146.72 98.27 146.99 97.44
  Q 147.15 96.93 147.68 96.88
  Q 150.96 96.53 153.04 94.34
  Q 156.32 90.88 160.10 87.20
  C 162.86 84.51 165.06 81.47 167.42 78.41
  Q 169.72 75.41 172.28 78.20
  Q 172.63 78.58 172.82 79.07
  Q 173.12 79.83 173.88 79.53
  Q 176.96 78.32 180.01 78.99
  C 182.63 79.56 185.93 78.35 186.42 75.53
  C 187.00 72.22 186.63 68.19 183.10 66.54
  Q 181.55 65.81 179.83 66.13
  Q 176.82 66.69 173.80 66.43
  A 1.74 1.72 -57.3 0 0 172.77 66.66
  Q 168.39 69.18 164.11 70.37
  A 2.43 2.41 -34.2 0 1 162.01 69.98
  Q 158.97 67.72 155.83 65.93
  C 153.40 64.54 152.18 62.45 150.15 60.69
  A 2.48 2.47 42.5 0 1 149.99 57.11
  Q 151.07 55.97 151.81 54.71
  C 153.39 51.98 152.14 48.89 153.06 46.00
  Q 153.48 44.66 152.27 43.73
  C 150.05 42.05 147.64 40.25 144.72 40.40
  Q 140.29 40.62 139.15 45.50
  C 138.78 47.10 139.25 48.76 139.49 50.35
  A 1.34 1.33 -4.0 0 1 138.14 51.89
  Q 135.16 51.82 134.69 54.28
  A 2.36 2.36 0.0 0 1 132.09 56.18
  L 123.97 55.19
  A 1.51 1.50 12.0 0 0 122.35 56.24
  C 121.54 58.92 116.99 60.91 114.55 61.86
  C 112.21 62.76 110.53 64.34 108.52 65.66
  C 106.24 67.16 105.15 69.29 104.99 71.96
  Q 104.60 78.53 103.89 85.01
  A 1.20 1.20 0.0 0 0 104.33 86.07
  Q 104.66 86.33 105.05 86.35
  Q 105.85 86.40 105.63 87.16
  L 101.72 100.65
  Q 101.58 101.15 102.07 101.29
  Q 104.79 102.09 107.24 103.74
  A 1.08 1.07 -72.9 0 1 107.71 104.63
  L 107.78 110.63
  Q 107.79 111.33 107.58 112.01
  Q 107.36 112.70 107.41 113.42
  Q 107.44 114.00 107.90 114.35
  Q 108.21 114.59 108.38 114.95
  Q 108.62 115.45 108.45 115.98
  C 107.66 118.39 106.17 122.45 107.76 124.78
  Q 108.08 125.24 108.16 125.80
  L 108.44 127.62
  Q 108.53 128.19 108.94 128.59
  C 111.00 130.62 113.26 131.90 113.41 135.18
  Q 113.65 140.37 113.85 146.34
  C 113.91 148.20 113.18 149.99 112.48 151.67
  C 111.60 153.75 113.72 155.41 112.80 157.94
  Q 112.38 159.99 109.75 159.99
  Q 79.87 160.01 49.97 159.99
  Q 49.20 159.99 49.20 159.22
  C 49.21 157.32 48.74 155.91 50.31 154.37
  Q 51.72 152.98 52.64 151.35
  A 0.89 0.88 -56.6 0 0 52.42 150.23
  Q 49.03 147.53 49.26 142.85
  C 49.53 137.45 50.07 131.45 48.09 126.32
  Q 46.33 121.74 44.63 117.03
  A 0.98 0.97 67.2 0 1 45.12 115.82
  C 47.79 114.56 49.78 112.41 51.33 109.91
  Q 54.23 105.25 57.29 101.61
  C 59.88 98.55 61.79 95.13 64.50 92.18
  C 66.44 90.06 67.73 87.10 65.78 84.49
  Q 64.66 83.00 62.85 82.80
  Q 53.17 81.75 45.98 84.18
  Q 43.95 84.87 41.96 83.43
  Q 38.24 80.75 34.23 78.32
  Q 33.65 77.97 34.01 77.40
  C 36.19 73.96 40.53 69.56 45.04 70.56
  C 51.84 72.06 58.62 73.29 65.40 71.16
  Q 69.59 69.85 73.69 68.58
  A 2.53 2.52 51.2 0 1 75.66 68.80
  Q 78.71 70.53 81.45 72.51
  Q 81.71 72.69 81.96 72.51
  Q 82.40 72.19 82.04 71.78
  L 80.60 70.16
  Q 80.00 69.49 80.90 69.48
  C 82.85 69.47 84.60 71.38 85.61 72.87
  Q 86.04 73.52 86.24 72.76
  L 86.75 70.75
  Q 86.88 70.27 86.44 70.03
  C 81.78 67.40 78.92 65.29 73.26 65.87
  Q 66.97 66.51 60.74 67.82
  C 57.28 68.55 53.78 68.13 50.62 66.92
  Q 45.93 65.12 41.45 63.98
  C 38.59 63.25 35.48 59.31 38.15 56.59
  Q 38.60 56.13 39.21 56.32
  L 40.76 56.81
  Q 42.06 57.23 42.78 56.06
  Q 45.05 52.38 45.78 47.60
  C 46.40 43.63 42.26 39.99 38.53 39.97
  Q 36.97 39.96 35.46 39.45
  Q 34.88 39.25 34.33 39.51
  C 32.07 40.58 30.78 42.94 31.47 45.47
  Q 32.14 47.91 32.55 50.65
  C 32.79 52.17 31.72 56.23 29.45 56.21
  A 1.44 1.44 0.0 0 1 28.14 55.34
  C 27.25 53.32 26.78 51.18 25.35 49.44
  C 22.72 46.27 20.61 43.28 20.18 39.07
  Q 19.80 35.33 18.44 32.36
  C 16.18 27.42 15.24 22.91 13.00 18.10
  C 11.86 15.64 9.96 14.36 8.81 12.03
  Q 8.63 11.66 8.24 11.54
  Q 7.68 11.36 7.81 11.93
  L 7.96 12.55
  Q 8.16 13.38 7.32 13.26
  Q 7.00 13.21 6.74 13.02
  A 0.30 0.29 35.0 0 0 6.32 13.09
  Q 6.20 13.26 6.27 13.46
  Q 6.33 13.64 6.49 13.74
  Q 8.18 14.78 9.72 16.45
  Q 9.82 16.56 9.75 16.68
  L 9.48 17.11
  Q 9.30 17.40 9.06 17.15
  Q 8.50 16.57 7.75 16.10
  Q 6.38 15.23 7.15 16.65
  Q 8.66 19.42 11.01 21.53
  Q 12.32 22.70 12.63 24.47
  Q 13.81 31.00 15.07 37.48
  Q 16.08 42.71 21.24 53.74
  C 22.42 56.25 22.77 59.99 21.24 62.51
  C 20.12 64.35 18.77 66.37 18.52 68.55
  Q 17.98 73.31 18.39 77.77
  C 18.68 80.96 20.39 84.10 21.43 87.10
  A 1.79 1.75 -48.6 0 1 21.48 88.06
  Q 20.37 93.13 18.16 97.64
  A 0.89 0.89 0.0 0 0 18.31 98.64
  L 21.50 102.06
  Q 22.08 102.68 22.91 102.51
  Q 24.76 102.13 25.23 103.81
  Q 25.41 104.43 26.05 104.49
  L 29.05 104.76
  Q 29.52 104.81 29.68 105.25
  Q 31.75 111.04 35.23 115.74
  Q 36.75 117.79 37.65 120.37
  C 38.78 123.59 41.18 126.51 41.62 129.90
  Q 42.43 136.06 43.80 141.04
  C 44.98 145.31 44.85 149.20 44.71 153.44
  C 44.64 155.66 45.39 157.44 45.86 159.51
  A 0.45 0.45 0.0 0 1 45.42 160.06
  L 0.00 160.06
  L 0.00 0.00
  Z"
/>
<path fill="#221f20" d="
  M 329.72 159.11
  Q 327.36 160.82 324.99 159.96
  Q 321.81 153.61 321.18 144.76
  Q 320.65 137.27 316.26 126.75
  Q 314.54 122.61 312.21 120.26
  Q 311.54 119.58 311.54 120.53
  Q 311.53 123.48 311.65 126.39
  Q 311.88 131.94 308.43 138.16
  C 305.66 143.16 302.43 147.48 303.51 153.44
  C 303.91 155.64 303.69 157.66 303.42 159.89
  Q 302.31 159.74 300.74 160.16
  Q 300.27 160.29 299.81 160.12
  Q 298.80 159.74 298.09 159.96
  Q 297.55 156.76 298.13 151.77
  Q 298.63 147.45 300.22 144.21
  Q 302.44 139.67 303.29 134.10
  C 304.59 125.66 304.60 116.94 305.78 108.39
  C 306.15 105.68 304.88 103.56 303.60 101.39
  A 1.41 1.40 47.8 0 0 301.26 101.27
  L 300.42 102.43
  A 0.83 0.82 -62.1 0 1 299.50 102.72
  L 297.68 102.11
  Q 296.68 101.78 296.08 102.64
  Q 293.07 106.96 289.54 105.18
  Q 289.16 104.98 289.18 104.56
  Q 289.22 103.89 288.72 103.53
  Q 288.30 103.23 287.79 103.14
  C 279.64 101.70 279.65 96.70 276.41 90.68
  A 1.03 1.02 -3.1 0 0 275.86 90.19
  Q 275.38 90.02 275.26 89.53
  Q 275.13 89.07 275.43 88.66
  Q 276.84 86.71 278.75 86.07
  Q 287.83 83.04 299.22 80.14
  Q 299.73 80.01 299.69 79.48
  Q 299.29 73.70 298.72 68.19
  C 298.35 64.54 299.87 60.94 302.39 58.32
  C 304.10 56.55 304.96 54.22 304.55 51.73
  C 302.72 40.60 301.70 29.04 302.90 17.49
  Q 303.02 16.34 301.64 16.16
  Q 301.11 16.09 300.63 15.82
  L 296.28 13.39
  Q 296.12 13.31 296.17 13.13
  L 296.25 12.86
  Q 296.26 12.80 296.32 12.81
  Q 298.06 13.10 299.44 13.88
  A 0.51 0.51 0.0 0 0 300.18 13.61
  Q 300.32 13.21 300.16 12.80
  Q 299.81 11.93 298.94 11.59
  C 297.88 11.17 295.95 10.77 295.22 9.73
  Q 294.68 8.97 295.54 9.33
  L 297.50 10.14
  Q 299.52 10.99 298.45 9.08
  L 297.82 7.95
  A 0.38 0.38 0.0 0 1 298.02 7.40
  L 298.27 7.31
  A 0.36 0.36 0.0 0 1 298.72 7.50
  C 299.97 10.25 301.92 12.27 303.81 14.53
  Q 305.16 16.14 305.36 18.44
  C 305.75 22.71 306.59 26.82 306.80 31.09
  Q 307.15 37.86 308.51 45.17
  C 308.87 47.12 309.80 48.87 310.48 50.71
  A 0.52 0.52 0.0 0 0 311.45 50.72
  L 312.73 47.36
  Q 312.93 46.83 312.38 46.68
  C 310.70 46.23 309.44 43.88 311.06 42.62
  Q 311.41 42.35 311.55 41.93
  Q 312.94 37.89 317.85 35.79
  C 321.35 34.28 324.35 39.00 323.57 42.05
  Q 323.02 44.18 323.29 46.31
  Q 323.38 47.06 322.63 47.16
  C 322.02 47.23 321.66 47.35 321.23 47.79
  Q 318.46 50.67 319.06 54.92
  Q 319.32 56.71 320.95 57.82
  C 325.79 61.09 332.48 61.85 338.14 62.63
  Q 348.52 64.05 358.43 68.98
  Q 358.54 69.03 358.50 69.15
  Q 358.49 69.17 358.48 69.20
  Q 358.44 69.29 358.36 69.24
  Q 357.72 68.82 356.99 68.98
  Q 356.29 69.14 356.80 69.64
  Q 357.73 70.56 358.35 71.78
  Q 358.64 72.36 358.01 72.45
  Q 357.29 72.55 356.80 72.05
  Q 356.39 71.63 356.25 72.20
  Q 356.17 72.51 356.41 72.73
  Q 356.96 73.23 356.23 73.10
  Q 355.70 73.01 355.61 72.48
  Q 355.09 69.68 352.47 68.68
  A 0.88 0.87 88.6 0 0 351.36 69.85
  Q 351.86 71.00 351.84 72.20
  Q 351.84 72.30 351.74 72.35
  L 351.21 72.63
  Q 350.92 72.79 350.84 72.47
  Q 350.07 69.38 348.60 67.38
  Q 347.91 66.45 346.76 66.52
  Q 333.87 67.27 322.64 65.09
  A 2.66 2.65 -71.3 0 0 319.75 66.52
  Q 317.36 71.39 314.21 75.17
  Q 311.68 78.19 315.61 77.90
  Q 319.30 77.63 322.90 77.42
  Q 326.37 77.22 331.25 74.61
  C 332.14 74.14 333.07 73.90 333.76 74.82
  Q 334.14 75.32 334.78 75.32
  C 336.24 75.31 337.71 74.76 339.07 75.54
  Q 340.64 76.43 341.27 77.96
  Q 342.60 81.19 341.51 83.77
  Q 339.68 88.10 335.66 86.78
  Q 335.11 86.60 334.83 87.11
  L 334.03 88.54
  A 0.89 0.89 0.0 0 1 333.11 88.99
  Q 329.55 88.36 326.58 92.00
  Q 325.54 93.26 324.37 92.19
  Q 323.85 91.71 323.30 92.14
  L 320.05 94.65
  A 1.63 1.62 78.5 0 0 319.47 95.53
  L 317.44 103.59
  Q 317.30 104.15 317.49 104.69
  Q 319.19 109.46 319.64 114.74
  C 320.01 119.01 322.09 122.40 324.04 125.99
  C 326.87 131.20 326.17 139.15 325.91 145.12
  Q 325.77 148.33 328.80 147.95
  A 0.98 0.98 0.0 0 1 329.79 149.38
  C 328.03 152.73 328.17 155.17 329.72 159.11
  Z"
/>
<path fill="#010101" d="
  M 851.00 160.04
  L 851.00 183.00
  L 0.00 183.00
  L 0.00 160.06
  L 45.42 160.06
  A 0.45 0.45 0.0 0 0 45.86 159.51
  C 45.39 157.44 44.64 155.66 44.71 153.44
  C 44.85 149.20 44.98 145.31 43.80 141.04
  Q 42.43 136.06 41.62 129.90
  C 41.18 126.51 38.78 123.59 37.65 120.37
  Q 36.75 117.79 35.23 115.74
  Q 31.75 111.04 29.68 105.25
  Q 29.52 104.81 29.05 104.76
  L 26.05 104.49
  Q 25.41 104.43 25.23 103.81
  Q 24.76 102.13 22.91 102.51
  Q 22.08 102.68 21.50 102.06
  L 18.31 98.64
  A 0.89 0.89 0.0 0 1 18.16 97.64
  Q 20.37 93.13 21.48 88.06
  A 1.79 1.75 -48.6 0 0 21.43 87.10
  C 20.39 84.10 18.68 80.96 18.39 77.77
  Q 17.98 73.31 18.52 68.55
  C 18.77 66.37 20.12 64.35 21.24 62.51
  C 22.77 59.99 22.42 56.25 21.24 53.74
  Q 16.08 42.71 15.07 37.48
  Q 13.81 31.00 12.63 24.47
  Q 12.32 22.70 11.01 21.53
  Q 8.66 19.42 7.15 16.65
  Q 6.38 15.23 7.75 16.10
  Q 8.50 16.57 9.06 17.15
  Q 9.30 17.40 9.48 17.11
  L 9.75 16.68
  Q 9.82 16.56 9.72 16.45
  Q 8.18 14.78 6.49 13.74
  Q 6.33 13.64 6.27 13.46
  Q 6.20 13.26 6.32 13.09
  A 0.30 0.29 35.0 0 1 6.74 13.02
  Q 7.00 13.21 7.32 13.26
  Q 8.16 13.38 7.96 12.55
  L 7.81 11.93
  Q 7.68 11.36 8.24 11.54
  Q 8.63 11.66 8.81 12.03
  C 9.96 14.36 11.86 15.64 13.00 18.10
  C 15.24 22.91 16.18 27.42 18.44 32.36
  Q 19.80 35.33 20.18 39.07
  C 20.61 43.28 22.72 46.27 25.35 49.44
  C 26.78 51.18 27.25 53.32 28.14 55.34
  A 1.44 1.44 0.0 0 0 29.45 56.21
  C 31.72 56.23 32.79 52.17 32.55 50.65
  Q 32.14 47.91 31.47 45.47
  C 30.78 42.94 32.07 40.58 34.33 39.51
  Q 34.88 39.25 35.46 39.45
  Q 36.97 39.96 38.53 39.97
  C 42.26 39.99 46.40 43.63 45.78 47.60
  Q 45.05 52.38 42.78 56.06
  Q 42.06 57.23 40.76 56.81
  L 39.21 56.32
  Q 38.60 56.13 38.15 56.59
  C 35.48 59.31 38.59 63.25 41.45 63.98
  Q 45.93 65.12 50.62 66.92
  C 53.78 68.13 57.28 68.55 60.74 67.82
  Q 66.97 66.51 73.26 65.87
  C 78.92 65.29 81.78 67.40 86.44 70.03
  Q 86.88 70.27 86.75 70.75
  L 86.24 72.76
  Q 86.04 73.52 85.61 72.87
  C 84.60 71.38 82.85 69.47 80.90 69.48
  Q 80.00 69.49 80.60 70.16
  L 82.04 71.78
  Q 82.40 72.19 81.96 72.51
  Q 81.71 72.69 81.45 72.51
  Q 78.71 70.53 75.66 68.80
  A 2.53 2.52 51.2 0 0 73.69 68.58
  Q 69.59 69.85 65.40 71.16
  C 58.62 73.29 51.84 72.06 45.04 70.56
  C 40.53 69.56 36.19 73.96 34.01 77.40
  Q 33.65 77.97 34.23 78.32
  Q 38.24 80.75 41.96 83.43
  Q 43.95 84.87 45.98 84.18
  Q 53.17 81.75 62.85 82.80
  Q 64.66 83.00 65.78 84.49
  C 67.73 87.10 66.44 90.06 64.50 92.18
  C 61.79 95.13 59.88 98.55 57.29 101.61
  Q 54.23 105.25 51.33 109.91
  C 49.78 112.41 47.79 114.56 45.12 115.82
  A 0.98 0.97 67.2 0 0 44.63 117.03
  Q 46.33 121.74 48.09 126.32
  C 50.07 131.45 49.53 137.45 49.26 142.85
  Q 49.03 147.53 52.42 150.23
  A 0.89 0.88 -56.6 0 1 52.64 151.35
  Q 51.72 152.98 50.31 154.37
  C 48.74 155.91 49.21 157.32 49.20 159.22
  Q 49.20 159.99 49.97 159.99
  Q 79.87 160.01 109.75 159.99
  Q 112.38 159.99 112.80 157.94
  Q 114.18 158.36 114.22 159.06
  A 1.58 1.58 0.0 0 0 116.90 160.09
  Q 117.82 159.19 119.34 159.94
  L 137.12 159.92
  Q 137.73 159.60 138.30 159.71
  Q 138.71 159.79 138.91 160.16
  Q 139.29 160.90 140.11 160.74
  Q 140.58 160.65 140.81 160.23
  Q 141.24 159.44 142.09 159.59
  Q 144.08 160.66 144.77 159.35
  Q 145.61 158.70 145.75 159.55
  Q 145.77 159.88 146.00 159.91
  Q 149.57 160.40 152.93 159.50
  Q 156.41 159.76 157.99 157.11
  Q 159.01 158.25 160.75 158.29
  A 0.70 0.63 -29.7 0 1 161.03 158.35
  Q 161.78 158.66 161.56 159.08
  Q 161.09 159.98 162.00 159.98
  L 212.21 160.01
  Q 212.85 160.01 212.78 159.38
  C 212.55 157.28 212.61 155.23 213.14 153.16
  Q 216.34 140.47 219.92 132.16
  Q 221.17 129.28 221.61 126.98
  C 222.40 122.82 223.51 118.66 223.49 114.51
  C 223.47 109.94 224.66 105.46 224.26 100.91
  Q 223.95 97.51 223.62 94.06
  Q 223.21 89.68 218.13 87.92
  Q 217.12 87.58 217.25 86.52
  L 217.56 84.05
  A 1.96 1.92 32.4 0 0 217.24 82.70
  C 215.61 80.32 214.68 77.74 212.42 75.79
  C 207.64 71.68 204.98 66.01 199.40 62.81
  A 1.16 1.16 0.0 0 1 199.06 61.09
  Q 200.74 58.93 198.42 57.03
  A 0.40 0.40 0.0 0 1 198.42 56.41
  L 198.65 56.21
  A 0.69 0.69 0.0 0 1 199.57 56.26
  Q 202.31 59.02 203.97 62.23
  Q 204.87 63.96 206.64 65.40
  Q 210.85 68.84 214.59 72.99
  C 217.27 75.98 220.43 79.49 224.27 80.95
  Q 227.61 82.21 230.43 85.30
  A 0.74 0.74 0.0 0 0 231.40 85.41
  Q 232.16 84.87 231.73 83.95
  Q 231.20 82.79 230.59 81.70
  Q 230.33 81.22 230.49 80.71
  Q 231.18 78.52 231.69 76.41
  C 233.06 70.68 240.86 71.54 241.41 77.33
  Q 241.93 82.93 238.76 86.66
  A 0.99 0.99 0.0 0 0 239.31 88.27
  C 244.84 89.49 243.63 93.82 244.53 97.92
  C 245.46 102.22 244.91 106.58 243.93 110.73
  C 243.59 112.19 243.29 113.22 243.85 114.72
  Q 246.08 120.73 247.27 126.68
  C 248.01 130.38 249.57 133.82 250.15 137.52
  Q 251.05 143.30 256.40 148.20
  Q 257.46 149.16 256.83 150.44
  Q 256.62 150.87 256.14 150.92
  Q 253.69 151.16 252.08 149.85
  Q 250.55 148.61 248.87 147.48
  Q 247.66 146.67 247.20 145.42
  Q 243.39 135.06 236.71 124.99
  A 1.11 1.11 0.0 0 0 235.08 124.75
  Q 232.71 126.72 231.18 129.73
  Q 226.28 139.40 220.64 150.22
  Q 219.52 152.37 217.87 154.63
  A 1.94 1.93 -27.7 0 0 217.49 155.84
  L 217.62 159.05
  Q 217.65 159.92 218.51 159.92
  L 298.09 159.96
  Q 298.80 159.74 299.81 160.12
  Q 300.27 160.29 300.74 160.16
  Q 302.31 159.74 303.42 159.89
  L 324.99 159.96
  Q 327.36 160.82 329.72 159.11
  Q 329.75 159.93 331.00 159.94
  Q 363.87 160.02 396.75 159.99
  Q 397.35 159.99 397.36 159.39
  Q 397.44 155.74 395.84 153.39
  Q 391.54 147.06 391.89 140.79
  Q 391.97 139.30 391.22 140.59
  Q 387.73 146.56 385.22 152.38
  C 383.65 156.02 381.14 159.07 376.78 158.01
  Q 375.31 157.65 376.65 156.96
  C 378.68 155.92 381.50 154.07 379.21 151.51
  A 1.26 1.26 0.0 0 1 379.77 149.46
  L 381.46 148.92
  A 2.24 2.23 -1.3 0 0 382.93 147.39
  C 383.88 143.88 384.65 139.51 387.14 136.85
  C 390.20 133.58 391.85 129.12 390.43 124.80
  Q 389.71 122.59 389.74 120.34
  Q 389.75 119.66 389.12 119.90
  Q 386.63 120.85 385.40 117.91
  A 0.69 0.68 62.3 0 1 385.66 117.07
  L 386.50 116.53
  A 0.54 0.54 0.0 0 0 386.42 115.59
  Q 385.53 115.20 384.50 115.25
  A 0.28 0.26 -8.7 0 1 384.24 115.07
  L 384.14 114.76
  A 0.46 0.45 75.0 0 1 384.48 114.16
  C 390.01 113.05 395.75 110.42 393.59 103.55
  Q 392.62 100.48 391.46 97.13
  Q 391.26 96.56 390.68 96.74
  Q 386.74 98.00 383.16 98.61
  C 378.08 99.47 372.57 95.67 368.10 93.77
  C 365.47 92.64 363.83 90.62 363.60 87.87
  A 0.23 0.23 0.0 0 1 364.02 87.73
  L 365.98 90.76
  A 0.53 0.53 0.0 0 0 366.94 90.62
  Q 367.27 89.45 366.61 88.29
  Q 366.53 88.15 366.66 88.06
  Q 366.77 87.99 366.90 88.00
  Q 367.06 88.01 367.16 88.14
  Q 368.30 89.69 369.04 91.36
  A 2.44 2.44 0.0 0 0 370.70 92.74
  Q 374.61 93.71 379.52 94.15
  C 381.90 94.36 386.36 93.01 388.35 91.70
  Q 391.29 89.77 394.18 88.52
  A 2.72 2.71 54.2 0 0 394.91 84.01
  Q 391.70 81.11 392.20 75.78
  A 1.19 1.19 0.0 0 0 391.90 74.87
  C 389.16 71.81 392.83 66.86 396.81 68.74
  Q 397.35 69.00 397.59 69.54
  L 398.05 70.63
  Q 398.28 71.15 398.85 71.22
  Q 401.46 71.55 403.91 73.33
  C 406.62 75.31 405.20 78.82 405.70 81.40
  C 406.08 83.28 405.31 84.80 404.45 86.39
  A 1.09 1.06 -77.6 0 1 403.61 86.94
  L 401.99 87.10
  A 0.72 0.72 0.0 0 0 401.42 87.46
  Q 401.07 88.08 401.63 88.59
  A 0.78 0.74 62.0 0 0 402.20 88.78
  Q 405.06 88.59 406.84 90.86
  C 408.27 92.69 410.17 93.22 412.13 94.23
  C 414.57 95.49 419.16 94.90 421.79 94.69
  A 2.64 2.62 -76.3 0 0 423.80 93.46
  L 425.30 91.08
  Q 425.71 90.42 425.83 91.19
  Q 425.91 91.75 425.50 92.17
  Q 425.21 92.46 425.48 92.77
  Q 425.73 93.05 426.10 92.96
  Q 426.41 92.88 426.62 92.65
  Q 427.36 91.86 428.15 91.22
  Q 428.99 90.55 428.59 91.55
  C 427.75 93.67 426.26 95.17 423.99 95.77
  C 420.15 96.78 414.95 99.64 410.95 98.19
  Q 408.60 97.34 406.28 96.76
  A 0.53 0.52 0.1 0 0 405.64 97.39
  Q 406.80 101.93 405.75 105.52
  C 404.35 110.31 405.13 116.29 406.14 121.01
  Q 406.25 121.51 405.87 121.86
  Q 404.04 123.55 401.95 122.53
  Q 401.41 122.27 401.23 122.84
  Q 400.28 125.86 398.63 128.55
  C 396.54 131.94 399.00 136.13 396.96 140.03
  A 2.06 1.97 57.1 0 0 396.74 141.17
  C 397.40 147.36 400.38 160.06 407.87 160.04
  Q 429.92 159.97 452.33 160.00
  Q 452.98 160.00 453.28 159.42
  L 455.04 155.85
  Q 455.34 155.25 455.02 154.65
  Q 454.54 153.77 453.67 153.08
  Q 453.04 152.57 453.35 151.83
  C 454.05 150.19 455.27 148.95 455.87 147.24
  Q 458.50 139.89 460.17 133.96
  Q 460.48 132.89 460.34 131.74
  Q 458.48 116.51 455.82 101.21
  Q 455.33 98.37 455.12 95.23
  C 454.88 91.40 454.42 88.10 455.94 84.38
  Q 456.85 82.15 457.26 79.65
  Q 458.71 70.92 457.42 62.40
  Q 456.97 59.43 455.36 56.87
  Q 452.29 51.97 449.88 46.84
  A 12.51 12.39 11.6 0 0 447.84 43.78
  Q 443.28 38.77 438.29 33.84
  Q 435.52 31.09 432.64 33.24
  Q 432.21 33.56 431.75 33.29
  Q 431.44 33.12 431.27 32.81
  A 0.98 0.96 -13.6 0 0 430.41 32.30
  L 427.80 32.32
  Q 426.10 32.34 427.39 31.23
  C 434.51 25.11 441.05 31.53 447.42 34.61
  C 450.83 36.26 453.46 39.53 456.71 41.79
  Q 459.97 44.05 462.84 46.45
  Q 463.99 47.41 465.30 46.66
  L 465.68 46.45
  A 0.79 0.78 -38.3 0 0 465.83 45.20
  C 462.60 42.14 461.14 36.36 465.46 33.56
  C 469.94 30.65 472.66 32.99 476.97 34.10
  A 1.51 1.50 79.7 0 1 477.83 34.70
  C 479.14 36.62 478.40 39.54 477.63 41.55
  Q 477.37 42.24 477.62 42.94
  Q 478.01 43.98 478.76 44.80
  Q 479.23 45.31 478.67 45.72
  L 477.57 46.51
  A 1.27 1.25 -15.4 0 0 477.04 47.43
  L 476.80 49.79
  Q 476.74 50.46 476.07 50.55
  Q 474.93 50.71 473.83 50.50
  A 0.70 0.67 -50.7 0 0 473.42 50.55
  Q 472.88 50.80 473.05 51.21
  Q 473.19 51.56 473.46 51.74
  Q 475.53 53.11 476.51 54.94
  C 477.90 57.56 480.13 59.69 481.68 62.28
  C 483.64 65.54 486.92 68.23 489.72 70.86
  Q 492.35 73.33 494.28 75.66
  C 496.18 77.96 502.22 87.18 506.09 84.15
  Q 507.70 82.89 509.54 82.05
  A 0.81 0.80 -17.7 0 1 510.67 82.63
  L 511.09 84.95
  Q 511.26 85.84 512.02 85.35
  L 513.45 84.42
  Q 514.99 83.41 514.33 85.13
  Q 513.40 87.55 511.01 88.80
  A 0.84 0.83 -17.5 0 0 510.57 89.64
  Q 511.20 94.91 513.21 101.88
  Q 514.30 105.63 517.59 107.34
  Q 520.61 108.91 524.56 110.16
  Q 525.37 110.42 524.97 109.67
  Q 524.64 109.06 524.01 108.73
  Q 521.41 107.36 522.83 104.81
  Q 523.73 103.20 523.28 101.47
  A 0.57 0.57 0.0 0 1 523.70 100.78
  Q 526.49 100.08 527.88 97.03
  Q 528.95 94.67 531.26 94.90
  C 534.91 95.26 537.96 97.29 539.69 100.76
  Q 541.60 104.58 542.34 108.38
  Q 542.69 110.11 543.33 111.62
  C 543.93 113.01 544.06 114.35 543.92 115.84
  Q 543.82 116.85 544.63 117.47
  C 547.80 119.90 550.85 122.63 554.30 124.62
  Q 559.56 127.66 564.54 130.89
  C 566.74 132.31 569.25 133.41 571.86 133.89
  A 1.49 1.48 89.4 0 1 573.05 135.06
  L 573.73 138.42
  Q 573.84 138.98 573.43 139.37
  Q 571.73 140.97 569.63 140.25
  Q 569.07 140.06 568.79 139.55
  Q 567.27 136.74 564.23 135.44
  C 559.31 133.34 554.60 131.28 550.11 128.31
  Q 545.71 125.41 540.59 122.99
  A 0.60 0.60 0.0 0 0 539.73 123.51
  Q 539.69 124.29 540.02 125.03
  Q 542.24 130.08 543.29 134.85
  Q 543.45 135.58 544.18 135.48
  Q 545.94 135.27 547.22 136.80
  A 3.97 3.96 -14.6 0 0 549.56 138.17
  Q 554.20 139.00 559.05 139.28
  Q 561.25 139.41 563.36 140.58
  C 566.86 142.53 570.32 144.45 573.57 146.87
  Q 577.05 149.46 580.87 151.79
  Q 582.90 153.03 585.13 153.30
  Q 587.72 153.62 590.42 155.00
  Q 590.81 155.20 590.94 155.62
  Q 591.17 156.34 590.87 157.06
  Q 590.66 157.56 590.14 157.70
  Q 586.40 158.67 582.24 158.74
  C 581.19 158.76 580.12 158.72 579.43 157.81
  Q 577.64 155.47 574.94 156.46
  C 573.02 157.16 570.23 156.65 568.26 156.23
  Q 567.71 156.11 567.19 156.33
  Q 566.52 156.61 565.83 156.52
  Q 565.34 156.46 565.03 156.07
  Q 563.66 154.37 561.45 154.28
  Q 560.64 154.24 561.25 154.78
  L 563.08 156.42
  A 1.10 1.09 -31.6 0 1 562.63 158.29
  Q 561.75 158.52 560.98 158.99
  Q 559.34 159.99 561.26 159.99
  L 628.69 160.00
  Q 629.36 160.00 629.45 159.33
  C 629.90 155.99 628.17 153.65 628.05 150.46
  Q 627.87 145.94 626.46 140.50
  C 625.44 136.55 625.38 132.73 625.53 128.73
  A 1.81 1.79 9.7 0 0 624.26 126.95
  L 616.22 124.48
  Q 615.67 124.31 615.34 123.85
  C 614.72 122.98 614.25 122.11 613.27 121.59
  Q 609.70 119.68 605.93 117.27
  A 0.39 0.39 0.0 0 1 605.82 116.72
  Q 608.34 113.08 609.20 109.24
  C 610.49 103.46 604.74 98.87 600.14 96.61
  C 597.95 95.53 595.75 94.60 593.77 93.20
  Q 591.19 91.38 588.31 90.16
  A 1.24 1.22 0.7 0 1 587.65 89.49
  L 587.19 88.31
  A 1.78 1.77 -82.1 0 0 586.62 87.55
  Q 583.52 85.09 579.18 84.53
  A 1.85 1.85 0.0 0 1 577.71 83.43
  Q 577.07 81.95 576.01 80.86
  C 574.05 78.87 572.81 80.66 570.97 81.19
  A 1.20 1.16 -34.9 0 1 569.98 81.03
  Q 566.03 78.32 566.12 74.09
  Q 566.22 69.48 565.95 64.74
  C 565.85 63.02 567.24 60.48 569.36 61.24
  C 571.93 62.15 573.49 65.37 575.72 66.92
  Q 582.59 71.71 587.55 77.72
  C 588.88 79.34 590.79 80.59 592.89 81.05
  Q 598.60 82.30 604.76 83.61
  C 610.70 84.88 615.19 83.27 620.71 80.53
  Q 630.87 75.47 638.26 70.67
  Q 640.83 68.99 642.30 67.30
  C 646.40 62.59 650.99 58.65 655.50 54.37
  Q 657.09 52.86 658.17 50.88
  Q 659.68 48.08 662.86 46.63
  Q 663.44 46.36 663.89 46.81
  Q 664.86 47.76 665.43 48.96
  C 667.54 53.38 669.39 58.49 669.33 63.50
  C 669.28 66.87 666.77 69.76 663.53 70.50
  C 661.47 70.97 659.17 72.99 659.63 75.37
  Q 660.08 77.74 660.25 80.08
  A 1.64 1.63 -85.3 0 1 658.24 81.79
  L 655.42 81.11
  Q 654.82 80.97 654.74 81.58
  C 654.60 82.71 654.45 83.77 653.85 84.77
  Q 651.30 89.04 649.32 93.63
  A 1.86 1.86 0.0 0 1 647.61 94.76
  L 645.46 94.74
  A 0.81 0.81 0.0 0 0 644.67 95.36
  Q 644.13 97.55 643.39 99.71
  Q 642.60 101.98 644.94 102.86
  C 646.82 103.57 648.85 103.98 650.08 105.71
  Q 651.91 108.27 652.95 111.72
  A 1.58 1.54 50.8 0 1 652.85 112.85
  C 651.45 115.65 651.71 117.84 649.03 120.02
  A 2.48 2.47 42.8 0 1 646.06 120.13
  L 643.08 118.07
  A 0.68 0.68 0.0 0 0 642.10 118.29
  Q 639.24 123.24 635.86 128.72
  Q 634.30 131.26 634.57 134.50
  Q 635.20 141.82 635.01 149.17
  Q 635.00 149.70 635.32 150.12
  L 636.00 151.00
  Q 636.31 151.41 636.21 151.92
  Q 635.71 154.44 636.41 157.18
  A 1.38 1.34 10.0 0 0 636.98 157.97
  Q 638.53 159.00 639.58 159.13
  C 643.48 159.60 647.33 160.01 651.25 160.01
  Q 674.64 160.00 698.39 160.00
  Q 698.99 160.00 699.32 159.49
  Q 700.72 157.33 700.54 154.96
  A 2.50 2.48 22.6 0 0 699.93 153.50
  Q 696.89 150.02 699.29 145.32
  Q 699.58 144.77 699.55 144.14
  Q 699.46 141.92 700.07 139.94
  A 1.01 1.00 -60.2 0 0 699.79 138.90
  Q 697.42 136.72 697.51 134.37
  Q 697.74 128.38 697.09 122.94
  Q 696.72 119.90 696.09 118.41
  Q 695.57 117.19 695.78 115.93
  C 697.15 107.93 698.32 100.45 701.28 92.74
  Q 701.47 92.24 701.31 91.73
  C 700.22 88.15 697.86 86.29 694.97 84.34
  A 3.63 3.62 -81.3 0 1 693.51 82.35
  Q 692.09 77.52 690.47 72.45
  Q 689.74 70.18 690.06 67.91
  Q 690.49 64.77 689.94 61.74
  C 689.27 58.10 693.40 56.38 694.66 53.32
  C 696.14 49.73 699.11 47.61 700.57 44.19
  C 703.36 37.63 705.76 31.98 710.87 27.74
  Q 714.96 24.35 719.46 21.86
  A 2.59 2.58 -18.8 0 0 720.77 19.21
  L 720.25 15.82
  A 0.54 0.54 0.0 0 1 721.03 15.25
  Q 721.80 15.64 722.38 16.31
  Q 722.73 16.71 723.18 16.42
  Q 723.80 16.03 723.74 15.39
  Q 723.50 12.66 724.24 10.57
  A 0.28 0.28 0.0 0 1 724.78 10.63
  Q 725.03 12.56 726.41 13.41
  Q 726.95 13.74 726.64 14.30
  C 724.84 17.59 723.56 21.29 720.92 24.06
  Q 717.87 27.28 714.79 30.83
  A 0.62 0.62 0.0 0 0 714.88 31.74
  C 717.88 33.99 719.72 37.37 717.94 41.09
  Q 716.24 44.67 713.55 47.46
  A 1.28 1.26 49.8 0 0 713.43 49.06
  C 716.07 52.88 715.81 56.40 721.40 57.36
  Q 725.57 58.08 729.22 59.07
  C 732.43 59.94 734.66 58.83 737.68 59.07
  Q 741.22 59.35 745.06 58.82
  A 0.70 0.70 0.0 0 0 745.62 57.90
  C 745.23 56.79 744.85 55.98 745.13 54.75
  Q 746.10 50.50 745.57 46.24
  A 1.14 1.12 70.6 0 1 746.09 45.14
  Q 747.70 44.14 749.51 43.88
  A 2.80 2.73 -35.7 0 1 751.05 44.11
  Q 753.51 45.25 755.83 44.15
  C 757.14 43.53 758.77 43.53 760.04 44.26
  A 2.02 2.02 0.0 0 1 760.75 47.07
  Q 757.48 52.39 755.49 59.21
  Q 755.17 60.33 756.30 60.56
  L 760.24 61.36
  Q 760.76 61.47 760.75 62.00
  L 760.68 64.83
  Q 760.67 65.31 760.19 65.26
  Q 758.99 65.14 757.81 65.47
  A 1.11 1.10 64.6 0 1 756.61 65.04
  Q 755.89 64.02 754.63 63.79
  A 0.73 0.72 12.6 0 0 753.80 64.31
  Q 752.13 70.91 749.15 76.60
  Q 747.35 80.02 742.96 81.68
  Q 729.72 86.69 719.89 90.18
  A 4.46 4.43 -88.7 0 0 717.26 92.71
  C 715.04 98.28 712.99 103.98 710.21 109.36
  Q 708.31 113.04 707.97 116.73
  Q 707.59 120.96 707.67 125.34
  C 707.75 129.89 708.78 134.26 708.48 138.69
  Q 708.43 139.34 708.85 139.85
  Q 710.01 141.23 709.43 143.02
  A 1.47 1.45 -54.7 0 0 709.65 144.34
  L 712.23 147.77
  Q 712.59 148.25 712.19 148.70
  Q 709.93 151.28 707.05 152.79
  A 1.64 1.63 -3.5 0 0 706.27 153.67
  Q 705.01 157.00 702.78 159.53
  A 0.28 0.28 0.0 0 0 702.99 160.00
  L 771.00 160.00
  A 0.68 0.62 -55.9 0 0 771.29 159.93
  Q 771.88 159.66 771.70 159.23
  A 0.33 0.33 0.0 0 0 771.24 159.07
  Q 770.52 159.46 769.81 159.12
  Q 769.26 158.85 769.64 158.37
  Q 771.15 156.44 772.69 154.40
  Q 773.92 152.79 774.19 150.63
  C 774.71 146.40 773.97 142.56 773.99 138.43
  Q 774.00 136.58 772.19 136.97
  Q 767.05 138.08 762.06 140.30
  C 757.76 142.22 752.72 141.45 748.53 143.20
  Q 744.48 144.89 740.27 150.10
  Q 739.96 150.49 739.45 150.49
  C 734.79 150.49 734.08 145.58 731.38 142.91
  C 728.40 139.96 725.73 136.38 726.36 132.01
  C 726.78 129.12 730.12 129.38 731.45 131.40
  Q 732.53 133.03 733.95 134.20
  A 1.40 1.40 0.0 0 0 736.20 133.48
  Q 736.68 131.70 738.68 131.61
  Q 746.03 131.27 754.26 131.50
  C 757.08 131.58 760.29 130.76 762.91 129.59
  Q 768.20 127.22 773.83 125.28
  A 1.48 1.47 -15.2 0 0 774.80 123.59
  Q 774.03 119.89 774.37 116.39
  Q 774.55 114.48 774.18 112.69
  C 772.75 105.84 778.19 101.38 783.30 98.32
  A 0.90 0.90 0.0 0 0 783.73 97.59
  C 783.79 95.84 782.69 94.54 782.67 92.75
  Q 782.61 88.33 783.55 84.67
  Q 783.71 84.08 784.20 83.72
  Q 789.91 79.59 795.67 84.85
  Q 796.14 85.29 796.16 85.93
  L 796.27 90.25
  A 1.52 1.49 27.2 0 0 796.55 91.09
  Q 797.82 92.90 796.99 94.96
  A 1.48 1.47 17.1 0 0 798.05 96.95
  Q 802.23 97.84 806.12 100.70
  C 807.84 101.96 809.61 105.28 809.70 107.06
  C 809.88 110.54 809.61 115.77 813.53 117.12
  A 0.78 0.76 -81.8 0 1 814.04 117.82
  Q 814.08 118.74 813.38 119.41
  Q 812.97 119.80 813.18 120.32
  Q 814.01 122.33 815.59 123.50
  Q 818.46 125.63 820.19 128.94
  C 821.41 131.27 824.75 133.95 827.27 134.65
  Q 830.35 135.50 832.70 137.69
  A 0.42 0.42 0.0 0 0 833.39 137.50
  L 834.08 135.14
  Q 834.21 134.71 834.65 134.59
  Q 839.67 133.25 840.74 138.14
  Q 841.88 143.33 838.05 147.66
  A 2.20 2.12 74.0 0 0 837.60 148.51
  C 836.61 152.11 836.24 154.69 831.89 155.44
  C 830.10 155.75 828.58 154.58 828.48 152.77
  Q 828.30 149.36 825.06 146.70
  Q 822.26 144.41 819.68 141.93
  C 816.33 138.72 812.07 136.59 807.79 135.39
  Q 805.84 134.85 805.54 136.85
  Q 804.99 140.53 804.29 144.09
  C 803.78 146.65 802.39 149.77 802.56 152.02
  Q 802.81 155.25 802.98 158.65
  A 1.45 1.45 0.0 0 0 804.43 160.03
  L 851.00 160.04
  Z
  M 740.82 64.58
  A 0.34 0.34 0.0 0 0 740.48 64.09
  Q 735.89 64.54 730.86 64.18
  C 725.39 63.80 720.62 64.75 715.10 62.77
  C 711.85 61.61 708.44 67.26 707.32 69.61
  Q 707.08 70.14 707.59 70.40
  Q 713.02 73.20 717.90 74.51
  Q 720.94 75.33 724.12 74.83
  Q 730.13 73.90 736.77 73.54
  Q 737.45 73.50 737.64 72.84
  Q 738.80 68.74 740.82 64.58
  Z
  M 478.75 151.96
  L 478.34 152.96
  A 1.11 1.10 -60.0 0 0 478.68 154.24
  L 483.48 158.00
  Q 483.79 158.24 483.87 158.63
  Q 483.95 159.01 483.87 159.10
  A 0.52 0.52 0.0 0 0 484.26 159.97
  Q 502.34 160.02 522.16 160.01
  Q 522.95 160.01 522.40 159.44
  C 519.23 156.18 522.02 151.35 525.10 148.94
  Q 525.55 148.59 525.47 148.03
  Q 524.93 144.19 524.21 139.84
  Q 523.77 137.17 519.81 128.12
  Q 519.53 127.49 519.76 126.85
  C 520.51 124.67 523.17 118.01 520.22 116.50
  C 517.08 114.89 508.95 109.25 508.47 105.17
  Q 507.50 96.92 507.59 90.07
  Q 507.59 89.50 507.02 89.55
  Q 502.95 89.95 500.44 87.98
  Q 497.36 85.57 493.75 83.30
  C 491.25 81.72 489.34 79.64 487.08 77.86
  Q 484.51 75.86 479.94 74.25
  C 478.95 73.90 478.30 73.36 477.72 72.49
  Q 476.69 70.96 476.53 72.80
  Q 475.96 79.30 474.82 85.54
  C 474.50 87.29 475.20 89.99 474.96 92.21
  Q 474.06 100.52 472.87 108.68
  C 472.42 111.78 470.90 114.23 471.80 117.49
  Q 472.35 119.46 472.42 121.42
  Q 472.75 129.74 473.30 138.10
  C 473.55 141.74 475.08 144.84 475.68 148.39
  C 475.91 149.70 476.85 150.60 478.15 150.86
  Q 479.11 151.05 478.75 151.96
  Z
  M 626.63 94.79
  C 629.41 100.58 634.32 98.29 637.01 94.43
  Q 640.86 88.92 645.07 83.32
  C 647.23 80.43 650.07 78.33 652.41 75.59
  A 0.97 0.96 52.2 0 0 652.54 74.54
  L 652.36 74.18
  A 0.46 0.46 0.0 0 0 651.58 74.10
  Q 649.79 76.43 648.74 76.54
  Q 643.22 77.13 639.59 81.36
  C 637.89 83.35 636.32 85.30 634.32 87.03
  Q 630.57 90.28 626.83 93.75
  Q 626.35 94.20 626.63 94.79
  Z
  M 45.92 103.75
  L 48.53 103.75
  A 1.87 1.86 -81.6 0 0 50.31 102.42
  Q 51.86 97.33 54.12 92.83
  A 0.25 0.25 0.0 0 0 53.83 92.48
  Q 49.13 93.84 43.79 94.50
  Q 40.93 94.86 41.35 97.53
  A 0.82 0.80 67.4 0 1 41.04 98.31
  Q 38.86 99.96 40.03 102.82
  Q 41.91 107.40 43.52 111.95
  Q 43.90 113.03 44.54 112.08
  L 45.25 111.02
  A 2.23 2.23 0.0 0 0 45.47 108.96
  Q 44.52 106.55 45.04 104.44
  Q 45.21 103.75 45.92 103.75
  Z
  M 788.89 120.98
  A 0.67 0.67 0.0 0 0 789.31 119.91
  L 786.98 116.94
  A 0.67 0.67 0.0 0 0 786.76 116.76
  L 783.27 114.92
  A 0.67 0.67 0.0 0 0 782.30 115.37
  L 780.97 121.35
  A 0.67 0.67 0.0 0 0 781.74 122.16
  L 788.89 120.98
  Z
  M 779.61 159.61
  Q 779.65 160.00 780.04 160.00
  L 793.74 160.00
  Q 794.65 160.00 795.16 159.24
  Q 796.92 156.66 798.17 153.50
  C 799.06 151.26 799.00 148.84 799.41 146.41
  C 799.96 143.16 799.60 139.63 800.39 136.14
  Q 800.57 135.33 799.74 135.34
  L 781.19 135.52
  A 1.44 1.43 -86.3 0 0 779.78 136.76
  Q 778.97 142.58 778.09 148.01
  Q 777.63 150.84 778.43 153.20
  C 779.13 155.28 779.36 157.46 779.61 159.61
  Z
  M 464.38 155.76
  Q 462.23 157.15 460.49 159.18
  Q 459.99 159.76 460.75 159.82
  Q 466.09 160.29 472.30 159.74
  Q 473.74 159.61 472.33 159.25
  Q 469.29 158.48 468.53 154.91
  Q 467.89 151.85 467.32 148.60
  Q 466.77 145.50 466.24 148.61
  Q 465.75 151.48 465.29 154.37
  Q 465.14 155.26 464.38 155.76
  Z
  M 559.8783 153.7680
  A 2.51 0.45 -2.1 0 0 557.3535 153.4103
  A 2.51 0.45 -2.1 0 0 554.8617 153.9520
  A 2.51 0.45 -2.1 0 0 557.3865 154.3097
  A 2.51 0.45 -2.1 0 0 559.8783 153.7680
  Z
  M 778.22 160.01
  A 0.42 0.42 0.0 0 0 778.56 159.34
  L 777.25 157.56
  A 0.42 0.42 0.0 0 0 776.67 157.46
  L 774.11 159.23
  A 0.42 0.42 0.0 0 0 774.35 159.99
  L 778.22 160.01
  Z"
/>
<path fill="#101211" d="
  M 157.99 157.11
  Q 156.41 159.76 152.93 159.50
  Q 151.69 158.42 150.08 158.23
  Q 149.44 158.15 149.47 157.51
  L 149.53 156.46
  Q 149.56 155.85 148.98 155.67
  Q 148.74 155.59 148.52 155.72
  Q 148.17 155.94 147.98 156.33
  Q 147.14 158.14 145.75 159.55
  Q 145.61 158.70 144.77 159.35
  Q 143.60 157.81 142.09 159.59
  Q 141.24 159.44 140.81 160.23
  Q 140.58 160.65 140.11 160.74
  Q 139.29 160.90 138.91 160.16
  Q 138.71 159.79 138.30 159.71
  Q 137.73 159.60 137.12 159.92
  L 139.41 153.73
  A 0.53 0.53 0.0 0 0 138.96 153.02
  C 136.61 152.82 134.33 152.69 132.06 151.91
  Q 126.64 150.04 121.66 147.80
  Q 120.87 147.44 121.01 148.29
  L 121.80 153.46
  Q 121.87 153.91 121.70 154.32
  L 119.34 159.94
  Q 117.82 159.19 116.90 160.09
  A 1.58 1.58 0.0 0 1 114.22 159.06
  Q 114.18 158.36 112.80 157.94
  C 113.72 155.41 111.60 153.75 112.48 151.67
  C 113.18 149.99 113.91 148.20 113.85 146.34
  Q 113.65 140.37 113.41 135.18
  C 113.26 131.90 111.00 130.62 108.94 128.59
  Q 108.53 128.19 108.44 127.62
  L 108.16 125.80
  Q 108.08 125.24 107.76 124.78
  C 106.17 122.45 107.66 118.39 108.45 115.98
  Q 108.62 115.45 108.38 114.95
  Q 108.21 114.59 107.90 114.35
  Q 107.44 114.00 107.41 113.42
  Q 107.36 112.70 107.58 112.01
  Q 107.79 111.33 107.78 110.63
  L 107.71 104.63
  A 1.08 1.07 -72.9 0 0 107.24 103.74
  Q 104.79 102.09 102.07 101.29
  Q 101.58 101.15 101.72 100.65
  L 105.63 87.16
  Q 105.85 86.40 105.05 86.35
  Q 104.66 86.33 104.33 86.07
  A 1.20 1.20 0.0 0 1 103.89 85.01
  Q 104.60 78.53 104.99 71.96
  C 105.15 69.29 106.24 67.16 108.52 65.66
  C 110.53 64.34 112.21 62.76 114.55 61.86
  C 116.99 60.91 121.54 58.92 122.35 56.24
  A 1.51 1.50 12.0 0 1 123.97 55.19
  L 132.09 56.18
  A 2.36 2.36 0.0 0 0 134.69 54.28
  Q 135.16 51.82 138.14 51.89
  A 1.34 1.33 -4.0 0 0 139.49 50.35
  C 139.25 48.76 138.78 47.10 139.15 45.50
  Q 140.29 40.62 144.72 40.40
  C 147.64 40.25 150.05 42.05 152.27 43.73
  Q 153.48 44.66 153.06 46.00
  C 152.14 48.89 153.39 51.98 151.81 54.71
  Q 151.07 55.97 149.99 57.11
  A 2.48 2.47 42.5 0 0 150.15 60.69
  C 152.18 62.45 153.40 64.54 155.83 65.93
  Q 158.97 67.72 162.01 69.98
  A 2.43 2.41 -34.2 0 0 164.11 70.37
  Q 168.39 69.18 172.77 66.66
  A 1.74 1.72 -57.3 0 1 173.80 66.43
  Q 176.82 66.69 179.83 66.13
  Q 181.55 65.81 183.10 66.54
  C 186.63 68.19 187.00 72.22 186.42 75.53
  C 185.93 78.35 182.63 79.56 180.01 78.99
  Q 176.96 78.32 173.88 79.53
  Q 173.12 79.83 172.82 79.07
  Q 172.63 78.58 172.28 78.20
  Q 169.72 75.41 167.42 78.41
  C 165.06 81.47 162.86 84.51 160.10 87.20
  Q 156.32 90.88 153.04 94.34
  Q 150.96 96.53 147.68 96.88
  Q 147.15 96.93 146.99 97.44
  Q 146.72 98.27 146.77 99.16
  Q 146.81 99.77 146.50 100.30
  L 145.44 102.12
  Q 145.18 102.58 145.32 103.08
  Q 147.04 109.17 148.79 114.28
  C 149.94 117.67 152.65 121.43 152.53 125.08
  Q 152.25 133.65 154.46 142.74
  Q 154.78 144.08 155.03 149.26
  Q 155.18 152.18 157.99 157.11
  Z
  M 118.17 73.05
  A 1.32 1.32 0.0 0 0 116.41 71.45
  L 113.33 72.69
  A 1.32 1.32 0.0 0 0 112.52 73.67
  L 111.46 79.23
  A 1.32 1.32 0.0 0 0 112.68 80.79
  L 114.77 80.91
  A 1.32 1.32 0.0 0 0 116.11 79.97
  L 118.17 73.05
  Z"
/>
<path fill="#ffffff" d="
  M 740.82 64.58
  Q 738.80 68.74 737.64 72.84
  Q 737.45 73.50 736.77 73.54
  Q 730.13 73.90 724.12 74.83
  Q 720.94 75.33 717.90 74.51
  Q 713.02 73.20 707.59 70.40
  Q 707.08 70.14 707.32 69.61
  C 708.44 67.26 711.85 61.61 715.10 62.77
  C 720.62 64.75 725.39 63.80 730.86 64.18
  Q 735.89 64.54 740.48 64.09
  A 0.34 0.34 0.0 0 1 740.82 64.58
  Z"
/>
<path fill="#ffffff" d="
  M 118.17 73.05
  L 116.11 79.97
  A 1.32 1.32 0.0 0 1 114.77 80.91
  L 112.68 80.79
  A 1.32 1.32 0.0 0 1 111.46 79.23
  L 112.52 73.67
  A 1.32 1.32 0.0 0 1 113.33 72.69
  L 116.41 71.45
  A 1.32 1.32 0.0 0 1 118.17 73.05
  Z"
/>
<path fill="#ffffff" d="
  M 478.15 150.86
  C 476.85 150.60 475.91 149.70 475.68 148.39
  C 475.08 144.84 473.55 141.74 473.30 138.10
  Q 472.75 129.74 472.42 121.42
  Q 472.35 119.46 471.80 117.49
  C 470.90 114.23 472.42 111.78 472.87 108.68
  Q 474.06 100.52 474.96 92.21
  C 475.20 89.99 474.50 87.29 474.82 85.54
  Q 475.96 79.30 476.53 72.80
  Q 476.69 70.96 477.72 72.49
  C 478.30 73.36 478.95 73.90 479.94 74.25
  Q 484.51 75.86 487.08 77.86
  C 489.34 79.64 491.25 81.72 493.75 83.30
  Q 497.36 85.57 500.44 87.98
  Q 502.95 89.95 507.02 89.55
  Q 507.59 89.50 507.59 90.07
  Q 507.50 96.92 508.47 105.17
  C 508.95 109.25 517.08 114.89 520.22 116.50
  C 523.17 118.01 520.51 124.67 519.76 126.85
  Q 519.53 127.49 519.81 128.12
  Q 523.77 137.17 524.21 139.84
  Q 524.93 144.19 525.47 148.03
  Q 525.55 148.59 525.10 148.94
  C 522.02 151.35 519.23 156.18 522.40 159.44
  Q 522.95 160.01 522.16 160.01
  Q 502.34 160.02 484.26 159.97
  A 0.52 0.52 0.0 0 1 483.87 159.10
  Q 483.95 159.01 483.87 158.63
  Q 483.79 158.24 483.48 158.00
  L 478.68 154.24
  A 1.11 1.10 -60.0 0 1 478.34 152.96
  L 478.75 151.96
  Q 479.11 151.05 478.15 150.86
  Z"
/>
<path fill="#ffffff" d="
  M 637.01 94.43
  C 634.32 98.29 629.41 100.58 626.63 94.79
  Q 626.35 94.20 626.83 93.75
  Q 630.57 90.28 634.32 87.03
  C 636.32 85.30 637.89 83.35 639.59 81.36
  Q 643.22 77.13 648.74 76.54
  Q 649.79 76.43 651.58 74.10
  A 0.46 0.46 0.0 0 1 652.36 74.18
  L 652.54 74.54
  A 0.97 0.96 52.2 0 1 652.41 75.59
  C 650.07 78.33 647.23 80.43 645.07 83.32
  Q 640.86 88.92 637.01 94.43
  Z"
/>
<path fill="#ffffff" d="
  M 45.04 104.44
  Q 44.52 106.55 45.47 108.96
  A 2.23 2.23 0.0 0 1 45.25 111.02
  L 44.54 112.08
  Q 43.90 113.03 43.52 111.95
  Q 41.91 107.40 40.03 102.82
  Q 38.86 99.96 41.04 98.31
  A 0.82 0.80 67.4 0 0 41.35 97.53
  Q 40.93 94.86 43.79 94.50
  Q 49.13 93.84 53.83 92.48
  A 0.25 0.25 0.0 0 1 54.12 92.83
  Q 51.86 97.33 50.31 102.42
  A 1.87 1.86 -81.6 0 1 48.53 103.75
  L 45.92 103.75
  Q 45.21 103.75 45.04 104.44
  Z"
/>
<path fill="#ffffff" d="
  M 788.89 120.98
  L 781.74 122.16
  A 0.67 0.67 0.0 0 1 780.97 121.35
  L 782.30 115.37
  A 0.67 0.67 0.0 0 1 783.27 114.92
  L 786.76 116.76
  A 0.67 0.67 0.0 0 1 786.98 116.94
  L 789.31 119.91
  A 0.67 0.67 0.0 0 1 788.89 120.98
  Z"
/>
<path fill="#ffffff" d="
  M 324.99 159.96
  L 303.42 159.89
  C 303.69 157.66 303.91 155.64 303.51 153.44
  C 302.43 147.48 305.66 143.16 308.43 138.16
  Q 311.88 131.94 311.65 126.39
  Q 311.53 123.48 311.54 120.53
  Q 311.54 119.58 312.21 120.26
  Q 314.54 122.61 316.26 126.75
  Q 320.65 137.27 321.18 144.76
  Q 321.81 153.61 324.99 159.96
  Z"
/>
<path fill="#ffffff" d="
  M 779.61 159.61
  C 779.36 157.46 779.13 155.28 778.43 153.20
  Q 777.63 150.84 778.09 148.01
  Q 778.97 142.58 779.78 136.76
  A 1.44 1.43 -86.3 0 1 781.19 135.52
  L 799.74 135.34
  Q 800.57 135.33 800.39 136.14
  C 799.60 139.63 799.96 143.16 799.41 146.41
  C 799.00 148.84 799.06 151.26 798.17 153.50
  Q 796.92 156.66 795.16 159.24
  Q 794.65 160.00 793.74 160.00
  L 780.04 160.00
  Q 779.65 160.00 779.61 159.61
  Z"
/>
<path fill="#ffffff" d="
  M 465.29 154.37
  Q 465.75 151.48 466.24 148.61
  Q 466.77 145.50 467.32 148.60
  Q 467.89 151.85 468.53 154.91
  Q 469.29 158.48 472.33 159.25
  Q 473.74 159.61 472.30 159.74
  Q 466.09 160.29 460.75 159.82
  Q 459.99 159.76 460.49 159.18
  Q 462.23 157.15 464.38 155.76
  Q 465.14 155.26 465.29 154.37
  Z"
/>
<path fill="#ffffff" d="
  M 137.12 159.92
  L 119.34 159.94
  L 121.70 154.32
  Q 121.87 153.91 121.80 153.46
  L 121.01 148.29
  Q 120.87 147.44 121.66 147.80
  Q 126.64 150.04 132.06 151.91
  C 134.33 152.69 136.61 152.82 138.96 153.02
  A 0.53 0.53 0.0 0 1 139.41 153.73
  L 137.12 159.92
  Z"
/>
<ellipse fill="#ffffff" cx="0.00" cy="0.00" transform="translate(557.37,153.86) rotate(-2.1)" rx="2.51" ry="0.45"/>
<path fill="#ffffff" d="
  M 152.93 159.50
  Q 149.57 160.40 146.00 159.91
  Q 145.77 159.88 145.75 159.55
  Q 147.14 158.14 147.98 156.33
  Q 148.17 155.94 148.52 155.72
  Q 148.74 155.59 148.98 155.67
  Q 149.56 155.85 149.53 156.46
  L 149.47 157.51
  Q 149.44 158.15 150.08 158.23
  Q 151.69 158.42 152.93 159.50
  Z"
/>
<path fill="#ffffff" d="
  M 778.22 160.01
  L 774.35 159.99
  A 0.42 0.42 0.0 0 1 774.11 159.23
  L 776.67 157.46
  A 0.42 0.42 0.0 0 1 777.25 157.56
  L 778.56 159.34
  A 0.42 0.42 0.0 0 1 778.22 160.01
  Z"
/>
<path fill="#ffffff" d="
  M 144.77 159.35
  Q 144.08 160.66 142.09 159.59
  Q 143.60 157.81 144.77 159.35
  Z"
/>
</svg>
